<svg width="175" height="141" viewBox="0 0 175 141" fill="none" xmlns="http://www.w3.org/2000/svg">
<path d="M171 17.446H4C2.067 17.446 0.5 19.059 0.5 21.0489V120.142C0.5 122.132 2.067 123.745 4 123.745H171C172.933 123.745 174.5 122.132 174.5 120.142V21.0489C174.5 19.059 172.933 17.446 171 17.446Z" fill="white" stroke="#2C9C48" stroke-linejoin="round"/>
<path d="M68.5058 37.3514H107.068C108.819 37.3514 110.301 38.6844 110.536 40.4712L118.328 99.7535C118.613 101.916 116.979 103.84 114.86 103.84H60.1821C58.0498 103.84 56.4131 101.894 56.7181 99.7212L65.0418 40.4389C65.2907 38.6666 66.7662 37.3514 68.5058 37.3514Z" stroke="#2C9C48"/>
<path d="M13.5738 33.2198C14.5346 33.2198 15.3136 32.418 15.3136 31.4288C15.3136 30.4397 14.5346 29.6379 13.5738 29.6379C12.6129 29.6379 11.834 30.4397 11.834 31.4288C11.834 32.418 12.6129 33.2198 13.5738 33.2198Z" fill="#F6851F" fill-opacity="0.6"/>
<path d="M19.627 33.2198C20.5879 33.2198 21.3668 32.418 21.3668 31.4288C21.3668 30.4397 20.5879 29.6379 19.627 29.6379C18.6661 29.6379 17.8872 30.4397 17.8872 31.4288C17.8872 32.418 18.6661 33.2198 19.627 33.2198Z" fill="#F6851F" fill-opacity="0.6"/>
<path d="M25.6802 33.2198C26.6411 33.2198 27.42 32.418 27.42 31.4288C27.42 30.4397 26.6411 29.6379 25.6802 29.6379C24.7194 29.6379 23.9404 30.4397 23.9404 31.4288C23.9404 32.418 24.7194 33.2198 25.6802 33.2198Z" fill="#F6851F" fill-opacity="0.6"/>
<path d="M98.5362 42.5171C98.5362 36.2426 93.5951 31.1562 87.4999 31.1562C81.4047 31.1562 76.4636 36.2426 76.4636 42.5171" stroke="#2C9C48" stroke-linecap="round"/>
<path d="M132.576 32.7051H165.073" stroke="#2C9C48" stroke-linecap="round"/>
<path d="M132.576 38.3676H165.073" stroke="#2C9C48" stroke-linecap="round"/>
<path d="M132.576 43.5513H165.073" stroke="#2C9C48" stroke-linecap="round"/>
<path d="M165.576 24.5573H131.947C129.738 24.5573 127.947 26.4008 127.947 28.675V76.0539C127.947 78.3281 129.738 80.1716 131.947 80.1716H165.576C167.785 80.1716 169.576 78.3281 169.576 76.0539V28.675C169.576 26.4008 167.785 24.5573 165.576 24.5573Z" fill="#F6851F" fill-opacity="0.6"/>
</svg>
