<svg width="175" height="141" viewBox="0 0 175 141" fill="none" xmlns="http://www.w3.org/2000/svg">
<path d="M170.641 16.593H4.58985C2.71173 16.593 1.18921 18.1809 1.18921 20.1398V119.967C1.18921 121.926 2.71173 123.514 4.58985 123.514H170.641C172.519 123.514 174.041 121.926 174.041 119.967V20.1398C174.041 18.1809 172.519 16.593 170.641 16.593Z" fill="white" stroke="#2C9C48" stroke-width="1.15987" stroke-linejoin="round"/>
<path d="M29.4785 34.6743H8.9824C6.78581 34.6743 5.00513 36.5315 5.00513 38.8224V115.21C5.00513 117.501 6.78581 119.359 8.9824 119.359H29.4785C31.6751 119.359 33.4558 117.501 33.4558 115.21V38.8224C33.4558 36.5315 31.6751 34.6743 29.4785 34.6743Z" fill="#F6851F" fill-opacity="0.6"/>
<path d="M1.96484 30.7712H174.618" stroke="#2C9C48" stroke-width="1.15987"/>
<path d="M35.7629 122.661V31.3721" stroke="#2C9C48" stroke-width="1.15987"/>
<path d="M5.58203 39.9413H32.8794" stroke="#2C9C48" stroke-width="1.15987" stroke-linecap="round"/>
<path d="M5.58203 47.8982H32.8794" stroke="#2C9C48" stroke-width="1.15987" stroke-linecap="round"/>
<path d="M5.58203 55.8549H32.8794" stroke="#2C9C48" stroke-width="1.15987" stroke-linecap="round"/>
<path d="M5.58203 63.8203H32.8794" stroke="#2C9C48" stroke-width="1.15987" stroke-linecap="round"/>
<path d="M79.7878 89.703C78.1333 89.703 76.6045 89.419 75.2014 88.8512C73.7982 88.2614 72.5836 87.4422 71.5573 86.3938C70.5311 85.3454 69.7248 84.1113 69.1384 82.6916C68.573 81.2718 68.2903 79.721 68.2903 78.0391C68.2903 76.3572 68.573 74.8064 69.1384 73.3867C69.7248 71.9668 70.5311 70.7328 71.5573 69.6843C72.6044 68.6359 73.8296 67.8277 75.2327 67.2598C76.6359 66.6701 78.1648 66.3752 79.8192 66.3752C81.4109 66.3752 82.9083 66.6592 84.3114 67.2271C85.7146 67.7731 86.8979 68.6031 87.8613 69.7171L86.3848 71.257C85.4842 70.296 84.4894 69.6079 83.4004 69.1929C82.3114 68.7561 81.1386 68.5376 79.8821 68.5376C78.5627 68.5376 77.3375 68.7778 76.2065 69.2584C75.0757 69.7171 74.0913 70.3833 73.2536 71.257C72.416 72.1088 71.7563 73.1136 71.2746 74.2712C70.8139 75.4071 70.5835 76.663 70.5835 78.0391C70.5835 79.4152 70.8139 80.682 71.2746 81.8396C71.7563 82.9755 72.416 83.9802 73.2536 84.8539C74.0913 85.7058 75.0757 86.372 76.2065 86.8525C77.3375 87.3113 78.5627 87.5405 79.8821 87.5405C81.1386 87.5405 82.3114 87.3222 83.4004 86.8852C84.4894 86.4484 85.4842 85.7495 86.3848 84.7884L87.8613 86.3283C86.8979 87.4422 85.7146 88.2832 84.3114 88.8512C82.9083 89.419 81.4004 89.703 79.7878 89.703ZM92.8168 89.5064V66.5718H101.048C102.911 66.5718 104.513 66.8885 105.853 67.5219C107.193 68.1335 108.221 69.029 108.933 70.2086C109.665 71.3662 110.031 72.775 110.031 74.4351C110.031 76.0514 109.665 77.4493 108.933 78.6289C108.221 79.7865 107.193 80.682 105.853 81.3154C104.513 81.9271 102.911 82.2328 101.048 82.2328H94.1048L95.1415 81.1189V89.5064H92.8168ZM107.833 89.5064L102.178 81.1844H104.692L110.377 89.5064H107.833ZM95.1415 81.3154L94.1048 80.1688H100.984C103.183 80.1688 104.848 79.6663 105.979 78.6615C107.131 77.6569 107.708 76.248 107.708 74.4351C107.708 72.6003 107.131 71.1806 105.979 70.1758C104.848 69.171 103.183 68.6687 100.984 68.6687H94.1048L95.1415 67.5219V81.3154ZM115.518 89.5064V66.5718H117.435L127.488 84.4608H126.482L136.44 66.5718H138.356V89.5064H136.126V70.2086H136.66L127.488 86.5904H126.388L117.152 70.2086H117.749V89.5064H115.518Z" fill="#2C9C48"/>
</svg>
