<svg width="255" height="85" viewBox="0 0 255 85" fill="none" xmlns="http://www.w3.org/2000/svg">
<path fill-rule="evenodd" clip-rule="evenodd" d="M7.70974 12.1553L1.38123 18.5473L10.9891 28.2488L17.3176 21.8612L7.70974 12.1553Z" fill="#F6851F"/>
<path fill-rule="evenodd" clip-rule="evenodd" d="M17.0114 21.5471C15.2653 19.7832 12.4377 19.7832 10.6959 21.5427C8.95416 23.3023 8.95416 26.1577 10.7003 27.9217C12.4463 29.6856 15.274 29.6856 17.0157 27.926C18.7618 26.1665 18.7575 23.311 17.0114 21.5471Z" fill="#F6851F"/>
<path d="M8.952 15.0547H0V79.765H8.952V15.0547Z" fill="#F8961D"/>
<path fill-rule="evenodd" clip-rule="evenodd" d="M36.2706 41.0371L1.86991 75.7696C0.740596 76.5948 0.00219727 77.9396 0.00219727 79.4546C0.00219727 81.9652 2.01759 83.9998 4.50643 83.9998C5.601 83.9998 6.60435 83.6068 7.38619 82.9475L7.40356 82.965L42.6035 47.4247L36.2706 41.0371Z" fill="#E01F27"/>
<path d="M43.7989 45.1717C44.3189 42.7387 42.7845 40.3414 40.3718 39.8172C37.9591 39.293 35.5817 40.8404 35.0617 43.2734C34.5417 45.7064 36.0761 48.1037 38.4889 48.6279C40.9016 49.1521 43.279 47.6047 43.7989 45.1717Z" fill="#CA2127"/>
<path fill-rule="evenodd" clip-rule="evenodd" d="M4.48472 10.8018C2.02195 10.8018 0.0239258 12.8233 0.0239258 15.3163C0.0239258 17.8094 2.02195 19.8309 4.48472 19.8309C6.9475 19.8309 8.94552 17.8094 8.94552 15.3163C8.94987 12.8233 6.95185 10.8018 4.48472 10.8018Z" fill="#F8961D"/>
<path fill-rule="evenodd" clip-rule="evenodd" d="M48.3521 56.7422L42.028 63.1298L51.6315 72.8314L57.96 66.4437L48.3521 56.7422Z" fill="#2C9C48"/>
<path fill-rule="evenodd" clip-rule="evenodd" d="M48.6453 57.0745C46.8992 55.3105 44.0759 55.3105 42.3342 57.0701C40.5924 58.8296 40.5968 61.6851 42.3385 63.4446C44.0846 65.2086 46.9079 65.2085 48.6497 63.449C50.3958 61.6895 50.3914 58.834 48.6453 57.0745Z" fill="#2C9C48"/>
<path d="M59.3412 5.23535H50.3936V69.9326H59.3412V5.23535Z" fill="#4CB853"/>
<path fill-rule="evenodd" clip-rule="evenodd" d="M54.8392 1C53.7446 1 52.7413 1.39295 51.9638 2.05224L51.9464 2.03477L16.7682 37.5663L23.0924 43.9539L57.4713 9.23014C58.6007 8.40495 59.3391 7.06018 59.3391 5.54513C59.3391 3.03461 57.3237 1 54.8392 1Z" fill="#28A992"/>
<path d="M24.315 41.6585C24.8016 39.2184 23.2346 36.8426 20.815 36.3519C18.3954 35.8613 16.0395 37.4416 15.5529 39.8817C15.0663 42.3217 16.6333 44.6976 19.0529 45.1882C21.4725 45.6789 23.8284 44.0985 24.315 41.6585Z" fill="#1E9680"/>
<path fill-rule="evenodd" clip-rule="evenodd" d="M54.8565 65.1602C52.3938 65.1602 50.3958 67.1817 50.3958 69.6747C50.3958 72.1678 52.3938 74.1893 54.8565 74.1893C57.3193 74.1893 59.3173 72.1678 59.3173 69.6747C59.3173 67.1817 57.3193 65.1602 54.8565 65.1602Z" fill="#4CB853"/>
<path d="M97.5601 11.3438V17.9397H78.6732V22.0578H93.4633V28.645H78.6732V32.3531H97.5601V38.9403H71.3042V11.3438H97.5601Z" fill="#141414"/>
<path d="M107.724 11.3438H115.093V22.0578H119.806L128.737 11.3438H135.95V12.9927L125.83 25.1464L135.95 37.2913V38.9403H128.737L120.136 28.645H115.093V38.9403H107.724V11.3438Z" fill="#141414"/>
<path d="M174.01 38.9401H166.884L161.39 30.2938C159.915 30.2938 158.494 30.2793 157.128 30.2502C155.763 30.2211 154.426 30.0961 153.118 29.875V38.9401H145.741V11.3436C148.09 11.0702 150.555 10.8666 153.136 10.7328C155.717 10.5932 158.251 10.5234 160.739 10.5234H161.885C164.176 10.5234 166.074 10.7648 167.579 11.2476C169.077 11.7246 170.278 12.376 171.181 13.202C172.083 14.0221 172.711 14.9818 173.064 16.0811C173.423 17.1805 173.602 18.3467 173.602 19.5798V21.2288C173.602 22.9621 173.261 24.5355 172.578 25.9489C171.895 27.3623 170.68 28.4529 168.933 29.2207L174.01 37.2911V38.9401ZM160.817 17.1107C159.862 17.1107 158.682 17.1397 157.276 17.1979C155.87 17.2503 154.484 17.3462 153.118 17.4858V23.3314C154.397 23.4943 155.612 23.5961 156.764 23.6368C157.91 23.6775 158.838 23.6979 159.55 23.6979C161.188 23.6979 162.458 23.6223 163.36 23.471C164.257 23.3198 164.92 23.0959 165.348 22.7992C165.77 22.4968 166.022 22.11 166.103 21.6388C166.184 21.1735 166.225 20.6122 166.225 19.9549C166.225 19.5943 166.199 19.2424 166.147 18.8992C166.089 18.5561 165.889 18.2478 165.548 17.9744C165.206 17.701 164.668 17.4887 163.933 17.3375C163.193 17.1863 162.154 17.1107 160.817 17.1107Z" fill="#141414"/>
<path d="M210.925 11.3438V17.9397H192.038V22.0578H206.828V28.645H192.038V32.3531H210.925V38.9403H184.66V11.3438H210.925Z" fill="#141414"/>
<path d="M239.923 33.2953H236.156L228.458 22.4679V38.9403H221.08V11.3438H228.458L238.04 25.4692L247.631 11.3438H255V38.9403H247.631V22.4679L239.923 33.2953Z" fill="#141414"/>
<path d="M207.833 53.7285H110.296C109.595 53.7285 109.127 53.0105 109.127 51.9335C109.127 50.8565 109.595 50.1385 110.296 50.1385H207.716C208.418 50.1385 208.886 50.8565 208.886 51.9335C208.886 53.0105 208.418 53.7285 207.833 53.7285Z" fill="#141414"/>
<path d="M78.0105 73.5802V63.9393C78.8322 63.8404 79.6944 63.7677 80.597 63.7212C81.4997 63.6746 82.385 63.6514 83.253 63.6514H83.6523C84.4566 63.6514 85.1191 63.727 85.6399 63.8782C86.1665 64.0353 86.5889 64.2417 86.9071 64.4977C87.2196 64.7594 87.4395 65.0648 87.5668 65.4138C87.6883 65.7628 87.7491 66.135 87.7491 66.5305V66.8185C87.7491 67.2373 87.6246 67.6211 87.3758 67.9701C87.127 68.3133 86.6844 68.5722 86.0478 68.7466C86.4182 68.8339 86.7335 68.9444 86.9939 69.0782C87.2485 69.212 87.4511 69.3661 87.6015 69.5406C87.7577 69.7093 87.8677 69.8925 87.9313 70.0903C88.0008 70.288 88.0355 70.4916 88.0355 70.701V70.9889C88.0355 71.3844 87.9689 71.7567 87.8358 72.1057C87.7028 72.4547 87.4684 72.7601 87.1328 73.0218C86.7972 73.2835 86.3487 73.49 85.7875 73.6413C85.2262 73.7925 84.5144 73.8681 83.6523 73.8681H83.253C82.385 73.8681 81.4997 73.8448 80.597 73.7983C79.6944 73.7518 78.8322 73.6791 78.0105 73.5802ZM83.3051 65.9547C82.9521 65.9547 82.5297 65.9634 82.0378 65.9809C81.546 65.9983 81.0628 66.0332 80.5884 66.0856V67.6822H83.1402C83.7188 67.6822 84.1673 67.659 84.4855 67.6124C84.798 67.5717 85.0265 67.5135 85.1712 67.4379C85.3159 67.3623 85.3998 67.2692 85.4229 67.1587C85.4461 67.054 85.4576 66.9406 85.4576 66.8185C85.4576 66.7021 85.4432 66.5916 85.4142 66.4869C85.3853 66.3822 85.3014 66.2892 85.1625 66.2077C85.0236 66.1263 84.8095 66.0623 84.5202 66.0158C84.2309 65.9751 83.8259 65.9547 83.3051 65.9547ZM83.1402 69.9856H80.5884V71.4339C81.0628 71.4862 81.546 71.5211 82.0378 71.5386C82.5297 71.556 82.9666 71.5648 83.3485 71.5648C83.9213 71.5648 84.3698 71.5444 84.6938 71.5037C85.0121 71.4572 85.2493 71.3932 85.4056 71.3117C85.5618 71.2303 85.6573 71.1372 85.692 71.0325C85.7267 70.9278 85.7441 70.8173 85.7441 70.701C85.7441 70.6079 85.7296 70.5149 85.7007 70.4218C85.6717 70.3287 85.5762 70.2531 85.4142 70.195C85.2522 70.131 84.9947 70.0786 84.6417 70.0379C84.2888 70.003 83.7882 69.9856 83.1402 69.9856Z" fill="#141414"/>
<path d="M91.4986 73.5804H89.1812V73.0045L93.4515 63.9395H96.0294L100.291 73.0045V73.5804H97.9736L97.1404 71.7132H92.3145L91.4986 73.5804ZM93.2779 69.5495H96.1943L94.7361 66.2515L93.2779 69.5495Z" fill="#141414"/>
<path d="M107.243 63.9395H109.821V71.277H112.894V63.9395H115.472V73.5804H101.584V63.9395H104.162V71.277H107.243V63.9395Z" fill="#141414"/>
<path d="M121.2 63.9395H131.086V73.5804H128.509V66.2428H123.778V73.5804H121.2V63.9395Z" fill="#141414"/>
<path d="M143.03 64.5153L139.202 71.0676C138.982 71.4806 138.771 71.8587 138.568 72.2018C138.366 72.545 138.126 72.8387 137.848 73.083C137.576 73.3273 137.261 73.5193 136.902 73.6589C136.537 73.7985 136.098 73.8683 135.583 73.8683C135.374 73.8683 135.146 73.8566 134.897 73.8334C134.648 73.8101 134.428 73.7752 134.237 73.7287V71.3992C134.428 71.4457 134.642 71.4777 134.88 71.4951C135.117 71.5126 135.316 71.5213 135.478 71.5213C135.889 71.5213 136.179 71.466 136.346 71.3555C136.514 71.2392 136.65 71.056 136.754 70.8059L132.449 64.5153V63.9395H135.027L137.987 68.5898L140.591 63.9395H143.03V64.5153Z" fill="#141414"/>
<path d="M150.546 73.5804H147.968V66.2428H144.245V63.9395H154.287V66.2428H150.546V73.5804Z" fill="#141414"/>
<path d="M165.31 70.2737V70.8495C165.31 71.2683 165.25 71.6609 165.128 72.0273C165.001 72.3938 164.781 72.7137 164.468 72.9871C164.156 73.2604 163.736 73.4757 163.21 73.6327C162.683 73.7897 162.018 73.8683 161.214 73.8683H160.814C159.946 73.8683 159.061 73.845 158.158 73.7985C157.256 73.7519 156.393 73.6792 155.572 73.5804V63.9395H158.15V67.3945C158.618 67.3189 159.099 67.2752 159.59 67.2636C160.082 67.252 160.586 67.2462 161.101 67.2462H161.5C162.246 67.2462 162.866 67.3276 163.357 67.4904C163.849 67.6475 164.24 67.8627 164.529 68.1361C164.813 68.4095 165.015 68.7294 165.137 69.0958C165.252 69.4681 165.31 69.8607 165.31 70.2737ZM160.701 69.5495C160.256 69.5495 159.831 69.5582 159.426 69.5757C159.026 69.5873 158.601 69.6222 158.15 69.6804V71.4341C158.63 71.4864 159.116 71.5213 159.608 71.5388C160.1 71.5562 160.499 71.5649 160.806 71.5649C161.355 71.5649 161.781 71.5417 162.082 71.4951C162.382 71.4486 162.602 71.3788 162.741 71.2857C162.88 71.1927 162.961 71.0851 162.984 70.9629C163.007 70.8408 163.019 70.707 163.019 70.5616C163.019 70.4162 163.007 70.2824 162.984 70.1602C162.961 70.0323 162.877 69.9247 162.732 69.8374C162.594 69.7502 162.365 69.6804 162.047 69.628C161.734 69.5757 161.286 69.5495 160.701 69.5495Z" fill="#141414"/>
<path d="M170.752 73.5802V63.9393C171.574 63.8404 172.436 63.7677 173.339 63.7212C174.242 63.6746 175.127 63.6514 175.995 63.6514H176.394C177.199 63.6514 177.864 63.727 178.391 63.8782C178.917 64.0353 179.337 64.2417 179.649 64.4977C179.962 64.7594 180.181 65.0648 180.309 65.4138C180.43 65.7628 180.491 66.135 180.491 66.5305V66.8185C180.491 67.2373 180.367 67.6211 180.118 67.9701C179.875 68.3133 179.432 68.5722 178.79 68.7466C179.16 68.8339 179.475 68.9444 179.736 69.0782C179.99 69.212 180.196 69.3661 180.352 69.5406C180.503 69.7093 180.613 69.8925 180.682 70.0903C180.746 70.288 180.777 70.4916 180.777 70.701V70.9889C180.777 71.3844 180.711 71.7567 180.578 72.1057C180.445 72.4547 180.21 72.7601 179.875 73.0218C179.545 73.2835 179.096 73.49 178.529 73.6413C177.968 73.7925 177.256 73.8681 176.394 73.8681H175.995C175.127 73.8681 174.242 73.8448 173.339 73.7983C172.436 73.7518 171.574 73.6791 170.752 73.5802ZM176.056 65.9547C175.703 65.9547 175.28 65.9634 174.788 65.9809C174.297 65.9983 173.811 66.0332 173.33 66.0856V67.6822H175.882C176.467 67.6822 176.915 67.659 177.227 67.6124C177.546 67.5717 177.774 67.5135 177.913 67.4379C178.058 67.3623 178.142 67.2692 178.165 67.1587C178.188 67.054 178.2 66.9406 178.2 66.8185C178.2 66.7021 178.185 66.5916 178.156 66.4869C178.127 66.3822 178.046 66.2892 177.913 66.2077C177.774 66.1263 177.557 66.0623 177.262 66.0158C176.973 65.9751 176.571 65.9547 176.056 65.9547ZM175.882 69.9856H173.33V71.4339C173.811 71.4862 174.297 71.5211 174.788 71.5386C175.28 71.556 175.717 71.5648 176.099 71.5648C176.672 71.5648 177.118 71.5444 177.436 71.5037C177.754 71.4572 177.994 71.3932 178.156 71.3117C178.312 71.2303 178.408 71.1372 178.443 71.0325C178.472 70.9278 178.486 70.8173 178.486 70.701C178.486 70.6079 178.472 70.5149 178.443 70.4218C178.414 70.3287 178.318 70.2531 178.156 70.195C177.994 70.131 177.737 70.0786 177.384 70.0379C177.031 70.003 176.53 69.9856 175.882 69.9856Z" fill="#141414"/>
<path d="M192.955 71.6085H191.636L188.945 67.822V73.5804H186.367V63.9395H188.945L192.295 68.8777L195.646 63.9395H198.223V73.5804H195.646V67.822L192.955 71.6085Z" fill="#141414"/>
<path d="M202.806 70.1253L207.832 63.9395H210.41V73.5804H207.832V67.3945L202.806 73.5804H200.228V63.9395H202.806V70.1253Z" fill="#141414"/>
<path d="M222.153 67.1064V67.6822C222.153 68.1592 222.095 68.6071 221.98 69.0258C221.858 69.4446 221.653 69.8111 221.363 70.1252C221.08 70.4334 220.692 70.6777 220.2 70.858C219.708 71.0442 219.089 71.1372 218.343 71.1372H217.944C217.429 71.1372 216.925 71.1314 216.433 71.1198C215.941 71.114 215.461 71.0704 214.993 70.9889V73.5802H212.415V63.9393C213.236 63.8404 214.099 63.7677 215.001 63.7212C215.904 63.6746 216.789 63.6514 217.657 63.6514H218.056C218.861 63.6514 219.526 63.7415 220.053 63.9218C220.574 64.108 220.993 64.3552 221.311 64.6634C221.624 64.9775 221.844 65.344 221.971 65.7628C222.092 66.1874 222.153 66.6352 222.153 67.1064ZM217.544 68.8339C218.048 68.8339 218.438 68.7961 218.716 68.7205C218.994 68.6507 219.196 68.5518 219.324 68.4238C219.457 68.2959 219.532 68.1446 219.549 67.9701C219.567 67.7956 219.575 67.6037 219.575 67.3943C219.575 67.1849 219.567 66.9901 219.549 66.8097C219.532 66.6294 219.46 66.4782 219.332 66.3561C219.211 66.2339 219.02 66.135 218.759 66.0594C218.505 65.9896 218.132 65.9547 217.64 65.9547C217.339 65.9547 216.943 65.9634 216.451 65.9809C215.959 65.9983 215.473 66.0332 214.993 66.0856V68.703C215.444 68.7612 215.869 68.7961 216.268 68.8077C216.668 68.8252 217.093 68.8339 217.544 68.8339Z" fill="#141414"/>
<path d="M230.173 70.1253L235.199 63.9395H237.777V73.5804H235.199V67.3945L230.173 73.5804H227.595V63.9395H230.173V70.1253Z" fill="#141414"/>
<path d="M245.371 73.5804H242.793V66.2428H239.07V63.9395H249.112V66.2428H245.371V73.5804Z" fill="#141414"/>
</svg>
