<svg width="90" height="70" viewBox="0 0 90 70" fill="none" xmlns="http://www.w3.org/2000/svg">
<path d="M76.4185 10.3164H8.36645C7.43501 10.3164 6.67993 11.0777 6.67993 12.0169V62.0773C6.67993 63.0164 7.43501 63.7778 8.36645 63.7778H76.4185C77.3499 63.7778 78.105 63.0164 78.105 62.0773V12.0169C78.105 11.0777 77.3499 10.3164 76.4185 10.3164Z" fill="white" stroke="#2C9C48" stroke-width="1.51472"/>
<path d="M46.6982 10.6629H35.3671V27.5518H46.6982V10.6629Z" fill="#F6851F" fill-opacity="0.6"/>
<path d="M10.3099 47.306H26.8417" stroke="#2C9C48" stroke-width="1.51472" stroke-linecap="round"/>
<path d="M10.3096 50.6669H24.1043" stroke="#2C9C48" stroke-width="1.51472" stroke-linecap="round"/>
<path d="M10.2263 53.989L21.4768 54.0032" stroke="#2C9C48" stroke-width="1.51472" stroke-linecap="round"/>
<path d="M81.6427 6.22221H54.8391C53.9093 6.22221 53.1556 6.97725 53.1556 7.90864V47.0543C53.1556 47.9857 53.9093 48.7407 54.8391 48.7407H81.6427C82.5724 48.7407 83.3261 47.9857 83.3261 47.0543V7.90864C83.3261 6.97725 82.5724 6.22221 81.6427 6.22221Z" fill="white" stroke="#2C9C48" stroke-width="1.51472"/>
<path d="M55.7473 12.1371H72.2882" stroke="#2C9C48" stroke-width="1.51472"/>
<path d="M55.7623 16.1167H72.3033" stroke="#2C9C48" stroke-width="1.51472"/>
<path d="M55.7556 20.0772H72.2965" stroke="#2C9C48" stroke-width="1.51472"/>
<path d="M55.7623 24.054H72.3033" stroke="#2C9C48" stroke-width="1.51472"/>
<path d="M55.7623 28.0201H72.3033" stroke="#2C9C48" stroke-width="1.51472"/>
<path d="M55.7727 31.9993H72.3136" stroke="#2C9C48" stroke-width="1.51472"/>
<path d="M78.0037 10.5882L78.9008 12.4435L79.862 10.5882" stroke="#2C9C48" stroke-width="1.51472" stroke-linecap="round" stroke-linejoin="round"/>
<path d="M78.0037 14.2613L78.9008 16.1166L79.862 14.2613" stroke="#2C9C48" stroke-width="1.51472" stroke-linecap="round" stroke-linejoin="round"/>
<path d="M78.0037 18.2219L78.9008 20.0772L79.862 18.2219" stroke="#2C9C48" stroke-width="1.51472" stroke-linecap="round" stroke-linejoin="round"/>
<path d="M78.0037 22.1822L78.9008 24.0375L79.862 22.1822" stroke="#2C9C48" stroke-width="1.51472" stroke-linecap="round" stroke-linejoin="round"/>
<path d="M78.0037 26.1424L78.9008 27.9978L79.862 26.1424" stroke="#2C9C48" stroke-width="1.51472" stroke-linecap="round" stroke-linejoin="round"/>
<path d="M78.0037 30.1027L78.9008 31.958L79.862 30.1027" stroke="#2C9C48" stroke-width="1.51472" stroke-linecap="round" stroke-linejoin="round"/>
</svg>
