<svg width="175" height="141" viewBox="0 0 175 141" fill="none" xmlns="http://www.w3.org/2000/svg">
<path d="M148.592 20.6737H16.2681C14.457 20.6737 12.9888 22.1963 12.9888 24.0746V124.195C12.9888 126.074 14.457 127.596 16.2681 127.596H148.592C150.403 127.596 151.871 126.074 151.871 124.195V24.0746C151.871 22.1963 150.403 20.6737 148.592 20.6737Z" fill="white" stroke="#2C9C48" stroke-width="1.51472"/>
<path d="M90.802 21.3667H68.7693V55.1444H90.802V21.3667Z" fill="#F6851F" fill-opacity="0.6"/>
<path d="M20.0471 94.6529H52.1922" stroke="#2C9C48" stroke-width="1.51472" stroke-linecap="round"/>
<path d="M20.0464 101.375H46.8695" stroke="#2C9C48" stroke-width="1.51472" stroke-linecap="round"/>
<path d="M19.8845 108.019L41.7605 108.046" stroke="#2C9C48" stroke-width="1.51472" stroke-linecap="round"/>
<path d="M158.75 12.4853H106.632C104.824 12.4853 103.358 13.9953 103.358 15.8581V94.1495C103.358 96.0122 104.824 97.5223 106.632 97.5223H158.75C160.557 97.5223 162.023 96.0122 162.023 94.1495V15.8581C162.023 13.9953 160.557 12.4853 158.75 12.4853Z" fill="white" stroke="#2C9C48" stroke-width="1.51472"/>
<path d="M108.397 24.315H140.56" stroke="#2C9C48" stroke-width="1.51472"/>
<path d="M108.427 32.2742H140.59" stroke="#2C9C48" stroke-width="1.51472"/>
<path d="M108.414 40.1953H140.576" stroke="#2C9C48" stroke-width="1.51472"/>
<path d="M108.427 48.1489H140.59" stroke="#2C9C48" stroke-width="1.51472"/>
<path d="M108.427 56.0811H140.59" stroke="#2C9C48" stroke-width="1.51472"/>
<path d="M108.447 64.0394H140.61" stroke="#2C9C48" stroke-width="1.51472"/>
<path d="M151.674 21.2173L153.418 24.9279L155.287 21.2173" stroke="#2C9C48" stroke-width="1.51472" stroke-linecap="round" stroke-linejoin="round"/>
<path d="M151.674 28.5635L153.418 32.2741L155.287 28.5635" stroke="#2C9C48" stroke-width="1.51472" stroke-linecap="round" stroke-linejoin="round"/>
<path d="M151.674 36.4846L153.418 40.1952L155.287 36.4846" stroke="#2C9C48" stroke-width="1.51472" stroke-linecap="round" stroke-linejoin="round"/>
<path d="M151.674 44.4052L153.418 48.1158L155.287 44.4052" stroke="#2C9C48" stroke-width="1.51472" stroke-linecap="round" stroke-linejoin="round"/>
<path d="M151.674 52.3257L153.418 56.0364L155.287 52.3257" stroke="#2C9C48" stroke-width="1.51472" stroke-linecap="round" stroke-linejoin="round"/>
<path d="M151.674 60.2463L153.418 63.9569L155.287 60.2463" stroke="#2C9C48" stroke-width="1.51472" stroke-linecap="round" stroke-linejoin="round"/>
</svg>
