<svg width="25" height="25" viewBox="0 0 25 25" fill="none" xmlns="http://www.w3.org/2000/svg">
<path d="M18.9944 10.512C18.9944 6.20791 16.0867 2.71875 12.5 2.71875C8.91324 2.71875 6.00562 6.20791 6.00562 10.512" stroke="#F7FFF5"/>
<path d="M6.00561 14.1616C6.00561 15.955 6.00561 14.1616 6.00561 17.4088C4.21224 17.4088 2.75842 15.955 2.75842 14.1616C2.75842 12.3682 4.21224 10.9144 6.00561 10.9144C6.00561 14.1616 6.00561 12.3682 6.00561 14.1616Z" stroke="#F7FFF5"/>
<path d="M18.9944 14.1615C18.9944 12.3681 18.9944 14.1615 18.9944 10.9143C20.7878 10.9143 22.2416 12.3681 22.2416 14.1615C22.2416 15.9549 20.7878 17.4087 18.9944 17.4087C18.9944 14.1615 18.9944 15.9549 18.9944 14.1615Z" stroke="#F7FFF5"/>
<path d="M18.9873 17.6L18.9873 19.8329C18.9873 20.5502 18.4057 21.1318 17.6884 21.1318L11.0915 21.1318" stroke="#F7FFF5" stroke-linecap="round"/>
<circle cx="11.0915" cy="21.0729" r="0.798874" stroke="#F7FFF5"/>
<path d="M12.4837 9.69C12.0437 9.69 11.6137 9.80333 11.1937 10.03L10.9337 9.31C11.1603 9.19 11.4137 9.09333 11.6937 9.02C11.9803 8.94667 12.2837 8.91 12.6037 8.91C12.9837 8.91 13.2937 8.96333 13.5337 9.07C13.7803 9.17 13.977 9.3 14.1237 9.46C14.2703 9.62 14.3703 9.8 14.4237 10C14.4837 10.1933 14.5137 10.38 14.5137 10.56C14.5137 10.7867 14.4703 10.99 14.3837 11.17C14.297 11.3433 14.1903 11.5067 14.0637 11.66C13.937 11.8133 13.797 11.96 13.6437 12.1C13.4903 12.24 13.3503 12.3867 13.2237 12.54C13.097 12.6867 12.9903 12.85 12.9037 13.03C12.817 13.2033 12.7737 13.4 12.7737 13.62C12.7737 13.6533 12.7737 13.69 12.7737 13.73C12.7737 13.77 12.777 13.8067 12.7837 13.84H12.0037C11.977 13.7067 11.9637 13.5667 11.9637 13.42C11.9637 13.2067 12.0003 13.0133 12.0737 12.84C12.1537 12.6667 12.2537 12.5067 12.3737 12.36C12.4937 12.2067 12.6203 12.0667 12.7537 11.94C12.887 11.8067 13.0137 11.6733 13.1337 11.54C13.2537 11.4067 13.3503 11.2667 13.4237 11.12C13.5037 10.9733 13.5437 10.8133 13.5437 10.64C13.5437 10.36 13.4537 10.1333 13.2737 9.96C13.0937 9.78 12.8303 9.69 12.4837 9.69ZM13.1137 15.46C13.1137 15.64 13.0537 15.7967 12.9337 15.93C12.8137 16.0633 12.6503 16.13 12.4437 16.13C12.237 16.13 12.0737 16.0633 11.9537 15.93C11.8337 15.7967 11.7737 15.64 11.7737 15.46C11.7737 15.28 11.8337 15.1233 11.9537 14.99C12.0737 14.8567 12.237 14.79 12.4437 14.79C12.6503 14.79 12.8137 14.8567 12.9337 14.99C13.0537 15.1233 13.1137 15.28 13.1137 15.46Z" fill="#F7FFF5"/>
</svg>
