<svg width="90" height="70" viewBox="0 0 90 70" fill="none" xmlns="http://www.w3.org/2000/svg">
<path d="M23.0303 45.0864L16.7456 44.9722C15.7517 44.9542 14.9313 45.7459 14.9133 46.7407L14.5696 65.6895C14.5516 66.6842 15.3427 67.5053 16.3367 67.5233L22.6214 67.6375C23.6153 67.6555 24.4357 66.8638 24.4537 65.869L24.7974 46.9202C24.8154 45.9255 24.0243 45.1044 23.0303 45.0864Z" fill="#2C9C48" fill-opacity="0.5" stroke="#2C9C48"/>
<path d="M24.8074 49.2458C28.0087 46.9781 36.6132 43.7726 44.94 49.2832C45.276 49.5056 45.6672 49.6406 46.0698 49.6532L58.484 50.0429C58.6332 50.0476 58.7808 50.0662 58.9227 50.1115C60.41 50.5855 62.9501 52.3265 63.9072 56.1709C64.2008 57.3506 63.2 58.3815 61.9858 58.3465L47.5414 57.9296" stroke="#2C9C48" stroke-linecap="round" stroke-linejoin="round"/>
<path d="M79.3317 52.0347L79.1177 51.8927L79.3317 52.0347ZM45.4527 67.4481L45.5294 67.2026L45.5267 67.2015L45.4527 67.4481ZM32.5111 63.5579L32.585 63.3114L32.5739 63.3078L32.5626 63.3057L32.5111 63.5579ZM79.8033 50.932L79.5544 50.8672L79.8033 50.932ZM60.3905 66.1557L60.2383 65.9482L60.3905 66.1557ZM60.2296 66.2596L60.1066 66.0337L60.2296 66.2596ZM79.8856 49.4842L79.6474 49.5817L79.8856 49.4842ZM79.921 49.7545L79.6639 49.7515L79.921 49.7545ZM63.486 54.7812C65.9098 53.5279 69.8349 51.7933 73.2472 50.6088C74.9546 50.016 76.5216 49.5655 77.7034 49.3791C78.2964 49.2857 78.7742 49.2618 79.1172 49.311C79.47 49.3615 79.6037 49.4754 79.6474 49.5817L80.1232 49.3868C79.974 49.0206 79.5991 48.86 79.1902 48.8015C78.7716 48.7416 78.2347 48.7743 77.6232 48.8707C76.3961 49.0642 74.7952 49.5267 73.0785 50.1225C69.642 51.3153 65.6944 53.0595 63.25 54.3241L63.486 54.7812ZM79.1177 51.8927C79.128 51.8767 79.1352 51.871 79.1234 51.8829C79.1157 51.8906 79.1028 51.9029 79.0838 51.9199C79.0462 51.9534 78.9922 51.9992 78.9213 52.0574C78.7804 52.1732 78.5803 52.3317 78.3283 52.5273C77.8243 52.9185 77.1182 53.4553 76.2742 54.0904C74.5858 55.3607 72.3487 57.0232 70.0802 58.7017C65.5432 62.0581 60.8817 65.4768 60.2383 65.9482L60.5422 66.3636C61.1861 65.8916 65.8476 62.4724 70.3857 59.1155C72.6547 57.4371 74.8934 55.7735 76.5833 54.5022C77.4278 53.8665 78.1365 53.3277 78.6436 52.9339C78.8971 52.7373 79.1013 52.5757 79.2478 52.4552C79.3204 52.3955 79.381 52.344 79.4263 52.3034C79.4494 52.2833 79.47 52.2638 79.4875 52.2463C79.5019 52.2324 79.5261 52.2066 79.5461 52.1768L79.1177 51.8927ZM60.1066 66.0337C59.255 66.4969 56.9731 67.2185 54.2032 67.6082C51.4378 67.9968 48.232 68.0472 45.5294 67.2026L45.3761 67.6936C48.1821 68.5707 51.4738 68.5115 54.2746 68.1177C57.0703 67.7245 59.4221 66.9915 60.352 66.4856L60.1066 66.0337ZM45.5267 67.2015L32.585 63.3114L32.4371 63.804L45.3787 67.6946L45.5267 67.2015ZM32.5626 63.3057C31.1999 63.0268 27.5108 63.0365 24.2943 65.1391L24.5755 65.5699C27.6575 63.5554 31.2027 63.5528 32.4595 63.8096L32.5626 63.3057ZM79.6639 49.7515C79.6613 50.0069 79.6428 50.5282 79.5544 50.8672L80.0522 50.9968C80.1581 50.5891 80.1756 50.0085 80.1782 49.7573L79.6639 49.7515ZM79.5544 50.8672C79.4947 51.0979 79.4572 51.2409 79.4001 51.3838C79.344 51.5231 79.2653 51.6698 79.1177 51.8927L79.5461 52.1768C79.705 51.9374 79.8033 51.7588 79.8768 51.5761C79.9493 51.3965 79.9946 51.2193 80.0522 50.9968L79.5544 50.8672ZM60.2383 65.9482C60.1894 65.9843 60.154 66.0079 60.1066 66.0337L60.352 66.4856C60.4255 66.446 60.481 66.4084 60.5422 66.3636L60.2383 65.9482ZM79.6474 49.5817C79.6598 49.6125 79.6649 49.6597 79.6639 49.7515L80.1782 49.7573C80.1792 49.6674 80.1797 49.5243 80.1232 49.3868L79.6474 49.5817Z" fill="#2C9C48"/>
<path d="M73.9978 1.73694H21.7407C20.7466 1.73694 19.9407 2.54348 19.9407 3.53841V34.6951C19.9407 35.69 20.7466 36.4966 21.7407 36.4966H73.9978C74.9919 36.4966 75.7978 35.69 75.7978 34.6951V3.53841C75.7978 2.54348 74.9919 1.73694 73.9978 1.73694Z" fill="white" stroke="#2C9C48" stroke-linejoin="round"/>
<path d="M27.3597 8.45958L41.8039 8.3866" stroke="#4CB853" stroke-linecap="round"/>
<path d="M27.361 10.2455H39.7939" stroke="#4CB853" stroke-linecap="round"/>
<path d="M34.0003 24.0033L31.6855 17.132H32.431L34.5986 23.6009H34.2259L36.4621 17.132H37.1291L39.336 23.6009H38.9828L41.1701 17.132H41.8664L39.5517 24.0033H38.7867L36.6779 17.8683H36.8741L34.7555 24.0033H34.0003ZM44.9004 24.0033L42.5857 17.132H43.3311L45.4987 23.6009H45.126L47.3623 17.132H48.0292L50.236 23.6009H49.883L52.0699 17.132H52.7668L50.4518 24.0033H49.6868L47.5781 17.8683H47.7742L45.6557 24.0033H44.9004ZM55.8006 24.0033L53.4858 17.132H54.231L56.3987 23.6009H56.0263L58.2624 17.132H58.9295L61.1363 23.6009H60.783L62.9702 17.132H63.6666L61.3518 24.0033H60.587L58.4779 17.8683H58.6744L56.5555 24.0033H55.8006Z" fill="#4CB853"/>
<path d="M34.0002 24.0034L33.7566 24.0856C33.7918 24.1903 33.8899 24.2607 34.0002 24.2607V24.0034ZM31.6855 17.132V16.8747C31.6027 16.8747 31.5249 16.9146 31.4766 16.9819C31.4283 17.0492 31.4154 17.1358 31.4418 17.2142L31.6855 17.132ZM32.4309 17.132L32.6747 17.0502C32.6396 16.9454 32.5414 16.8747 32.4309 16.8747V17.132ZM34.5985 23.6009V23.8583C34.6812 23.8583 34.7589 23.8184 34.8072 23.7512C34.8556 23.684 34.8686 23.5976 34.8423 23.5191L34.5985 23.6009ZM34.2258 23.6009L33.9828 23.5168C33.9556 23.5955 33.9681 23.6824 34.0164 23.7502C34.0646 23.818 34.1426 23.8583 34.2258 23.8583V23.6009ZM36.4621 17.132V16.8747C36.3525 16.8747 36.2549 16.9442 36.2191 17.0479L36.4621 17.132ZM37.129 17.132L37.3724 17.0489C37.3369 16.9447 37.239 16.8747 37.129 16.8747V17.132ZM39.3359 23.6009V23.8583C39.4188 23.8583 39.4968 23.8182 39.545 23.7507C39.5933 23.6831 39.606 23.5964 39.5792 23.5177L39.3359 23.6009ZM38.9828 23.6009L38.7392 23.5184C38.7126 23.597 38.7255 23.6835 38.7738 23.7509C38.8221 23.8183 38.8999 23.8583 38.9828 23.8583V23.6009ZM41.17 17.132V16.8747C41.0598 16.8747 40.9617 16.9451 40.9264 17.0495L41.17 17.132ZM41.8664 17.132L42.11 17.2142C42.1365 17.1358 42.1236 17.0492 42.0752 16.9819C42.0269 16.9146 41.9492 16.8747 41.8664 16.8747V17.132ZM39.5516 24.0034V24.2607C39.662 24.2607 39.7601 24.1903 39.7953 24.0856L39.5516 24.0034ZM38.7866 24.0034L38.5435 24.0871C38.5792 24.191 38.6768 24.2607 38.7866 24.2607V24.0034ZM36.6779 17.8683V17.6109C36.5947 17.6109 36.5168 17.6511 36.4685 17.7188C36.4203 17.7865 36.4076 17.8733 36.4347 17.952L36.6779 17.8683ZM36.874 17.8683L37.117 17.9523C37.1442 17.8737 37.1317 17.7867 37.0835 17.7189C37.0352 17.6512 36.9572 17.6109 36.874 17.6109V17.8683ZM34.7555 24.0034V24.2607C34.8651 24.2607 34.9627 24.1912 34.9985 24.0875L34.7555 24.0034ZM34.2439 23.9212L31.9291 17.0499L31.4418 17.2142L33.7566 24.0856L34.2439 23.9212ZM31.6855 17.3894H32.4309V16.8747H31.6855V17.3894ZM32.1871 17.2139L34.3547 23.6828L34.8423 23.5191L32.6747 17.0502L32.1871 17.2139ZM34.5985 23.3436H34.2258V23.8583H34.5985V23.3436ZM34.4688 23.6851L36.7051 17.2162L36.2191 17.0479L33.9828 23.5168L34.4688 23.6851ZM36.4621 17.3894H37.129V16.8747H36.4621V17.3894ZM36.8857 17.2152L39.0925 23.6841L39.5792 23.5177L37.3724 17.0489L36.8857 17.2152ZM39.3359 23.3436H38.9828V23.8583H39.3359V23.3436ZM39.2263 23.6834L41.4136 17.2146L40.9264 17.0495L38.7392 23.5184L39.2263 23.6834ZM41.17 17.3894H41.8664V16.8747H41.17V17.3894ZM41.6227 17.0499L39.308 23.9212L39.7953 24.0856L42.11 17.2142L41.6227 17.0499ZM39.5516 23.746H38.7866V24.2607H39.5516V23.746ZM39.0298 23.9197L36.921 17.7845L36.4347 17.952L38.5435 24.0871L39.0298 23.9197ZM36.6779 18.1256H36.874V17.6109H36.6779V18.1256ZM36.631 17.7842L34.5124 23.9193L34.9985 24.0875L37.117 17.9523L36.631 17.7842ZM34.7555 23.746H34.0002V24.2607H34.7555V23.746ZM44.9003 24.0034L44.6567 24.0856C44.6919 24.1903 44.79 24.2607 44.9003 24.2607V24.0034ZM42.5856 17.132V16.8747C42.5028 16.8747 42.425 16.9146 42.3768 16.9819C42.3284 17.0492 42.3154 17.1358 42.3419 17.2142L42.5856 17.132ZM43.331 17.132L43.5748 17.0502C43.5397 16.9454 43.4415 16.8747 43.331 16.8747V17.132ZM45.4986 23.6009V23.8583C45.5814 23.8583 45.659 23.8184 45.7074 23.7512C45.7557 23.684 45.7687 23.5976 45.7424 23.5191L45.4986 23.6009ZM45.1259 23.6009L44.8829 23.5168C44.8557 23.5955 44.8682 23.6824 44.9165 23.7502C44.9647 23.818 45.0428 23.8583 45.1259 23.8583V23.6009ZM47.3622 17.132V16.8747C47.2526 16.8747 47.155 16.9442 47.1192 17.0479L47.3622 17.132ZM48.0291 17.132L48.2725 17.0489C48.2369 16.9447 48.1391 16.8747 48.0291 16.8747V17.132ZM50.236 23.6009V23.8583C50.319 23.8583 50.3968 23.8182 50.4451 23.7507C50.4934 23.6831 50.5061 23.5964 50.4793 23.5177L50.236 23.6009ZM49.8829 23.6009L49.6393 23.5184C49.6127 23.597 49.6257 23.6835 49.674 23.7509C49.7222 23.8183 49.8 23.8583 49.8829 23.8583V23.6009ZM52.0699 17.132V16.8747C51.9598 16.8747 51.8621 16.9451 51.8266 17.0495L52.0699 17.132ZM52.7667 17.132L53.01 17.2142C53.0367 17.1358 53.0239 17.0492 52.9755 16.9819C52.9272 16.9146 52.8495 16.8747 52.7667 16.8747V17.132ZM50.4518 24.0034V24.2607C50.5621 24.2607 50.6601 24.1903 50.6954 24.0856L50.4518 24.0034ZM49.6867 24.0034L49.4435 24.0871C49.4793 24.191 49.577 24.2607 49.6867 24.2607V24.0034ZM47.578 17.8683V17.6109C47.4949 17.6109 47.4169 17.6511 47.3686 17.7188C47.3204 17.7865 47.3078 17.8733 47.3348 17.952L47.578 17.8683ZM47.7741 17.8683L48.0172 17.9523C48.0443 17.8737 48.0318 17.7867 47.9835 17.7189C47.9353 17.6512 47.8573 17.6109 47.7741 17.6109V17.8683ZM45.6556 24.0034V24.2607C45.7652 24.2607 45.8628 24.1912 45.8986 24.0875L45.6556 24.0034ZM45.144 23.9212L42.8293 17.0499L42.3419 17.2142L44.6567 24.0856L45.144 23.9212ZM42.5856 17.3894H43.331V16.8747H42.5856V17.3894ZM43.0872 17.2139L45.2548 23.6828L45.7424 23.5191L43.5748 17.0502L43.0872 17.2139ZM45.4986 23.3436H45.1259V23.8583H45.4986V23.3436ZM45.3689 23.6851L47.6052 17.2162L47.1192 17.0479L44.8829 23.5168L45.3689 23.6851ZM47.3622 17.3894H48.0291V16.8747H47.3622V17.3894ZM47.7858 17.2152L49.9926 23.6841L50.4793 23.5177L48.2725 17.0489L47.7858 17.2152ZM50.236 23.3436H49.8829V23.8583H50.236V23.3436ZM50.1265 23.6834L52.3136 17.2146L51.8266 17.0495L49.6393 23.5184L50.1265 23.6834ZM52.0699 17.3894H52.7667V16.8747H52.0699V17.3894ZM52.5229 17.0499L50.2081 23.9212L50.6954 24.0856L53.01 17.2142L52.5229 17.0499ZM50.4518 23.746H49.6867V24.2607H50.4518V23.746ZM49.9299 23.9197L47.8211 17.7845L47.3348 17.952L49.4435 24.0871L49.9299 23.9197ZM47.578 18.1256H47.7741V17.6109H47.578V18.1256ZM47.5311 17.7842L45.4125 23.9193L45.8986 24.0875L48.0172 17.9523L47.5311 17.7842ZM45.6556 23.746H44.9003V24.2607H45.6556V23.746ZM55.8005 24.0034L55.5567 24.0856C55.5922 24.1903 55.6899 24.2607 55.8005 24.2607V24.0034ZM53.4857 17.132V16.8747C53.4029 16.8747 53.3252 16.9146 53.2769 16.9819C53.2285 17.0492 53.2157 17.1358 53.2419 17.2142L53.4857 17.132ZM54.2309 17.132L54.4752 17.0502C54.4397 16.9454 54.3415 16.8747 54.2309 16.8747V17.132ZM56.3986 23.6009V23.8583C56.4814 23.8583 56.5591 23.8184 56.6074 23.7512C56.6557 23.684 56.6686 23.5976 56.6424 23.5191L56.3986 23.6009ZM56.0263 23.6009L55.783 23.5168C55.7557 23.5955 55.7681 23.6824 55.8164 23.7502C55.8648 23.818 55.9429 23.8583 56.0263 23.8583V23.6009ZM58.2624 17.132V16.8747C58.1528 16.8747 58.0551 16.9442 58.0191 17.0479L58.2624 17.132ZM58.9294 17.132L59.1727 17.0489C59.1372 16.9447 59.0395 16.8747 58.9294 16.8747V17.132ZM61.1362 23.6009V23.8583C61.219 23.8583 61.2972 23.8182 61.345 23.7507C61.3933 23.6831 61.4062 23.5964 61.3795 23.5177L61.1362 23.6009ZM60.7829 23.6009L60.5396 23.5184C60.5129 23.597 60.5257 23.6835 60.5741 23.7509C60.6224 23.8183 60.7001 23.8583 60.7829 23.8583V23.6009ZM62.9701 17.132V16.8747C62.8601 16.8747 62.7619 16.9451 62.7269 17.0495L62.9701 17.132ZM63.6665 17.132L63.9103 17.2142C63.9365 17.1358 63.9236 17.0492 63.8753 16.9819C63.8269 16.9146 63.7493 16.8747 63.6665 16.8747V17.132ZM61.3517 24.0034V24.2607C61.4623 24.2607 61.5605 24.1903 61.5955 24.0856L61.3517 24.0034ZM60.5869 24.0034L60.3437 24.0871C60.3792 24.191 60.4769 24.2607 60.5869 24.2607V24.0034ZM58.4779 17.8683V17.6109C58.3951 17.6109 58.3169 17.6511 58.2685 17.7188C58.2207 17.7865 58.2079 17.8733 58.2351 17.952L58.4779 17.8683ZM58.6743 17.8683L58.9171 17.9523C58.9443 17.8737 58.932 17.7867 58.8836 17.7189C58.8353 17.6512 58.7576 17.6109 58.6743 17.6109V17.8683ZM56.5555 24.0034V24.2607C56.6655 24.2607 56.7627 24.1912 56.7987 24.0875L56.5555 24.0034ZM56.0443 23.9212L53.7295 17.0499L53.2419 17.2142L55.5567 24.0856L56.0443 23.9212ZM53.4857 17.3894H54.2309V16.8747H53.4857V17.3894ZM53.9871 17.2139L56.1548 23.6828L56.6424 23.5191L54.4752 17.0502L53.9871 17.2139ZM56.3986 23.3436H56.0263V23.8583H56.3986V23.3436ZM56.269 23.6851L58.5051 17.2162L58.0191 17.0479L55.783 23.5168L56.269 23.6851ZM58.2624 17.3894H58.9294V16.8747H58.2624V17.3894ZM58.6861 17.2152L60.8929 23.6841L61.3795 23.5177L59.1727 17.0489L58.6861 17.2152ZM61.1362 23.3436H60.7829V23.8583H61.1362V23.3436ZM61.0267 23.6834L63.2139 17.2146L62.7269 17.0495L60.5396 23.5184L61.0267 23.6834ZM62.9701 17.3894H63.6665V16.8747H62.9701V17.3894ZM63.4227 17.0499L61.1084 23.9212L61.5955 24.0856L63.9103 17.2142L63.4227 17.0499ZM61.3517 23.746H60.5869V24.2607H61.3517V23.746ZM60.8302 23.9197L58.7211 17.7845L58.2351 17.952L60.3437 24.0871L60.8302 23.9197ZM58.4779 18.1256H58.6743V17.6109H58.4779V18.1256ZM58.4311 17.7842L56.3127 23.9193L56.7987 24.0875L58.9171 17.9523L58.4311 17.7842ZM56.5555 23.746H55.8005V24.2607H56.5555V23.746Z" fill="#4CB853"/>
<path d="M71.7598 3.60223H68.9863C67.8502 3.60223 66.9292 4.524 66.9292 5.66106V23.7711C66.9292 24.9082 67.8502 25.83 68.9863 25.83H71.7598C72.8959 25.83 73.8169 24.9082 73.8169 23.7711V5.66106C73.8169 4.524 72.8959 3.60223 71.7598 3.60223Z" fill="#F6851F" fill-opacity="0.6"/>
</svg>
