<svg width="175" height="141" viewBox="0 0 175 141" fill="none" xmlns="http://www.w3.org/2000/svg">
<g clip-path="url(#clip0_238_11575)">
<path d="M134.209 0.443487H52.045C49.8369 0.443487 48.0469 2.29671 48.0469 4.58277V122.768C48.0469 125.055 49.8369 126.908 52.045 126.908H134.209C136.417 126.908 138.207 125.055 138.207 122.768V4.58277C138.207 2.29671 136.417 0.443487 134.209 0.443487Z" fill="#F6851F" fill-opacity="0.6"/>
<path d="M121.771 13.4671H40.0011C38.069 13.4671 36.5027 15.0887 36.5027 17.089V135.275C36.5027 137.275 38.069 138.897 40.0011 138.897H121.771C123.703 138.897 125.269 137.275 125.269 135.275V17.089C125.269 15.0887 123.703 13.4671 121.771 13.4671Z" fill="white" stroke="#2C9C48" stroke-width="1.00526"/>
<path d="M84.1738 32.6995H117.194" stroke="#2C9C48" stroke-width="1.00526" stroke-linecap="round"/>
<path d="M43.7434 54.012L118.941 53.9481" stroke="#2C9C48" stroke-width="1.00526" stroke-linecap="round"/>
<path d="M43.7114 65.8457L118.909 65.7817" stroke="#2C9C48" stroke-width="1.00526" stroke-linecap="round"/>
<path d="M43.7434 77.6783L118.941 77.6144" stroke="#2C9C48" stroke-width="1.00526" stroke-linecap="round"/>
</g>
<defs>
<clipPath id="clip0_238_11575">
<rect width="175" height="140" fill="white" transform="translate(0 0.0154877)"/>
</clipPath>
</defs>
</svg>
