<svg width="130" height="100" viewBox="0 0 130 100" fill="none" xmlns="http://www.w3.org/2000/svg">
<path d="M99.6982 0.305714H38.662C37.0216 0.305714 35.6919 1.62944 35.6919 3.26235V87.6807C35.6919 89.3136 37.0216 90.6373 38.662 90.6373H99.6982C101.339 90.6373 102.668 89.3136 102.668 87.6807V3.26235C102.668 1.62944 101.339 0.305714 99.6982 0.305714Z" fill="#F6851F" fill-opacity="0.6"/>
<path d="M90.4582 9.60831H29.715C28.2797 9.60831 27.1162 10.7666 27.1162 12.1954V96.6139C27.1162 98.0427 28.2797 99.201 29.715 99.201H90.4582C91.8935 99.201 93.057 98.0427 93.057 96.6139V12.1954C93.057 10.7666 91.8935 9.60831 90.4582 9.60831Z" fill="white" stroke="#2C9C48" stroke-width="1.00526"/>
<path d="M62.5291 23.3457H87.0585" stroke="#2C9C48" stroke-width="1.00526" stroke-linecap="round"/>
<path d="M32.4951 38.5687L88.3564 38.5233" stroke="#2C9C48" stroke-width="1.00526" stroke-linecap="round"/>
<path d="M32.4714 47.0213L88.3328 46.9759" stroke="#2C9C48" stroke-width="1.00526" stroke-linecap="round"/>
<path d="M32.4951 55.4732L88.3564 55.4278" stroke="#2C9C48" stroke-width="1.00526" stroke-linecap="round"/>
</svg>
