<svg width="40" height="40" viewBox="0 0 40 40" fill="none" xmlns="http://www.w3.org/2000/svg">
<rect x="2.38464" y="5.37292" width="35.2308" height="29.2541" rx="1.5" stroke="#F4F3EE"/>
<rect x="25.3658" y="8.03613" width="9.25887" height="11.7583" rx="1.5" stroke="#F4F3EE"/>
<line x1="2.50183" y1="9.39453" x2="25.8667" y2="9.39453" stroke="#F4F3EE"/>
<path d="M20.0146 26.4815L19.594 26.6434L19.7052 26.9321H20.0146V26.4815ZM11.5935 26.501L11.1722 26.3411L10.9404 26.9517H11.5935V26.501ZM15.9655 26.501L16.349 26.2645L16.217 26.0504H15.9655V26.501ZM16.9382 28.0779L17.3246 28.3097L17.4656 28.0747L17.3217 27.8414L16.9382 28.0779ZM15.9655 29.6996V30.1502H16.2206L16.3519 29.9314L15.9655 29.6996ZM11.5935 29.6996V29.2489H10.9404L11.1722 29.8595L11.5935 29.6996ZM20.0145 29.7192V29.2685H19.7052L19.594 29.5572L20.0145 29.7192ZM20.4351 26.3195C19.72 24.4624 17.9185 23.1434 15.8078 23.1434V24.0446C17.5334 24.0446 19.0084 25.1226 19.594 26.6434L20.4351 26.3195ZM15.8078 23.1434C13.6889 23.1434 11.8817 24.4726 11.1722 26.3411L12.0148 26.661C12.5958 25.1309 14.0755 24.0446 15.8078 24.0446V23.1434ZM11.5935 26.9517H15.9655V26.0504H11.5935V26.9517ZM15.5819 26.7376L16.5546 28.3145L17.3217 27.8414L16.349 26.2645L15.5819 26.7376ZM16.5517 27.8461L15.579 29.4678L16.3519 29.9314L17.3246 28.3097L16.5517 27.8461ZM15.9655 29.2489H11.5935L11.5935 30.1502H15.9655V29.2489ZM11.1722 29.8595C11.8817 31.728 13.689 33.0572 15.8078 33.0572V32.1559C14.0755 32.1559 12.5958 31.0697 12.0148 29.5396L11.1722 29.8595ZM15.8078 33.0572C17.9184 33.0572 19.7199 31.7382 20.435 29.8811L19.594 29.5572C19.0084 31.078 17.5334 32.1559 15.8078 32.1559V33.0572ZM33.8521 29.2685L20.0145 29.2685V30.1698L33.8521 30.1698V29.2685ZM34.3028 28.8179C34.3028 29.0668 34.101 29.2685 33.8521 29.2685V30.1698C34.5988 30.1698 35.204 29.5645 35.204 28.8179H34.3028ZM34.3028 27.3827V28.8179H35.204V27.3827H34.3028ZM33.8521 26.9321C34.101 26.9321 34.3028 27.1339 34.3028 27.3827H35.204C35.204 26.6361 34.5988 26.0308 33.8521 26.0308V26.9321ZM20.0146 26.9321L33.8521 26.9321V26.0308L20.0146 26.0308V26.9321Z" fill="#F4F3EE"/>
</svg>
