<svg width="40" height="40" viewBox="0 0 40 40" fill="none" xmlns="http://www.w3.org/2000/svg">
<path d="M6.45581 11.7777C6.45581 11.2254 6.90353 10.7777 7.45581 10.7777H9.33498C9.88726 10.7777 10.335 11.2254 10.335 11.7777V12.7483C10.335 13.3006 10.7827 13.7483 11.335 13.7483H15.8611H19.863C20.4153 13.7483 20.863 13.3006 20.863 12.7483V11.7778C20.863 11.2255 21.3107 10.7778 21.863 10.7778L23.7279 10.7777C24.2802 10.7777 24.7279 11.2254 24.7279 11.7777V36.3223C24.7279 36.8746 24.2802 37.3223 23.7279 37.3223H7.45581C6.90353 37.3223 6.45581 36.8746 6.45581 36.3223V11.7777Z" stroke="#F4F3EE"/>
<rect x="9.0011" y="15.6868" width="13.1814" height="6.90888" rx="1" stroke="#F4F3EE"/>
<rect x="9.0011" y="25.2959" width="3.63627" height="1.99994" rx="0.999972" stroke="#F4F3EE"/>
<rect x="13.7738" y="25.2959" width="3.63627" height="1.99994" rx="0.999972" stroke="#F4F3EE"/>
<rect x="18.5463" y="25.2959" width="3.63627" height="1.99994" rx="0.999972" stroke="#F4F3EE"/>
<rect x="9.00122" y="29.3872" width="3.63627" height="1.99994" rx="0.999972" stroke="#F4F3EE"/>
<rect x="13.7739" y="29.3872" width="3.63627" height="1.99994" rx="0.999972" stroke="#F4F3EE"/>
<rect x="18.5464" y="29.3872" width="3.63627" height="1.99994" rx="0.999972" stroke="#F4F3EE"/>
<rect x="9.00134" y="33.4781" width="3.63627" height="1.99994" rx="0.999972" stroke="#F4F3EE"/>
<rect x="13.774" y="33.4781" width="3.63627" height="1.99994" rx="0.999972" stroke="#F4F3EE"/>
<rect x="18.5465" y="33.4781" width="3.63627" height="1.99994" rx="0.999972" stroke="#F4F3EE"/>
<path d="M10.5918 4.42014C10.5918 3.64802 11.4297 3.16719 12.0963 3.55673L15.1739 5.35505C15.4909 5.54024 15.8838 5.53691 16.1975 5.34636L19.0727 3.60019C19.7391 3.19546 20.5918 3.67522 20.5918 4.45491V12.6776C20.5918 13.2299 20.1441 13.6776 19.5918 13.6776H11.5918C11.0395 13.6776 10.5918 13.2299 10.5918 12.6776V4.42014Z" stroke="#F4F3EE"/>
<path d="M24.7279 17.8069H32.5443C33.0966 17.8069 33.5443 18.2546 33.5443 18.8069V34.2995C33.5443 34.8517 33.0966 35.2995 32.5443 35.2995H24.7279V17.8069Z" stroke="#F4F3EE"/>
<line x1="28.0606" y1="22.0393" x2="28.0324" y2="28.5567" stroke="#F4F3EE" stroke-linecap="round"/>
<path d="M30.0183 22.0392L30.0185 26.7532" stroke="#F4F3EE" stroke-linecap="round"/>
</svg>
