<svg width="25" height="25" viewBox="0 0 25 25" fill="none" xmlns="http://www.w3.org/2000/svg">
<path d="M4.41821 7.26636C4.41821 6.71407 4.86593 6.26636 5.41821 6.26636H13.5995C13.9534 6.26636 14.2809 6.4534 14.4607 6.7582L16.4385 10.1102C16.5293 10.2642 16.5772 10.4396 16.5772 10.6184V20.4652C16.5772 21.0175 16.1295 21.4652 15.5772 21.4652H5.41821C4.86593 21.4652 4.41821 21.0175 4.41821 20.4652V7.26636Z" stroke="#0A122A"/>
<path d="M8.84424 5.81007V4.53479C8.84424 3.98251 9.29195 3.53479 9.84424 3.53479H17.6773C18.0367 3.53479 18.3684 3.72761 18.5463 4.03987L20.4508 7.3837C20.5367 7.5345 20.5819 7.70507 20.5819 7.87862V17.7336C20.5819 18.2859 20.1342 18.7336 19.5819 18.7336H16.7393" stroke="#0A122A"/>
</svg>
