<svg width="25" height="25" viewBox="0 0 25 25" fill="none" xmlns="http://www.w3.org/2000/svg">
<path d="M19.0731 3.02686C18.6642 2.65567 18.0317 2.68627 17.6605 3.09521L7.45663 14.3367C7.39053 14.4096 7.33552 14.4917 7.29341 14.5806L5.24605 18.9014C4.83215 19.7749 5.77524 20.669 6.62544 20.2092L10.9016 17.8965C11.001 17.8428 11.0905 17.7726 11.1664 17.689L21.3628 6.45575C21.734 6.04681 21.7034 5.41438 21.2945 5.04319L19.0731 3.02686Z" stroke="#0A122A"/>
<line x1="7.66328" y1="14.4238" x2="11.162" y2="17.7375" stroke="#0A122A"/>
<line x1="16.8948" y1="4.21252" x2="20.2746" y2="7.34739" stroke="#0A122A"/>
<path d="M2.0387 20.9391C1.76255 20.9391 1.5387 21.1629 1.5387 21.4391C1.5387 21.7152 1.76255 21.9391 2.0387 21.9391V20.9391ZM14.8346 21.9391C15.1107 21.9391 15.3346 21.7152 15.3346 21.4391C15.3346 21.1629 15.1107 20.9391 14.8346 20.9391V21.9391ZM2.0387 21.9391H14.8346V20.9391H2.0387V21.9391Z" fill="#0A122A"/>
<line x1="16.5401" y1="21.4402" x2="18.7393" y2="21.4451" stroke="#0A122A" stroke-linecap="round"/>
</svg>
