<svg width="25" height="25" viewBox="0 0 25 25" fill="none" xmlns="http://www.w3.org/2000/svg">
<path d="M12.5 21C12.2239 21 12 21.2239 12 21.5C12 21.7761 12.2239 22 12.5 22V21ZM12 11.8761C12 12.1522 12.2239 12.3761 12.5 12.3761C12.7761 12.3761 13 12.1522 13 11.8761H12ZM13.5 4H21.5V3H13.5V4ZM22 4.5V20.5H23V4.5H22ZM21.5 21H12.5V22H21.5V21ZM13 11.8761V4.5H12V11.8761H13ZM22 20.5C22 20.7761 21.7761 21 21.5 21V22C22.3284 22 23 21.3284 23 20.5H22ZM21.5 4C21.7761 4 22 4.22386 22 4.5H23C23 3.67157 22.3284 3 21.5 3V4ZM13.5 3C12.6716 3 12 3.67157 12 4.5H13C13 4.22386 13.2239 4 13.5 4V3Z" fill="#F7FFF5"/>
<path d="M17.499 16.9048C17.7752 16.9054 17.9995 16.682 18 16.4058C18.0005 16.1297 17.7771 15.9054 17.501 15.9048L17.499 16.9048ZM3.69384 16.0246C3.4982 16.2195 3.49759 16.5361 3.69248 16.7317L6.86831 19.9199C7.06319 20.1155 7.37977 20.1161 7.57541 19.9212C7.77105 19.7263 7.77166 19.4098 7.57678 19.2141L4.75382 16.3802L7.5877 13.5573C7.78334 13.3624 7.78395 13.0458 7.58907 12.8502C7.39419 12.6545 7.0776 12.6539 6.88196 12.8488L3.69384 16.0246ZM17.501 15.9048L4.04768 15.8789L4.04575 16.8789L17.499 16.9048L17.501 15.9048Z" fill="#F7FFF5"/>
</svg>
