<svg width="40" height="40" viewBox="0 0 40 40" fill="none" xmlns="http://www.w3.org/2000/svg">
<mask id="path-1-inside-1_788_13735" fill="white">
<path fill-rule="evenodd" clip-rule="evenodd" d="M28.2942 19.8301C28.6211 19.2232 28.8053 18.5368 28.8053 17.8099C28.8053 15.3394 26.6773 13.3365 24.0523 13.3365C21.9845 13.3365 20.225 14.5794 19.5713 16.3147C18.8495 15.7982 17.9679 15.4946 17.0161 15.4946C14.7443 15.4946 12.8722 17.2239 12.6185 19.4509C11.0471 19.8647 9.88818 21.2955 9.88818 22.9969C9.88818 25.0219 11.5298 26.6635 13.5548 26.6635H26.4451C28.4701 26.6635 30.1116 25.0219 30.1116 22.9969C30.1116 21.6463 29.3814 20.4662 28.2942 19.8301Z"/>
</mask>
<path d="M28.2942 19.8301L27.4138 19.3558L26.956 20.2056L27.7891 20.6932L28.2942 19.8301ZM19.5713 16.3147L18.9894 17.1279L20.0482 17.8855L20.5071 16.6672L19.5713 16.3147ZM12.6185 19.4509L12.8732 20.418L13.5347 20.2438L13.6121 19.5641L12.6185 19.4509ZM27.8053 17.8099C27.8053 18.3653 27.665 18.8894 27.4138 19.3558L29.1746 20.3043C29.5771 19.5571 29.8053 18.7084 29.8053 17.8099H27.8053ZM24.0523 14.3365C26.183 14.3365 27.8053 15.9479 27.8053 17.8099H29.8053C29.8053 14.7308 27.1716 12.3365 24.0523 12.3365V14.3365ZM20.5071 16.6672C21.0081 15.3374 22.3835 14.3365 24.0523 14.3365V12.3365C21.5854 12.3365 19.442 13.8214 18.6355 15.9621L20.5071 16.6672ZM17.0161 16.4946C17.7516 16.4946 18.4311 16.7284 18.9894 17.1279L20.1532 15.5014C19.2679 14.8679 18.1841 14.4946 17.0161 14.4946V16.4946ZM13.6121 19.5641C13.8098 17.8282 15.2668 16.4946 17.0161 16.4946V14.4946C14.2218 14.4946 11.9346 16.6196 11.625 19.3378L13.6121 19.5641ZM10.8882 22.9969C10.8882 21.7609 11.73 20.719 12.8732 20.418L12.3639 18.4839C10.3641 19.0105 8.88818 20.8301 8.88818 22.9969H10.8882ZM13.5548 25.6635C12.0821 25.6635 10.8882 24.4696 10.8882 22.9969H8.88818C8.88818 25.5742 10.9775 27.6635 13.5548 27.6635V25.6635ZM26.4451 25.6635H13.5548V27.6635H26.4451V25.6635ZM29.1116 22.9969C29.1116 24.4696 27.9178 25.6635 26.4451 25.6635V27.6635C29.0223 27.6635 31.1116 25.5742 31.1116 22.9969H29.1116ZM27.7891 20.6932C28.5824 21.1574 29.1116 22.0159 29.1116 22.9969H31.1116C31.1116 21.2767 30.1803 19.7751 28.7992 18.967L27.7891 20.6932Z" fill="#F4F3EE" mask="url(#path-1-inside-1_788_13735)"/>
<circle cx="7.25415" cy="14.9216" r="2" stroke="#F4F3EE"/>
<circle cx="14.4438" cy="7.43042" r="2" stroke="#F4F3EE"/>
<circle cx="33.3093" cy="13.2762" r="2" stroke="#F4F3EE"/>
<circle cx="22.0525" cy="33.4877" r="2" stroke="#F4F3EE"/>
<circle cx="30.8054" cy="29.4877" r="2" stroke="#F4F3EE"/>
<path d="M8.57923 16.049L12.6928 19.8914" stroke="#F4F3EE" stroke-width="0.3"/>
<line x1="21.9026" y1="31.4924" x2="21.7252" y2="25.8769" stroke="#F4F3EE" stroke-width="0.3"/>
<line x1="14.8206" y1="9.39775" x2="16.3668" y2="16.3272" stroke="#F4F3EE" stroke-width="0.3"/>
<line x1="31.7096" y1="14.5011" x2="27.7546" y2="17.0479" stroke="#F4F3EE" stroke-width="0.3"/>
<line x1="27.7818" y1="25.7684" x2="29.7593" y2="27.8347" stroke="#F4F3EE" stroke-width="0.3"/>
</svg>
