<svg width="25" height="25" viewBox="0 0 25 25" fill="none" xmlns="http://www.w3.org/2000/svg">
<path d="M2.5 13.1437C2.5 12.3493 3.38151 11.8721 4.04665 12.3063L12.0446 17.5276C12.3794 17.7462 12.8123 17.7443 13.1453 17.5227L20.9459 12.3309C21.6105 11.8886 22.5 12.365 22.5 13.1634V20.2966C22.5 20.8489 22.0523 21.2966 21.5 21.2966H3.5C2.94772 21.2966 2.5 20.8489 2.5 20.2966V13.1437Z" stroke="#0A122A"/>
<path d="M20.5 12.5V5.5C20.5 4.94772 20.0523 4.5 19.5 4.5H5.5C4.94772 4.5 4.5 4.94772 4.5 5.5V12.5" stroke="#0A122A"/>
<line x1="7.65454" y1="8.40247" x2="17.3455" y2="8.40247" stroke="#0A122A" stroke-linecap="round"/>
<line x1="7.65454" y1="10.7966" x2="17.3455" y2="10.7966" stroke="#0A122A" stroke-linecap="round"/>
</svg>
