<svg width="25" height="25" viewBox="0 0 25 25" fill="none" xmlns="http://www.w3.org/2000/svg">
<mask id="path-1-outside-1_788_17069" maskUnits="userSpaceOnUse" x="9" y="2" width="8" height="6" fill="black">
<rect fill="white" x="9" y="2" width="8" height="6"/>
<path d="M10 4C10 3.44772 10.4477 3 11 3H14.187C14.4307 3 14.6661 3.08901 14.8488 3.25029L15.6618 3.96791C15.8768 4.15773 16 4.43077 16 4.71761V7H10V4Z"/>
</mask>
<path d="M16 7V8H17V7H16ZM10 7H9V8H10V7ZM15.6618 3.96791L15 4.71761L15.6618 3.96791ZM14.8488 3.25029L15.5106 2.50059L14.8488 3.25029ZM11 4H14.187V2H11V4ZM16 6H10V8H16V6ZM11 7V4H9V7H11ZM14.187 4L15 4.71761L16.3235 3.2182L15.5106 2.50059L14.187 4ZM15 4.71761V7H17V4.71761H15ZM15 4.71761L15 4.71761H17C17 4.14392 16.7536 3.59785 16.3235 3.2182L15 4.71761ZM14.187 4L15.5106 2.50059C15.1451 2.17801 14.6745 2 14.187 2V4ZM11 2C9.89543 2 9 2.89543 9 4H11H11V2Z" fill="#0A122A" mask="url(#path-1-outside-1_788_17069)"/>
<mask id="path-3-inside-2_788_17069" fill="white">
<path d="M3 8C3 7.44772 3.44772 7 4 7H22C22.5523 7 23 7.44772 23 8V19C23 19.5523 22.5523 20 22 20H16.9488C16.3965 20 15.9488 19.5523 15.9488 19V15.3873H12.9332H9.97777V19C9.97777 19.5523 9.53005 20 8.97777 20H4C3.44772 20 3 19.5523 3 19V8Z"/>
</mask>
<path d="M15.9488 15.3873H16.9488V14.3873H15.9488V15.3873ZM9.97777 15.3873V14.3873H8.97777V15.3873H9.97777ZM4 8H22V6H4V8ZM22 8V19H24V8H22ZM4 19V8H2V19H4ZM22 19H16.9488V21H22V19ZM16.9488 19V15.3873H14.9488V19H16.9488ZM8.97777 19H4V21H8.97777V19ZM8.97777 15.3873V19H10.9778V15.3873H8.97777ZM15.9488 14.3873H12.9332V16.3873H15.9488V14.3873ZM12.9332 14.3873H9.97777V16.3873H12.9332V14.3873ZM8.97777 21C10.0823 21 10.9778 20.1046 10.9778 19H8.97777V19V21ZM2 19C2 20.1046 2.89543 21 4 21V19H4H2ZM22 19V21C23.1046 21 24 20.1046 24 19H22ZM22 8H24C24 6.89543 23.1046 6 22 6V8ZM16.9488 19H16.9488H14.9488C14.9488 20.1046 15.8442 21 16.9488 21V19ZM4 6C2.89543 6 2 6.89543 2 8H4V8V6Z" fill="#0A122A" mask="url(#path-3-inside-2_788_17069)"/>
<circle cx="19" cy="11" r="1" fill="#0A122A"/>
<mask id="path-6-outside-3_788_17069" maskUnits="userSpaceOnUse" x="9" y="19" width="8" height="4" fill="black">
<rect fill="white" x="9" y="19" width="8" height="4"/>
<path d="M16 21C16 21.5523 15.5523 22 15 22H11C10.4477 22 10 21.5523 10 21V19H16V21Z"/>
</mask>
<path d="M17 21C17 22.1046 16.1046 23 15 23H11C9.89543 23 9 22.1046 9 21H11H15H17ZM10 19H16H10ZM17 19V21C17 22.1046 16.1046 23 15 23V21V19H17ZM11 23C9.89543 23 9 22.1046 9 21V19H11V21V23Z" fill="#0A122A" mask="url(#path-6-outside-3_788_17069)"/>
</svg>
