<svg width="40" height="40" viewBox="0 0 40 40" fill="none" xmlns="http://www.w3.org/2000/svg">
<path d="M8.5 17.4133C7.67157 17.4133 7 18.0849 7 18.9133V36.9133C7 37.7418 7.67157 38.4133 8.5 38.4133H13.5537C14.3821 38.4133 15.0537 37.7418 15.0537 36.9133V29.4919C15.0537 29.2158 15.2775 28.9919 15.5537 28.9919H19.4735C19.7497 28.9919 19.9735 29.2158 19.9735 29.4919V36.9133C19.9735 37.7418 20.6451 38.4133 21.4735 38.4133H31.5C32.3284 38.4133 33 37.7418 33 36.9133V18.9133C33 18.0849 32.3284 17.4133 31.5 17.4133H8.5Z" stroke="#F4F3EE"/>
<mask id="path-2-outside-1_788_13770" maskUnits="userSpaceOnUse" x="3.03735" y="3.33386" width="34" height="13" fill="black">
<rect fill="white" x="3.03735" y="3.33386" width="34" height="13"/>
<path fill-rule="evenodd" clip-rule="evenodd" d="M10.7373 4.33386C10.428 4.33386 10.1361 4.47701 9.94666 4.72157L4.24857 12.0793C4.07963 12.2974 4.01838 12.5484 4.04235 12.7864C4.07933 14.1348 5.18403 15.2166 6.54139 15.2166C7.50642 15.2166 8.34374 14.6698 8.76045 13.8691C9.17715 14.6698 10.0145 15.2166 10.9795 15.2166C12.0143 15.2166 12.9023 14.5878 13.2822 13.6916H13.3121C13.6921 14.5878 14.5801 15.2166 15.6149 15.2166C16.5599 15.2166 17.3824 14.6923 17.8074 13.9187C18.2324 14.6923 19.055 15.2166 19.9999 15.2166C21.0092 15.2166 21.8788 14.6185 22.2736 13.7574C22.6685 14.6185 23.538 15.2166 24.5473 15.2166C25.5019 15.2166 26.3315 14.6815 26.7527 13.895C27.1739 14.6815 28.0035 15.2166 28.9581 15.2166C29.9635 15.2166 30.8303 14.6231 31.2272 13.7673C31.6241 14.6231 32.4909 15.2166 33.4963 15.2166C34.877 15.2166 35.9963 14.0973 35.9963 12.7166H35.9933C35.9996 12.5036 35.9371 12.2839 35.79 12.089L30.2347 4.7313C30.0457 4.481 29.7502 4.33386 29.4366 4.33386H10.7373Z"/>
</mask>
<path d="M9.94666 4.72157L9.15603 4.10927V4.10927L9.94666 4.72157ZM4.24857 12.0793L3.45794 11.467L3.45794 11.467L4.24857 12.0793ZM4.04235 12.7864L5.04197 12.759L5.04097 12.7225L5.03732 12.6862L4.04235 12.7864ZM8.76045 13.8691L9.6475 13.4074L8.76045 11.703L7.87339 13.4074L8.76045 13.8691ZM13.2822 13.6916V12.6916H12.62L12.3616 13.3012L13.2822 13.6916ZM13.3121 13.6916L14.2328 13.3012L13.9744 12.6916H13.3121V13.6916ZM17.8074 13.9187L18.6838 13.4371L17.8074 11.842L16.931 13.4371L17.8074 13.9187ZM22.2736 13.7574L23.1826 13.3406L22.2736 11.3582L21.3646 13.3406L22.2736 13.7574ZM26.7527 13.895L27.6343 13.4229L26.7527 11.7766L25.8711 13.4229L26.7527 13.895ZM31.2272 13.7673L32.1344 13.3465L31.2272 11.3908L30.32 13.3465L31.2272 13.7673ZM35.9963 12.7166H36.9963V11.7166H35.9963V12.7166ZM35.9933 12.7166L34.9937 12.687L34.9633 13.7166H35.9933V12.7166ZM35.79 12.089L34.9919 12.6916L34.9919 12.6916L35.79 12.089ZM30.2347 4.7313L31.0328 4.12873V4.12873L30.2347 4.7313ZM10.7373 5.33386V5.33386V3.33386C10.1186 3.33386 9.53482 3.62015 9.15603 4.10927L10.7373 5.33386ZM5.0392 12.6916L10.7373 5.33386L9.15603 4.10927L3.45794 11.467L5.0392 12.6916ZM5.03732 12.6862C5.03738 12.6868 5.03749 12.69 5.03629 12.6943C5.03603 12.6952 5.03576 12.696 5.03553 12.6966C5.03529 12.6972 5.03513 12.6975 5.03513 12.6975C5.03513 12.6975 5.03536 12.6971 5.03595 12.6961C5.03653 12.6952 5.03756 12.6937 5.0392 12.6916L3.45794 11.467C3.12599 11.8956 2.99877 12.4039 3.04738 12.8866L5.03732 12.6862ZM6.54139 14.2166C5.72713 14.2166 5.06414 13.5675 5.04197 12.759L3.04272 12.8138C3.09451 14.7021 4.64093 16.2166 6.54139 16.2166V14.2166ZM7.87339 13.4074C7.62207 13.8903 7.119 14.2166 6.54139 14.2166V16.2166C7.89385 16.2166 9.06542 15.4492 9.6475 14.3308L7.87339 13.4074ZM10.9795 14.2166C10.4019 14.2166 9.89883 13.8903 9.6475 13.4074L7.87339 14.3308C8.45547 15.4492 9.62704 16.2166 10.9795 16.2166V14.2166ZM12.3616 13.3012C12.1327 13.841 11.5988 14.2166 10.9795 14.2166V16.2166C12.4298 16.2166 13.6718 15.3347 14.2029 14.0819L12.3616 13.3012ZM13.3121 12.6916H13.2822V14.6916H13.3121V12.6916ZM15.6149 14.2166C14.9956 14.2166 14.4617 13.841 14.2328 13.3012L12.3915 14.0819C12.9226 15.3347 14.1646 16.2166 15.6149 16.2166V14.2166ZM16.931 13.4371C16.6746 13.9039 16.1805 14.2166 15.6149 14.2166V16.2166C16.9392 16.2166 18.0902 15.4807 18.6838 14.4002L16.931 13.4371ZM19.9999 14.2166C19.4343 14.2166 18.9403 13.9039 18.6838 13.4371L16.931 14.4002C17.5246 15.4807 18.6756 16.2166 19.9999 16.2166V14.2166ZM21.3646 13.3406C21.1267 13.8595 20.604 14.2166 19.9999 14.2166V16.2166C21.4145 16.2166 22.6309 15.3775 23.1826 14.1742L21.3646 13.3406ZM24.5473 14.2166C23.9433 14.2166 23.4205 13.8595 23.1826 13.3406L21.3646 14.1742C21.9164 15.3775 23.1328 16.2166 24.5473 16.2166V14.2166ZM25.8711 13.4229C25.6171 13.8974 25.1187 14.2166 24.5473 14.2166V16.2166C25.8851 16.2166 27.046 15.4657 27.6343 14.3671L25.8711 13.4229ZM28.9581 14.2166C28.3867 14.2166 27.8883 13.8974 27.6343 13.4229L25.8711 14.3671C26.4594 15.4657 27.6203 16.2166 28.9581 16.2166V14.2166ZM30.32 13.3465C30.0808 13.8622 29.5598 14.2166 28.9581 14.2166V16.2166C30.3672 16.2166 31.5797 15.3839 32.1344 14.1881L30.32 13.3465ZM33.4963 14.2166C32.8946 14.2166 32.3736 13.8622 32.1344 13.3465L30.32 14.1881C30.8747 15.3839 32.0872 16.2166 33.4963 16.2166V14.2166ZM34.9963 12.7166C34.9963 13.545 34.3248 14.2166 33.4963 14.2166V16.2166C35.4293 16.2166 36.9963 14.6495 36.9963 12.7166H34.9963ZM35.9933 13.7166H35.9963V11.7166H35.9933V13.7166ZM34.9919 12.6916C34.9946 12.6952 34.9956 12.6971 34.9958 12.6974C34.9959 12.6976 34.9955 12.6969 34.995 12.6953C34.9939 12.6919 34.9937 12.6888 34.9937 12.687L36.9929 12.7461C37.0057 12.3122 36.8762 11.8681 36.588 11.4864L34.9919 12.6916ZM29.4366 5.33386L34.9919 12.6916L36.588 11.4864L31.0328 4.12873L29.4366 5.33386ZM29.4366 5.33386L29.4366 5.33386L31.0328 4.12873C30.6548 3.62814 30.0639 3.33386 29.4366 3.33386V5.33386ZM10.7373 5.33386H29.4366V3.33386H10.7373V5.33386Z" fill="#F4F3EE" mask="url(#path-2-outside-1_788_13770)"/>
</svg>
