<svg width="25" height="25" viewBox="0 0 25 25" fill="none" xmlns="http://www.w3.org/2000/svg">
<rect x="3.74829" y="8.67944" width="17" height="11" rx="0.5" stroke="#0A122A"/>
<path d="M4.17297 9.15088L20.346 19.2106" stroke="#0A122A"/>
<path d="M4.27002 19.0812L20.4107 9.1509" stroke="#0A122A"/>
<path d="M11.7595 10.9531C11.7595 11.2293 11.9834 11.4531 12.2595 11.4531C12.5357 11.4531 12.7595 11.2293 12.7595 10.9531H11.7595ZM12.6131 3.51504C12.4178 3.31978 12.1012 3.31978 11.906 3.51504L8.72399 6.69702C8.52873 6.89228 8.52873 7.20886 8.72399 7.40413C8.91925 7.59939 9.23583 7.59939 9.43109 7.40413L12.2595 4.5757L15.0879 7.40413C15.2832 7.59939 15.5998 7.59939 15.7951 7.40413C15.9903 7.20886 15.9903 6.89228 15.7951 6.69702L12.6131 3.51504ZM12.7595 10.9531V3.86859H11.7595V10.9531H12.7595Z" fill="#0A122A"/>
</svg>
