<svg width="40" height="40" viewBox="0 0 40 40" fill="none" xmlns="http://www.w3.org/2000/svg">
<circle cx="19.9999" cy="5.80054" r="2.5" stroke="#F4F3EE"/>
<path d="M14.3783 10.8886C14.411 10.7375 14.5117 10.6101 14.6512 10.5433L16.597 9.61207C16.815 9.5077 17.0766 9.57431 17.2181 9.77028L18.7734 11.9232C19.3521 12.7242 20.5339 12.7565 21.1554 11.9882L22.9841 9.7279C23.1295 9.54818 23.3792 9.49156 23.5879 9.591L25.5817 10.5409C25.7234 10.6084 25.8251 10.7385 25.8565 10.8923L27.3431 18.1775C27.4064 18.4874 27.1695 18.7774 26.8532 18.7774H13.2914C12.9726 18.7774 12.7353 18.4832 12.8027 18.1717L14.3783 10.8886Z" stroke="#F4F3EE"/>
<line x1="15.6465" y1="18.4221" x2="15.6465" y2="16.2156" stroke="#F4F3EE" stroke-linecap="round"/>
<line x1="24.4554" y1="18.4221" x2="24.4554" y2="16.2156" stroke="#F4F3EE" stroke-linecap="round"/>
<line x1="20.0614" y1="18.9221" x2="20.0614" y2="23.336" stroke="#F4F3EE"/>
<rect x="16.0953" y="23.2026" width="7.80896" height="3.23855" rx="0.5" stroke="#F4F3EE"/>
<path d="M16.6111 24.6546L7.97833 24.6547C7.42605 24.6547 6.97833 25.1024 6.97833 25.6547L6.97833 29.4259" stroke="#F4F3EE"/>
<path d="M23.8607 24.7086L31.9468 24.7085C32.4991 24.7085 32.9468 25.1563 32.9468 25.7085L32.9468 29.2748" stroke="#F4F3EE"/>
<rect x="1.68506" y="29.9259" width="10.2706" height="6.77363" rx="0.5" stroke="#F4F3EE"/>
<rect x="14.8646" y="29.7749" width="10.2706" height="6.77363" rx="0.5" stroke="#F4F3EE"/>
<rect x="28.0443" y="29.7749" width="10.2706" height="6.77363" rx="0.5" stroke="#F4F3EE"/>
<line x1="20.0614" y1="26.2944" x2="20.0615" y2="29.4259" stroke="#F4F3EE"/>
</svg>
