<svg width="40" height="40" viewBox="0 0 40 40" fill="none" xmlns="http://www.w3.org/2000/svg">
<path d="M7.78381 13.6993C7.78381 13.3109 8.00877 12.9575 8.36074 12.7932L19.2019 7.73122C19.4681 7.60693 19.7754 7.60598 20.0424 7.72861L31.0713 12.795C31.4264 12.9581 31.6539 13.313 31.6539 13.7037V20.0539C31.6539 20.6062 31.2062 21.0539 30.6539 21.0539H28.1491C27.5969 21.0539 27.1491 20.6062 27.1491 20.0539V17.9996C27.1491 17.4473 26.7014 16.9996 26.1491 16.9996H13.2835C12.7312 16.9996 12.2835 17.4473 12.2835 17.9996V31.2265C12.2835 31.7788 11.8358 32.2265 11.2835 32.2265H8.78381C8.23153 32.2265 7.78381 31.7788 7.78381 31.2265V13.6993Z" stroke="#F4F3EE"/>
<path d="M24.6903 21.8662H18.6691C18.1168 21.8662 17.6691 22.3139 17.6691 22.8662V29.4869C17.6691 30.0392 18.1168 30.4869 18.6691 30.4869H19.6482H22.6855H24.6903C25.2425 30.4869 25.6903 30.0392 25.6903 29.4869V22.8662C25.6903 22.3139 25.2425 21.8662 24.6903 21.8662Z" stroke="#F4F3EE"/>
<path d="M26.8987 26.1943C26.8987 25.6421 27.3464 25.1943 27.8987 25.1943L29.4821 25.1943C29.8916 25.1943 30.2597 25.444 30.4112 25.8245L31.671 28.9893C31.9324 29.6459 31.4486 30.3591 30.7419 30.3591H30.0184H28.1452H27.8987C27.3464 30.3591 26.8987 29.9114 26.8987 29.3591V26.1943Z" stroke="#F4F3EE"/>
<path d="M22.7189 30.9646C22.7189 31.793 22.0473 32.4646 21.2189 32.4646C20.3904 32.4646 19.7189 31.793 19.7189 30.9646C21.2189 30.9647 20.3904 30.9647 21.2189 30.9647C22.0473 30.9647 21.2189 30.9647 22.7189 30.9646Z" stroke="#F4F3EE"/>
<path d="M30.7296 30.9646C30.7296 31.793 30.058 32.4646 29.2296 32.4646C28.4012 32.4646 27.7296 31.793 27.7296 30.9646C29.2296 30.9647 28.4012 30.9647 29.2296 30.9647C30.058 30.9647 29.2296 30.9647 30.7296 30.9646Z" stroke="#F4F3EE"/>
</svg>
