<svg width="40" height="40" viewBox="0 0 40 40" fill="none" xmlns="http://www.w3.org/2000/svg">
<path d="M6 16.5987C6 16.1956 6.19513 15.8174 6.52366 15.5837L19.2782 6.51331C19.7103 6.206 20.2897 6.206 20.7218 6.51331L33.4763 15.5837C33.8049 15.8174 34 16.1956 34 16.5987V32.7545C34 33.4424 33.4424 34 32.7545 34H25.1162C24.4284 34 23.8707 33.4424 23.8707 32.7545V25.8944C23.8707 25.2065 23.3131 24.6489 22.6253 24.6489H20H17.3383C16.6505 24.6489 16.0929 25.2065 16.0929 25.8944V32.7545C16.0929 33.4424 15.5353 34 14.8474 34H7.24547C6.55762 34 6 33.4424 6 32.7545V16.5987Z" stroke="#F4F3EE" stroke-width="2"/>
</svg>
