<svg width="90" height="35" viewBox="0 0 90 35" fill="none" xmlns="http://www.w3.org/2000/svg">
<path fill-rule="evenodd" clip-rule="evenodd" d="M2.92754 4.7041L0.524536 7.39953L4.17275 11.4905L6.57575 8.79695L2.92754 4.7041Z" fill="#F6851F"/>
<path fill-rule="evenodd" clip-rule="evenodd" d="M6.45942 8.66442C5.79641 7.9206 4.72273 7.9206 4.06137 8.66258C3.40001 9.40455 3.40001 10.6087 4.06302 11.3525C4.72603 12.0963 5.79971 12.0963 6.46107 11.3543C7.12408 10.6123 7.12243 9.40824 6.45942 8.66442Z" fill="#F6851F"/>
<path d="M3.39917 5.92664H0V33.2141H3.39917V5.92664Z" fill="#F8961D"/>
<path fill-rule="evenodd" clip-rule="evenodd" d="M13.7724 16.8832L0.710045 31.5294C0.281232 31.8774 0.000854492 32.4445 0.000854492 33.0833C0.000854492 34.142 0.766121 35 1.71116 35C2.12678 35 2.50776 34.8343 2.80463 34.5562L2.81123 34.5636L16.177 19.5768L13.7724 16.8832Z" fill="#E01F27"/>
<path d="M16.6567 18.6603C16.8398 17.6531 16.234 16.6422 15.3036 16.4024C14.3731 16.1627 13.4704 16.7848 13.2873 17.7921C13.1041 18.7993 13.71 19.8102 14.6404 20.05C15.5708 20.2897 16.4736 19.6676 16.6567 18.6603Z" fill="#CA2127"/>
<path fill-rule="evenodd" clip-rule="evenodd" d="M1.70285 4.13342C0.767703 4.13342 0.0090332 4.98587 0.0090332 6.03716C0.0090332 7.08845 0.767703 7.94089 1.70285 7.94089C2.63799 7.94089 3.39666 7.08845 3.39666 6.03716C3.39831 4.98587 2.63964 4.13342 1.70285 4.13342Z" fill="#F8961D"/>
<path fill-rule="evenodd" clip-rule="evenodd" d="M18.3597 23.5059L15.9584 26.1994L19.6049 30.2904L22.0079 27.5969L18.3597 23.5059Z" fill="#2C9C48"/>
<path fill-rule="evenodd" clip-rule="evenodd" d="M18.4712 23.6457C17.8082 22.9019 16.7361 22.9019 16.0748 23.6439C15.4134 24.3859 15.4151 25.59 16.0764 26.332C16.7394 27.0758 17.8115 27.0758 18.4728 26.3338C19.1359 25.5918 19.1342 24.3877 18.4712 23.6457Z" fill="#2C9C48"/>
<path d="M22.5325 1.78589H19.135V29.0678H22.5325V1.78589Z" fill="#4CB853"/>
<path fill-rule="evenodd" clip-rule="evenodd" d="M20.823 0C20.4074 0 20.0264 0.165702 19.7312 0.443714L19.7246 0.436349L6.36707 15.4195L8.76842 18.1131L21.8225 3.47054C22.2513 3.12257 22.5317 2.5555 22.5317 1.91662C22.5317 0.85797 21.7664 0 20.823 0Z" fill="#28A992"/>
<path d="M9.25725 17.178C9.42835 16.167 8.81119 15.1652 7.87879 14.9403C6.94639 14.7153 6.05182 15.3526 5.88072 16.3635C5.70963 17.3744 6.32678 18.3763 7.25918 18.6012C8.19158 18.8261 9.08615 18.1889 9.25725 17.178Z" fill="#1E9680"/>
<path fill-rule="evenodd" clip-rule="evenodd" d="M20.8296 27.0555C19.8944 27.0555 19.1357 27.908 19.1357 28.9593C19.1357 30.0106 19.8944 30.863 20.8296 30.863C21.7647 30.863 22.5234 30.0106 22.5234 28.9593C22.5234 27.908 21.7647 27.0555 20.8296 27.0555Z" fill="#4CB853"/>
<path d="M37.4393 4.39673V6.83967H31.1345V8.36651H36.0716V10.8095H31.1345V12.1855H37.4393V14.6284H28.6726V4.39673H37.4393Z" fill="#F7FFF5"/>
<path d="M40.8306 4.39673H43.2926V8.36651H44.8646L47.8473 4.39673H50.2532V5.00746L46.875 9.51072L50.2532 14.0177V14.6284H47.8473L44.9734 10.8095H43.2926V14.6284H40.8306V4.39673Z" fill="#F7FFF5"/>
<path d="M62.9615 14.6285H60.582L58.7496 11.4203C58.2552 11.4203 57.7806 11.4154 57.3258 11.4055C56.8688 11.3957 56.4217 11.3504 55.9844 11.2694V14.6285H53.5225V4.3968C54.3069 4.29624 55.1297 4.2202 55.991 4.16869C56.8523 4.11718 57.6982 4.09143 58.5288 4.09143H58.9111C59.6779 4.09143 60.3118 4.18096 60.8127 4.36001C61.3137 4.53661 61.7147 4.7782 62.0157 5.0848C62.3167 5.38894 62.5265 5.74459 62.6452 6.15174C62.7638 6.5589 62.8231 6.99181 62.8231 7.45048V8.06121C62.8231 8.70384 62.7089 9.28636 62.4804 9.8088C62.2541 10.3337 61.8487 10.7384 61.2642 11.0229L62.9615 14.0177V14.6285ZM58.5551 6.53437C58.2365 6.53437 57.8421 6.54418 57.372 6.56381C56.904 6.58588 56.4415 6.62267 55.9844 6.67418V8.84119C56.4129 8.90251 56.8194 8.94053 57.2039 8.95524C57.5862 8.96996 57.896 8.97732 58.1333 8.97732C58.6804 8.97732 59.1044 8.94911 59.4054 8.8927C59.7064 8.83874 59.9273 8.75534 60.0679 8.64252C60.2085 8.52969 60.2931 8.38743 60.3217 8.21574C60.348 8.04159 60.3612 7.83311 60.3612 7.59028C60.3612 7.45784 60.3524 7.32784 60.3348 7.2003C60.3173 7.07275 60.2513 6.95747 60.1371 6.85446C60.0228 6.7539 59.8427 6.67541 59.5966 6.61899C59.3505 6.56258 59.0034 6.53437 58.5551 6.53437Z" fill="#F7FFF5"/>
<path d="M75.2844 4.39673V6.83967H68.9796V8.36651H73.9167V10.8095H68.9796V12.1855H75.2844V14.6284H66.5177V4.39673H75.2844Z" fill="#F7FFF5"/>
<path d="M84.9673 12.535H83.7083L81.1376 8.52104V14.6284H78.6757V4.39673H81.1376L84.3378 9.63581L87.538 4.39673H89.9999V14.6284H87.538V8.52104L84.9673 12.535Z" fill="#F7FFF5"/>
<path d="M74.2081 20.7921H41.7C41.4661 20.7921 41.3102 20.5264 41.3102 20.1277C41.3102 19.7291 41.4661 19.4633 41.7 19.4633H74.1691C74.403 19.4633 74.5589 19.7291 74.5589 20.1277C74.5589 20.5264 74.403 20.7921 74.2081 20.7921Z" fill="#F7FFF5"/>
<path d="M30.9269 29.2746V25.6985C31.1993 25.6642 31.4861 25.6372 31.7871 25.6176C32.0881 25.6004 32.3836 25.5918 32.6736 25.5918H32.8088C33.0768 25.5918 33.2987 25.62 33.4745 25.6764C33.6481 25.7328 33.7876 25.8101 33.8931 25.9082C33.9985 26.0039 34.0721 26.1167 34.1139 26.2467C34.1556 26.3767 34.1765 26.514 34.1765 26.6587V26.7654C34.1765 26.9224 34.1347 27.0647 34.0513 27.1922C33.9678 27.3198 33.8194 27.4154 33.6063 27.4792C33.7316 27.5111 33.837 27.5528 33.9227 27.6043C34.0084 27.6533 34.0765 27.7097 34.1271 27.7735C34.1776 27.8373 34.2149 27.906 34.2391 27.9796C34.2611 28.0531 34.2721 28.1292 34.2721 28.2077V28.3144C34.2721 28.4591 34.249 28.5964 34.2029 28.7264C34.1589 28.8564 34.0809 28.9692 33.9689 29.0649C33.859 29.1606 33.7096 29.2366 33.5206 29.293C33.3317 29.3519 33.0944 29.3813 32.8088 29.3813H32.6736C32.3836 29.3813 32.0881 29.3715 31.7871 29.3519C31.4861 29.3347 31.1993 29.3089 30.9269 29.2746ZM32.6934 26.4454C32.577 26.4454 32.4363 26.449 32.2715 26.4564C32.1068 26.4638 31.9453 26.476 31.7871 26.4932V27.0855H32.6374C32.8307 27.0855 32.9801 27.0769 33.0856 27.0598C33.1911 27.0451 33.268 27.023 33.3163 26.9935C33.3624 26.9666 33.3899 26.9335 33.3987 26.8942C33.4075 26.855 33.4119 26.812 33.4119 26.7654C33.4119 26.7237 33.4064 26.6833 33.3954 26.644C33.3866 26.6048 33.3591 26.5692 33.313 26.5373C33.2669 26.5079 33.1955 26.4858 33.0988 26.4711C32.9999 26.4539 32.8648 26.4454 32.6934 26.4454ZM32.6374 27.9391H31.7871V28.4762C31.9453 28.4959 32.1068 28.5093 32.2715 28.5167C32.4363 28.5241 32.5824 28.5277 32.7099 28.5277C32.901 28.5277 33.0493 28.5192 33.1548 28.502C33.2625 28.4848 33.3427 28.4615 33.3954 28.4321C33.4481 28.4027 33.48 28.3683 33.491 28.3291C33.502 28.2898 33.5075 28.2494 33.5075 28.2077C33.5075 28.1709 33.502 28.1353 33.491 28.101C33.4822 28.0666 33.4503 28.0384 33.3954 28.0163C33.3427 27.9943 33.257 27.9759 33.1383 27.9612C33.0197 27.9464 32.8527 27.9391 32.6374 27.9391Z" fill="#F7FFF5"/>
<path d="M35.4289 29.2746H34.6544V29.0612L36.0782 25.6985H36.9384L38.3621 29.0612V29.2746H37.5876L37.3108 28.5792H35.6992L35.4289 29.2746ZM36.0189 27.7809H36.9944L36.5066 26.5557L36.0189 27.7809Z" fill="#F7FFF5"/>
<path d="M40.679 25.6985H41.5392V28.421H42.5675V25.6985H43.4276V29.2746H38.7905V25.6985H39.6507V28.421H40.679V25.6985Z" fill="#F7FFF5"/>
<path d="M45.3392 25.6985H48.6349V29.2746H47.7747V26.552H46.1994V29.2746H45.3392V25.6985Z" fill="#F7FFF5"/>
<path d="M52.6228 25.9119L51.3474 28.3401C51.2727 28.4922 51.2013 28.632 51.1331 28.7595C51.065 28.8895 50.9848 28.9987 50.8926 29.087C50.8025 29.1777 50.697 29.2488 50.5762 29.3004C50.4553 29.3543 50.3092 29.3813 50.1378 29.3813C50.0675 29.3813 49.9906 29.3764 49.9071 29.3666C49.8236 29.3568 49.75 29.3433 49.6863 29.3261V28.4615C49.75 28.4787 49.8225 28.4909 49.9038 28.4983C49.9829 28.5057 50.0499 28.5093 50.1049 28.5093C50.2411 28.5093 50.3367 28.4885 50.3916 28.4468C50.4487 28.4026 50.4949 28.3352 50.53 28.2444L49.0898 25.9119V25.6985H49.95L50.9387 27.4203L51.8088 25.6985H52.6228V25.9119Z" fill="#F7FFF5"/>
<path d="M55.1308 29.2746H54.2706V26.552H53.0281V25.6985H56.3766V26.552H55.1308V29.2746Z" fill="#F7FFF5"/>
<path d="M60.058 28.0458V28.2592C60.058 28.4161 60.0371 28.5621 59.9954 28.697C59.9537 28.8319 59.88 28.9496 59.7746 29.0502C59.6691 29.1532 59.5296 29.2341 59.356 29.293C59.1803 29.3519 58.9583 29.3813 58.6903 29.3813H58.5585C58.2684 29.3813 57.9729 29.3715 57.6719 29.3519C57.3709 29.3347 57.0831 29.3089 56.8084 29.2746V25.6985H57.6686V26.9788C57.8246 26.9494 57.985 26.9334 58.1498 26.931C58.3124 26.9285 58.4805 26.9273 58.654 26.9273H58.7859C59.0341 26.9273 59.2407 26.9555 59.4055 27.0119C59.5702 27.0708 59.6999 27.1517 59.7944 27.2548C59.891 27.3553 59.9591 27.4743 59.9987 27.6116C60.0382 27.749 60.058 27.8937 60.058 28.0458ZM58.5189 27.7809C58.3695 27.7809 58.2278 27.7833 58.0938 27.7882C57.9597 27.7931 57.818 27.8066 57.6686 27.8287V28.4762C57.8268 28.4959 57.9883 28.5093 58.1531 28.5167C58.3179 28.5241 58.4508 28.5277 58.5519 28.5277C58.7364 28.5277 58.8792 28.5179 58.9803 28.4983C59.0814 28.4811 59.155 28.4554 59.2011 28.421C59.2473 28.3867 59.2736 28.3475 59.2802 28.3033C59.289 28.2567 59.2934 28.2064 59.2934 28.1525C59.2934 28.0985 59.289 28.0482 59.2802 28.0016C59.2736 27.9575 59.2462 27.9195 59.1978 27.8876C59.1495 27.8532 59.0726 27.8263 58.9671 27.8066C58.8617 27.7895 58.7123 27.7809 58.5189 27.7809Z" fill="#F7FFF5"/>
<path d="M61.874 29.2746V25.6985C62.1486 25.6642 62.4364 25.6372 62.7374 25.6176C63.0385 25.6004 63.334 25.5918 63.624 25.5918H63.7558C64.0239 25.5918 64.2458 25.62 64.4216 25.6764C64.5952 25.7328 64.7347 25.8101 64.8401 25.9082C64.9456 26.0039 65.0192 26.1167 65.061 26.2467C65.1027 26.3767 65.1236 26.514 65.1236 26.6587V26.7654C65.1236 26.9224 65.0818 27.0647 64.9983 27.1922C64.9148 27.3198 64.7665 27.4154 64.5534 27.4792C64.6786 27.5111 64.7841 27.5528 64.8698 27.6043C64.9555 27.6533 65.0236 27.7097 65.0741 27.7735C65.1269 27.8373 65.1642 27.906 65.1862 27.9796C65.2082 28.0531 65.2191 28.1292 65.2191 28.2077V28.3144C65.2191 28.4591 65.1972 28.5964 65.1532 28.7264C65.1071 28.8564 65.0291 28.9692 64.9192 29.0649C64.8072 29.1606 64.6567 29.2366 64.4677 29.293C64.281 29.3519 64.0437 29.3813 63.7558 29.3813H63.624C63.334 29.3813 63.0385 29.3715 62.7374 29.3519C62.4364 29.3347 62.1486 29.3089 61.874 29.2746ZM63.6405 26.4454C63.524 26.4454 63.3834 26.449 63.2186 26.4564C63.0538 26.4638 62.8923 26.476 62.7342 26.4932V27.0855H63.5845C63.7778 27.0855 63.9272 27.0769 64.0327 27.0598C64.1381 27.0451 64.215 27.023 64.2634 26.9935C64.3117 26.9666 64.3392 26.9335 64.3458 26.8942C64.3546 26.855 64.359 26.812 64.359 26.7654C64.359 26.7237 64.3546 26.6833 64.3458 26.644C64.3348 26.6048 64.3062 26.5692 64.2601 26.5373C64.2139 26.5079 64.1425 26.4858 64.0459 26.4711C63.9492 26.4539 63.8141 26.4454 63.6405 26.4454ZM63.5845 27.9391H62.7342V28.4762C62.8923 28.4959 63.0538 28.5093 63.2186 28.5167C63.3834 28.5241 63.5295 28.5277 63.657 28.5277C63.8481 28.5277 63.9964 28.5192 64.1019 28.502C64.2095 28.4848 64.2897 28.4615 64.3425 28.4321C64.3952 28.4027 64.4271 28.3683 64.4381 28.3291C64.449 28.2898 64.4545 28.2494 64.4545 28.2077C64.4545 28.1709 64.4501 28.1353 64.4414 28.101C64.4304 28.0666 64.3985 28.0384 64.3458 28.0163C64.2908 27.9943 64.2041 27.9759 64.0854 27.9612C63.969 27.9464 63.802 27.9391 63.5845 27.9391Z" fill="#F7FFF5"/>
<path d="M69.2795 28.5425H68.8412L67.9414 27.1407V29.2746H67.0812V25.6985H67.9414L69.062 27.527L70.1792 25.6985H71.0394V29.2746H70.1792V27.1407L69.2795 28.5425Z" fill="#F7FFF5"/>
<path d="M72.5687 27.9943L74.2462 25.6985H75.1064V29.2746H74.2462V26.9788L72.5687 29.2746H71.7085V25.6985H72.5687V27.9943Z" fill="#F7FFF5"/>
<path d="M79.0251 26.8721V27.0855C79.0251 27.2646 79.0053 27.4314 78.9657 27.5859C78.9262 27.7404 78.8581 27.8753 78.7614 27.9906C78.6669 28.1059 78.5373 28.1966 78.3725 28.2628C78.2077 28.3315 78.0012 28.3659 77.7529 28.3659H77.6211C77.4475 28.3659 77.2794 28.3646 77.1168 28.3622C76.952 28.3573 76.7916 28.3413 76.6356 28.3144V29.2746H75.7755V25.6985C76.0501 25.6642 76.3379 25.6372 76.6389 25.6176C76.9399 25.6004 77.2355 25.5918 77.5255 25.5918H77.6573C77.9254 25.5918 78.1473 25.6261 78.3231 25.6948C78.4988 25.761 78.6384 25.8518 78.7416 25.9671C78.8471 26.0823 78.9207 26.2185 78.9624 26.3755C79.0042 26.5324 79.0251 26.698 79.0251 26.8721ZM77.4859 27.5123C77.6551 27.5123 77.7859 27.4988 77.8781 27.4718C77.9704 27.4449 78.0385 27.4081 78.0825 27.3615C78.1242 27.3124 78.1484 27.256 78.155 27.1922C78.1616 27.1284 78.1649 27.0573 78.1649 26.9788C78.1649 26.9003 78.1616 26.828 78.155 26.7618C78.1484 26.6955 78.1242 26.6403 78.0825 26.5962C78.0407 26.5496 77.977 26.5128 77.8913 26.4858C77.8056 26.4588 77.6815 26.4454 77.5189 26.4454C77.4178 26.4454 77.2849 26.449 77.1201 26.4564C76.9553 26.4638 76.7938 26.476 76.6356 26.4932V27.4645C76.785 27.4865 76.9268 27.5 77.0608 27.5049C77.1948 27.5099 77.3365 27.5123 77.4859 27.5123Z" fill="#F7FFF5"/>
<path d="M81.7012 27.9943L83.3787 25.6985H84.2389V29.2746H83.3787V26.9788L81.7012 29.2746H80.841V25.6985H81.7012V27.9943Z" fill="#F7FFF5"/>
<path d="M86.77 29.2746H85.9099V26.552H84.6674V25.6985H88.0191V26.552H86.77V29.2746Z" fill="#F7FFF5"/>
</svg>
