<svg width="40" height="40" viewBox="0 0 40 40" fill="none" xmlns="http://www.w3.org/2000/svg">
<path d="M6.95275 10.6701C6.66326 10.9524 6.50001 11.3397 6.50001 11.744L6.5 36.0718C6.5 36.9002 7.17157 37.5718 8 37.5718H32C32.8284 37.5718 33.5 36.9002 33.5 36.0718V7.07178C33.5 6.24334 32.8284 5.57178 32 5.57178H12.7911C12.3998 5.57178 12.0239 5.72469 11.7438 5.99788L6.95275 10.6701Z" stroke="#F4F3EE" stroke-width="2"/>
<path fill-rule="evenodd" clip-rule="evenodd" d="M25.7723 12.3155C25.9072 12.2861 26.0404 12.3716 26.0698 12.5065L26.5491 14.7048C26.5786 14.8397 26.493 14.9729 26.3581 15.0024C26.2232 15.0318 26.09 14.9463 26.0606 14.8114L25.7099 13.2027L21.8138 19.2715C21.5491 19.6839 20.9665 19.7358 20.6331 19.3767L17.4895 15.9912C17.3818 15.8753 17.195 15.8872 17.1029 16.0158L14.3779 19.8246C14.2976 19.9369 14.1414 19.9628 14.0291 19.8824C13.9168 19.8021 13.8909 19.6459 13.9713 19.5336L16.6963 15.7249C16.9724 15.339 17.533 15.3032 17.8559 15.651L20.9995 19.0364C21.1106 19.1561 21.3048 19.1388 21.3931 19.0014L25.2891 12.9326L23.6805 13.2833C23.5456 13.3128 23.4123 13.2272 23.3829 13.0923C23.3535 12.9574 23.439 12.8242 23.5739 12.7948L25.7723 12.3155Z" fill="#F4F3EE"/>
<path fill-rule="evenodd" clip-rule="evenodd" d="M10.7761 23.7579C10.7761 23.6199 10.8881 23.5079 11.0261 23.5079H25.5755C25.7136 23.5079 25.8255 23.6199 25.8255 23.7579C25.8255 23.896 25.7136 24.0079 25.5755 24.0079H11.0261C10.8881 24.0079 10.7761 23.896 10.7761 23.7579Z" fill="#F4F3EE"/>
<path fill-rule="evenodd" clip-rule="evenodd" d="M10.7761 26.7683C10.7761 26.6302 10.8881 26.5183 11.0261 26.5183H25.5755C25.7136 26.5183 25.8255 26.6302 25.8255 26.7683C25.8255 26.9064 25.7136 27.0183 25.5755 27.0183H11.0261C10.8881 27.0183 10.7761 26.9064 10.7761 26.7683Z" fill="#F4F3EE"/>
<path fill-rule="evenodd" clip-rule="evenodd" d="M10.7761 29.7717C10.7761 29.6337 10.8881 29.5217 11.0261 29.5217H25.5755C25.7136 29.5217 25.8255 29.6337 25.8255 29.7717C25.8255 29.9098 25.7136 30.0217 25.5755 30.0217H11.0261C10.8881 30.0217 10.7761 29.9098 10.7761 29.7717Z" fill="#F4F3EE"/>
</svg>
