<svg width="40" height="40" viewBox="0 0 40 40" fill="none" xmlns="http://www.w3.org/2000/svg">
<path d="M9.4704 9.91663C8.54847 9.91663 7.78465 10.6319 7.72417 11.5518L6.32167 32.8852C6.2553 33.8947 7.05623 34.75 8.0679 34.75H16.9607C17.9272 34.75 18.7107 33.9665 18.7107 33V28.0296C18.7107 27.0631 17.9272 26.2796 16.9607 26.2796H13.9772H13.1543C13.0763 26.2796 13.0304 26.2567 12.9999 26.2325C12.9644 26.2043 12.9322 26.1592 12.9149 26.1014C12.8975 26.0436 12.8996 25.9884 12.9137 25.9453C12.9258 25.9082 12.9515 25.8639 13.0167 25.8209L14.3839 24.9192L19.8376 21.4759C19.919 21.4245 20.0226 21.4244 20.1041 21.4756L25.8269 25.072L25.8305 25.0743L27 25.8187C27.0668 25.8612 27.093 25.9054 27.1056 25.9422C27.1202 25.9853 27.1229 26.041 27.1058 26.0995C27.0888 26.158 27.0566 26.2036 27.0212 26.232C26.9908 26.2564 26.9449 26.2796 26.8658 26.2796H26.2296H23.0781C22.1116 26.2796 21.3281 27.0631 21.3281 28.0296V33C21.3281 33.9665 22.1116 34.75 23.0781 34.75H31.9342C32.9445 34.75 33.7449 33.8969 33.6807 32.8886L32.3202 11.5553C32.2615 10.6339 31.497 9.91663 30.5738 9.91663H9.4704Z" stroke="#F4F3EE" stroke-width="1.5"/>
<path d="M26.7883 9.91346C26.7883 7.33615 23.7491 5.24683 19.9999 5.24683C16.2508 5.24683 13.2115 7.33615 13.2115 9.91346" stroke="#F4F3EE" stroke-width="1.5" stroke-linecap="round"/>
</svg>
