<svg width="40" height="40" viewBox="0 0 40 40" fill="none" xmlns="http://www.w3.org/2000/svg">
<path d="M22.4648 17.4562L22.2106 17.8868L22.5443 18.0838L22.8183 17.8098L22.4648 17.4562ZM20.9214 16.8708H20.4214V17.2832L20.8262 17.3617L20.9214 16.8708ZM23.4766 16.4444L23.8301 16.798L23.8301 16.798L23.4766 16.4444ZM24.013 16.4444L23.6594 16.798L23.6594 16.798L24.013 16.4444ZM24.8176 17.2491L24.4641 17.6026L24.4641 17.6026L24.8176 17.2491ZM24.8176 17.7855L24.4641 17.4319V17.4319L24.8176 17.7855ZM23.8825 18.7206L23.529 18.3671L23.221 18.675L23.4838 19.0223L23.8825 18.7206ZM24.777 20.7155L24.2864 20.8121L24.3658 21.2155H24.777V20.7155ZM24.777 22.6121V22.1121H24.3658L24.2864 22.5155L24.777 22.6121ZM24.0978 24.2986L23.6771 24.0284L23.4594 24.3673L23.7442 24.6521L24.0978 24.2986ZM25.0856 25.2864L24.732 25.6399L24.732 25.6399L25.0856 25.2864ZM23.7445 26.6274L23.391 26.981L23.7445 26.6274ZM22.7834 25.6663L23.1369 25.3128L22.8403 25.0161L22.4966 25.2567L22.7834 25.6663ZM20.9751 26.4461L20.8744 25.9563L20.4751 26.0384V26.4461H20.9751ZM19.0786 26.4619H19.5786V26.0472L19.171 25.9705L19.0786 26.4619ZM17.5253 25.8813L17.7777 25.4497L17.4446 25.2549L17.1718 25.5278L17.5253 25.8813ZM16.5234 26.8832L16.8769 27.2368L16.8769 27.2368L16.5234 26.8832ZM15.987 26.8832L15.6334 27.2368L15.6334 27.2368L15.987 26.8832ZM15.1823 26.0786L14.8288 26.4321H14.8288L15.1823 26.0786ZM15.1823 25.5422L14.8288 25.1886H14.8288L15.1823 25.5422ZM16.1023 24.6222L16.4558 24.9758L16.765 24.6666L16.4998 24.319L16.1023 24.6222ZM15.1963 22.6121L15.6869 22.5155L15.6075 22.1121H15.1963V22.6121ZM15.1963 20.7155V21.2155H15.6075L15.6869 20.8121L15.1963 20.7155ZM15.8859 19.0129L16.3056 19.2847L16.5254 18.9453L16.2395 18.6593L15.8859 19.0129ZM16.2554 16.7002L15.9018 17.0537L16.2554 16.7002ZM17.2056 17.6504L16.852 18.0039L17.1475 18.2994L17.4907 18.0611L17.2056 17.6504ZM19.0249 16.8761L19.1228 17.3664L19.5249 17.2861V16.8761H19.0249ZM22.7189 17.0256C22.201 16.7199 21.6273 16.4984 21.0166 16.38L20.8262 17.3617C21.3226 17.4579 21.7891 17.638 22.2106 17.8868L22.7189 17.0256ZM23.123 16.0909L22.1112 17.1026L22.8183 17.8098L23.8301 16.798L23.123 16.0909ZM24.3665 16.0909C24.0232 15.7475 23.4664 15.7475 23.123 16.0909L23.8301 16.798C23.783 16.8451 23.7066 16.8451 23.6594 16.798L24.3665 16.0909ZM25.1712 16.8955L24.3665 16.0909L23.6594 16.798L24.4641 17.6026L25.1712 16.8955ZM25.1712 18.139C25.5146 17.7956 25.5146 17.2389 25.1712 16.8955L24.4641 17.6026C24.417 17.5555 24.417 17.4791 24.4641 17.4319L25.1712 18.139ZM24.2361 19.0742L25.1712 18.139L24.4641 17.4319L23.529 18.3671L24.2361 19.0742ZM25.2676 20.619C25.1072 19.8044 24.7633 19.056 24.2812 18.4189L23.4838 19.0223C23.8766 19.5414 24.1561 20.1502 24.2864 20.8121L25.2676 20.619ZM26.1585 20.2155H24.777V21.2155H26.1585V20.2155ZM27.0378 21.0948C27.0378 20.6092 26.6441 20.2155 26.1585 20.2155V21.2155C26.0918 21.2155 26.0378 21.1615 26.0378 21.0948H27.0378ZM27.0378 22.2328V21.0948H26.0378V22.2328H27.0378ZM26.1585 23.1121C26.6441 23.1121 27.0378 22.7184 27.0378 22.2328H26.0378C26.0378 22.1661 26.0918 22.1121 26.1585 22.1121V23.1121ZM24.777 23.1121H26.1585V22.1121H24.777V23.1121ZM24.5185 24.5688C24.8767 24.011 25.135 23.3824 25.2676 22.7087L24.2864 22.5155C24.1786 23.0632 23.9687 23.5743 23.6771 24.0284L24.5185 24.5688ZM25.4392 24.9328L24.4513 23.945L23.7442 24.6521L24.732 25.6399L25.4392 24.9328ZM25.4392 26.1764C25.7825 25.833 25.7825 25.2762 25.4391 24.9328L24.732 25.6399C24.6849 25.5928 24.6849 25.5164 24.732 25.4692L25.4392 26.1764ZM24.6345 26.981L25.4392 26.1764L24.732 25.4692L23.9274 26.2739L24.6345 26.981ZM23.391 26.981C23.7344 27.3244 24.2911 27.3244 24.6345 26.981L23.9274 26.2739C23.9745 26.2268 24.0509 26.2268 24.0981 26.2739L23.391 26.981ZM22.4298 26.0199L23.391 26.981L24.0981 26.2739L23.1369 25.3128L22.4298 26.0199ZM21.0758 26.9358C21.8056 26.7858 22.4813 26.4882 23.0701 26.0759L22.4966 25.2567C22.017 25.5925 21.4675 25.8344 20.8744 25.9563L21.0758 26.9358ZM21.4751 27.8222V26.4461H20.4751V27.8222H21.4751ZM20.5958 28.7015C21.0814 28.7015 21.4751 28.3079 21.4751 27.8222H20.4751C20.4751 27.7556 20.5292 27.7015 20.5958 27.7015V28.7015ZM19.4579 28.7015H20.5958V27.7015H19.4579V28.7015ZM18.5786 27.8222C18.5786 28.3079 18.9722 28.7015 19.4579 28.7015V27.7015C19.5245 27.7015 19.5786 27.7556 19.5786 27.8222H18.5786ZM18.5786 26.4619V27.8222H19.5786V26.4619H18.5786ZM17.2729 26.3129C17.7943 26.6179 18.3718 26.8377 18.9861 26.9533L19.171 25.9705C18.6716 25.8766 18.2021 25.6979 17.7777 25.4497L17.2729 26.3129ZM17.1718 25.5278L16.1698 26.5297L16.8769 27.2368L17.8789 26.2349L17.1718 25.5278ZM16.1698 26.5297C16.217 26.4826 16.2934 26.4826 16.3405 26.5297L15.6334 27.2368C15.9768 27.5802 16.5336 27.5802 16.8769 27.2368L16.1698 26.5297ZM16.3405 26.5297L15.5359 25.725L14.8288 26.4321L15.6334 27.2368L16.3405 26.5297ZM15.5359 25.725C15.583 25.7722 15.583 25.8486 15.5359 25.8957L14.8288 25.1886C14.4854 25.532 14.4854 26.0888 14.8288 26.4321L15.5359 25.725ZM15.5359 25.8957L16.4558 24.9758L15.7487 24.2686L14.8288 25.1886L15.5359 25.8957ZM14.7057 22.7087C14.8674 23.5304 15.216 24.2847 15.7047 24.9254L16.4998 24.319C16.1016 23.7969 15.8183 23.1833 15.6869 22.5155L14.7057 22.7087ZM13.8415 23.1121H15.1963V22.1121H13.8415V23.1121ZM12.9622 22.2328C12.9622 22.7184 13.3558 23.1121 13.8415 23.1121V22.1121C13.9081 22.1121 13.9622 22.1661 13.9622 22.2328H12.9622ZM12.9622 21.0948V22.2328H13.9622V21.0948H12.9622ZM13.8415 20.2155C13.3558 20.2155 12.9622 20.6092 12.9622 21.0948H13.9622C13.9622 21.1615 13.9081 21.2155 13.8415 21.2155V20.2155ZM15.1963 20.2155H13.8415V21.2155H15.1963V20.2155ZM15.4663 18.741C15.1021 19.3032 14.8397 19.938 14.7057 20.619L15.6869 20.8121C15.7958 20.2586 16.009 19.7425 16.3056 19.2847L15.4663 18.741ZM14.5608 18.3948L15.5324 19.3664L16.2395 18.6593L15.2679 17.6877L14.5608 18.3948ZM14.5608 17.1513C14.2174 17.4947 14.2174 18.0514 14.5608 18.3948L15.2679 17.6877C15.315 17.7348 15.315 17.8113 15.2679 17.8584L14.5608 17.1513ZM15.3654 16.3466L14.5608 17.1513L15.2679 17.8584L16.0725 17.0537L15.3654 16.3466ZM16.6089 16.3466C16.2656 16.0032 15.7088 16.0032 15.3654 16.3466L16.0725 17.0537C16.0254 17.1009 15.949 17.1009 15.9018 17.0537L16.6089 16.3466ZM17.5591 17.2968L16.6089 16.3466L15.9018 17.0537L16.852 18.0039L17.5591 17.2968ZM18.9269 16.3858C18.193 16.5324 17.5132 16.8282 16.9204 17.2397L17.4907 18.0611C17.9735 17.7259 18.5264 17.4856 19.1228 17.3664L18.9269 16.3858ZM18.5249 15.5054V16.8761H19.5249V15.5054H18.5249ZM19.4042 14.6261C18.9185 14.6261 18.5249 15.0198 18.5249 15.5054H19.5249C19.5249 15.5721 19.4708 15.6261 19.4042 15.6261V14.6261ZM20.5421 14.6261H19.4042V15.6261H20.5421V14.6261ZM21.4214 15.5054C21.4214 15.0198 21.0277 14.6261 20.5421 14.6261V15.6261C20.4755 15.6261 20.4214 15.5721 20.4214 15.5054H21.4214ZM21.4214 16.8708V15.5054H20.4214V16.8708H21.4214ZM21.4469 21.6638C21.4469 22.4703 20.7931 23.1242 19.9866 23.1242V24.1242C21.3454 24.1242 22.4469 23.0226 22.4469 21.6638H21.4469ZM19.9866 20.2035C20.7931 20.2035 21.4469 20.8573 21.4469 21.6638H22.4469C22.4469 20.305 21.3454 19.2035 19.9866 19.2035V20.2035ZM18.5263 21.6638C18.5263 20.8573 19.1801 20.2035 19.9866 20.2035V19.2035C18.6278 19.2035 17.5263 20.305 17.5263 21.6638H18.5263ZM19.9866 23.1242C19.1801 23.1242 18.5263 22.4703 18.5263 21.6638H17.5263C17.5263 23.0226 18.6278 24.1242 19.9866 24.1242V23.1242Z" fill="#F4F3EE"/>
<rect x="3.65784" y="7.5459" width="32.6843" height="24.9081" rx="1" stroke="#F4F3EE" stroke-width="1.5"/>
<line x1="3.84241" y1="11.3834" x2="36.3426" y2="11.3834" stroke="#F4F3EE" stroke-width="1.5"/>
<line x1="6.11401" y1="14.376" x2="13.1485" y2="14.376" stroke="#F4F3EE" stroke-width="1.5" stroke-linecap="round"/>
<path d="M6.26135 17.4893H10.8821" stroke="#F4F3EE" stroke-width="1.5" stroke-linecap="round"/>
</svg>
