<svg width="130" height="100" viewBox="0 0 130 100" fill="none" xmlns="http://www.w3.org/2000/svg">
<g clip-path="url(#clip0_238_10949)">
<path d="M127.028 11.7607H2.97134C1.5354 11.7607 0.371338 12.9129 0.371338 14.3342V85.1151C0.371338 86.5364 1.5354 87.6886 2.97134 87.6886H127.028C128.464 87.6886 129.628 86.5364 129.628 85.1151V14.3342C129.628 12.9129 128.464 11.7607 127.028 11.7607Z" fill="white" stroke="#2C9C48" stroke-linejoin="round"/>
<path d="M50.89 25.9788H79.5363C80.837 25.9788 81.938 26.931 82.1125 28.2073L87.9009 70.5518C88.1126 72.0961 86.8988 73.4704 85.3246 73.4704H44.7067C43.1227 73.4704 41.9069 72.0804 42.1334 70.5287L48.3168 28.1842C48.5017 26.9182 49.5977 25.9788 50.89 25.9788Z" stroke="#2C9C48"/>
<path d="M10.0834 23.0277C10.7972 23.0277 11.3759 22.455 11.3759 21.7484C11.3759 21.0419 10.7972 20.4692 10.0834 20.4692C9.36965 20.4692 8.79102 21.0419 8.79102 21.7484C8.79102 22.455 9.36965 23.0277 10.0834 23.0277Z" fill="#F6851F" fill-opacity="0.6"/>
<path d="M14.58 23.0277C15.2938 23.0277 15.8724 22.455 15.8724 21.7484C15.8724 21.0419 15.2938 20.4692 14.58 20.4692C13.8662 20.4692 13.2876 21.0419 13.2876 21.7484C13.2876 22.455 13.8662 23.0277 14.58 23.0277Z" fill="#F6851F" fill-opacity="0.6"/>
<path d="M19.0768 23.0277C19.7906 23.0277 20.3693 22.455 20.3693 21.7484C20.3693 21.0419 19.7906 20.4692 19.0768 20.4692C18.3631 20.4692 17.7844 21.0419 17.7844 21.7484C17.7844 22.455 18.3631 23.0277 19.0768 23.0277Z" fill="#F6851F" fill-opacity="0.6"/>
<path d="M73.1983 29.6686C73.1983 25.1868 69.5278 21.5537 64.9999 21.5537C60.472 21.5537 56.8015 25.1868 56.8015 29.6686" stroke="#2C9C48" stroke-linecap="round"/>
<path d="M98.4851 22.6601H122.626" stroke="#2C9C48" stroke-linecap="round"/>
<path d="M98.4851 26.7047H122.626" stroke="#2C9C48" stroke-linecap="round"/>
<path d="M98.4851 30.4073H122.626" stroke="#2C9C48" stroke-linecap="round"/>
<path d="M122.999 16.8402H98.0178C96.3767 16.8402 95.0464 18.157 95.0464 19.7814V53.6235C95.0464 55.2479 96.3767 56.5647 98.0178 56.5647H122.999C124.64 56.5647 125.97 55.2479 125.97 53.6235V19.7814C125.97 18.157 124.64 16.8402 122.999 16.8402Z" fill="#F6851F" fill-opacity="0.6"/>
</g>
<defs>
<clipPath id="clip0_238_10949">
<rect width="130" height="100" fill="white"/>
</clipPath>
</defs>
</svg>
