<svg width="90" height="70" viewBox="0 0 90 70" fill="none" xmlns="http://www.w3.org/2000/svg">
<g clip-path="url(#clip0_238_10522)">
<path d="M87.9429 8.23245H2.0572C1.06309 8.23245 0.257202 9.039 0.257202 10.0339V59.5805C0.257202 60.5755 1.06309 61.382 2.0572 61.382H87.9429C88.937 61.382 89.7429 60.5755 89.7429 59.5805V10.0339C89.7429 9.039 88.937 8.23245 87.9429 8.23245Z" fill="white" stroke="#2C9C48" stroke-linejoin="round"/>
<path d="M35.2315 18.1852H55.0635C55.964 18.1852 56.7262 18.8517 56.8471 19.7451L60.8544 49.3862C61.001 50.4673 60.1606 51.4293 59.0708 51.4293H30.9507C29.8541 51.4293 29.0124 50.4563 29.1692 49.3701L33.45 19.7289C33.578 18.8428 34.3368 18.1852 35.2315 18.1852Z" stroke="#2C9C48"/>
<path d="M6.98081 16.1194C7.47497 16.1194 7.87557 15.7185 7.87557 15.2239C7.87557 14.7294 7.47497 14.3284 6.98081 14.3284C6.48665 14.3284 6.08606 14.7294 6.08606 15.2239C6.08606 15.7185 6.48665 16.1194 6.98081 16.1194Z" fill="#F6851F" fill-opacity="0.6"/>
<path d="M10.0939 16.1194C10.588 16.1194 10.9886 15.7185 10.9886 15.2239C10.9886 14.7294 10.588 14.3284 10.0939 14.3284C9.59969 14.3284 9.1991 14.7294 9.1991 15.2239C9.1991 15.7185 9.59969 16.1194 10.0939 16.1194Z" fill="#F6851F" fill-opacity="0.6"/>
<path d="M13.207 16.1194C13.7012 16.1194 14.1018 15.7185 14.1018 15.2239C14.1018 14.7294 13.7012 14.3284 13.207 14.3284C12.7129 14.3284 12.3123 14.7294 12.3123 15.2239C12.3123 15.7185 12.7129 16.1194 13.207 16.1194Z" fill="#F6851F" fill-opacity="0.6"/>
<path d="M50.6758 20.768C50.6758 17.6308 48.1347 15.0876 45 15.0876C41.8654 15.0876 39.3242 17.6308 39.3242 20.768" stroke="#2C9C48" stroke-linecap="round"/>
<path d="M68.1819 15.8621H84.8946" stroke="#2C9C48" stroke-linecap="round"/>
<path d="M68.1819 18.6933H84.8946" stroke="#2C9C48" stroke-linecap="round"/>
<path d="M68.1819 21.2852H84.8946" stroke="#2C9C48" stroke-linecap="round"/>
<path d="M85.1531 11.7881H67.8584C66.7223 11.7881 65.8013 12.7099 65.8013 13.847V37.5365C65.8013 38.6735 66.7223 39.5953 67.8584 39.5953H85.1531C86.2893 39.5953 87.2103 38.6735 87.2103 37.5365V13.847C87.2103 12.7099 86.2893 11.7881 85.1531 11.7881Z" fill="#F6851F" fill-opacity="0.6"/>
</g>
<defs>
<clipPath id="clip0_238_10522">
<rect width="90" height="70" fill="white"/>
</clipPath>
</defs>
</svg>
