<svg width="130" height="100" viewBox="0 0 130 100" fill="none" xmlns="http://www.w3.org/2000/svg">
<path d="M126.762 11.8141H3.40973C2.01456 11.8141 0.883545 12.9484 0.883545 14.3475V85.6526C0.883545 87.0518 2.01456 88.186 3.40973 88.186H126.762C128.157 88.186 129.288 87.0518 129.288 85.6526V14.3475C129.288 12.9484 128.157 11.8141 126.762 11.8141Z" fill="white" stroke="#2C9C48" stroke-width="1.15987" stroke-linejoin="round"/>
<path d="M21.8985 24.7293H6.67281C5.04106 24.7293 3.71826 26.0559 3.71826 27.6923V82.2552C3.71826 83.8916 5.04106 85.2182 6.67281 85.2182H21.8985C23.5302 85.2182 24.853 83.8916 24.853 82.2552V27.6923C24.853 26.0559 23.5302 24.7293 21.8985 24.7293Z" fill="#F6851F" fill-opacity="0.6"/>
<path d="M1.45972 21.9414H129.716" stroke="#2C9C48" stroke-width="1.15987"/>
<path d="M26.5669 87.577V22.3707" stroke="#2C9C48" stroke-width="1.15987"/>
<path d="M4.14673 28.4915H24.4248" stroke="#2C9C48" stroke-width="1.15987" stroke-linecap="round"/>
<path d="M4.14673 34.175H24.4248" stroke="#2C9C48" stroke-width="1.15987" stroke-linecap="round"/>
<path d="M4.14673 39.8584H24.4248" stroke="#2C9C48" stroke-width="1.15987" stroke-linecap="round"/>
<path d="M4.14673 45.5479H24.4248" stroke="#2C9C48" stroke-width="1.15987" stroke-linecap="round"/>
<path d="M59.271 64.0356C58.042 64.0356 56.9062 63.8327 55.864 63.4271C54.8216 63.0059 53.9193 62.4207 53.1569 61.6719C52.3946 60.923 51.7956 60.0415 51.36 59.0274C50.94 58.0133 50.73 56.9056 50.73 55.7042C50.73 54.5029 50.94 53.3951 51.36 52.381C51.7956 51.3669 52.3946 50.4854 53.1569 49.7365C53.9348 48.9876 54.8449 48.4104 55.8872 48.0047C56.9296 47.5835 58.0653 47.3729 59.2943 47.3729C60.4767 47.3729 61.589 47.5757 62.6314 47.9813C63.6738 48.3713 64.5527 48.9642 65.2684 49.7599L64.1716 50.8599C63.5026 50.1734 62.7636 49.6819 61.9547 49.3855C61.1456 49.0735 60.2744 48.9174 59.341 48.9174C58.3609 48.9174 57.4508 49.089 56.6106 49.4323C55.7706 49.7599 55.0393 50.2358 54.417 50.8599C53.7948 51.4683 53.3047 52.186 52.9469 53.0129C52.6046 53.8242 52.4335 54.7213 52.4335 55.7042C52.4335 56.6871 52.6046 57.592 52.9469 58.4189C53.3047 59.2302 53.7948 59.9479 54.417 60.5719C55.0393 61.1805 55.7706 61.6563 56.6106 61.9995C57.4508 62.3272 58.3609 62.491 59.341 62.491C60.2744 62.491 61.1456 62.335 61.9547 62.0229C62.7636 61.7109 63.5026 61.2116 64.1716 60.5251L65.2684 61.625C64.5527 62.4207 63.6738 63.0214 62.6314 63.4271C61.589 63.8327 60.4689 64.0356 59.271 64.0356ZM68.9497 63.8951V47.5133H75.064C76.4482 47.5133 77.6381 47.7395 78.6338 48.1919C79.6295 48.6288 80.3925 49.2685 80.9214 50.111C81.4658 50.9379 81.7376 51.9442 81.7376 53.1299C81.7376 54.2845 81.4658 55.283 80.9214 56.1255C80.3925 56.9524 79.6295 57.592 78.6338 58.0445C77.6381 58.4813 76.4482 58.6997 75.064 58.6997H69.9065L70.6766 57.9041V63.8951H68.9497ZM80.1044 63.8951L75.9038 57.9509H77.7711L81.9946 63.8951H80.1044ZM70.6766 58.0445L69.9065 57.2254H75.0167C76.6506 57.2254 77.8871 56.8665 78.7276 56.1488C79.583 55.4312 80.0114 54.4249 80.0114 53.1299C80.0114 51.8193 79.583 50.8053 78.7276 50.0876C77.8871 49.3699 76.6506 49.011 75.0167 49.011H69.9065L70.6766 48.1919V58.0445ZM85.8134 63.8951V47.5133H87.2375L94.7051 60.2911H93.9583L101.356 47.5133H102.779V63.8951H101.122V50.111H101.519L94.7051 61.8123H93.8881L87.0269 50.111H87.4709V63.8951H85.8134Z" fill="#2C9C48"/>
</svg>
