<svg width="90" height="70" viewBox="0 0 90 70" fill="none" xmlns="http://www.w3.org/2000/svg">
<g clip-path="url(#clip0_238_10534)">
<path d="M87.7581 8.2699H2.36047C1.39458 8.2699 0.611572 9.06386 0.611572 10.0433V59.9568C0.611572 60.9362 1.39458 61.7302 2.36047 61.7302H87.7581C88.724 61.7302 89.507 60.9362 89.507 59.9568V10.0433C89.507 9.06386 88.724 8.2699 87.7581 8.2699Z" fill="white" stroke="#2C9C48" stroke-width="1.15987" stroke-linejoin="round"/>
<path d="M15.1604 17.3105H4.61955C3.48988 17.3105 2.5741 18.2391 2.5741 19.3846V57.5786C2.5741 58.7241 3.48988 59.6527 4.61955 59.6527H15.1604C16.2901 59.6527 17.2058 58.7241 17.2058 57.5786V19.3846C17.2058 18.2391 16.2901 17.3105 15.1604 17.3105Z" fill="#F6851F" fill-opacity="0.6"/>
<path d="M1.0105 15.359H89.8036" stroke="#2C9C48" stroke-width="1.15987"/>
<path d="M18.3923 61.3039V15.6595" stroke="#2C9C48" stroke-width="1.15987"/>
<path d="M2.87073 19.944H16.9094" stroke="#2C9C48" stroke-width="1.15987" stroke-linecap="round"/>
<path d="M2.87073 23.9225H16.9094" stroke="#2C9C48" stroke-width="1.15987" stroke-linecap="round"/>
<path d="M2.87073 27.9008H16.9094" stroke="#2C9C48" stroke-width="1.15987" stroke-linecap="round"/>
<path d="M2.87073 31.8835H16.9094" stroke="#2C9C48" stroke-width="1.15987" stroke-linecap="round"/>
<path d="M41.0337 44.8249C40.1829 44.8249 39.3966 44.6829 38.675 44.399C37.9534 44.1041 37.3287 43.6945 36.8009 43.1703C36.2731 42.6461 35.8585 42.029 35.5569 41.3192C35.2661 40.6093 35.1207 39.8339 35.1207 38.9929C35.1207 38.152 35.2661 37.3766 35.5569 36.6667C35.8585 35.9568 36.2731 35.3398 36.8009 34.8156C37.3394 34.2913 37.9695 33.8872 38.6911 33.6033C39.4128 33.3084 40.199 33.161 41.0499 33.161C41.8685 33.161 42.6385 33.303 43.3602 33.5869C44.0818 33.8599 44.6903 34.2749 45.1858 34.8319L44.4265 35.6019C43.9633 35.1214 43.4517 34.7773 42.8917 34.5698C42.3316 34.3514 41.7284 34.2422 41.0822 34.2422C40.4037 34.2422 39.7736 34.3623 39.192 34.6026C38.6104 34.8319 38.1041 35.165 37.6733 35.6019C37.2425 36.0278 36.9032 36.5302 36.6555 37.109C36.4186 37.6769 36.3001 38.3049 36.3001 38.9929C36.3001 39.681 36.4186 40.3144 36.6555 40.8932C36.9032 41.4611 37.2425 41.9635 37.6733 42.4003C38.1041 42.8263 38.6104 43.1594 39.192 43.3996C39.7736 43.629 40.4037 43.7437 41.0822 43.7437C41.7284 43.7437 42.3316 43.6345 42.8917 43.416C43.4517 43.1976 43.9633 42.8481 44.4265 42.3676L45.1858 43.1375C44.6903 43.6945 44.0818 44.115 43.3602 44.399C42.6385 44.6829 41.8631 44.8249 41.0337 44.8249ZM47.7344 44.7266V33.2593H51.9674C52.9256 33.2593 53.7495 33.4176 54.4388 33.7343C55.1281 34.0402 55.6563 34.4879 56.0225 35.0777C56.3993 35.6565 56.5875 36.3609 56.5875 37.1909C56.5875 37.9991 56.3993 38.6981 56.0225 39.2878C55.6563 39.8666 55.1281 40.3144 54.4388 40.6311C53.7495 40.9369 52.9256 41.0898 51.9674 41.0898H48.3968L48.9299 40.5328V44.7266H47.7344ZM55.4569 44.7266L52.5488 40.5656H53.8415L56.7655 44.7266H55.4569ZM48.9299 40.6311L48.3968 40.0578H51.9346C53.0658 40.0578 53.9218 39.8066 54.5037 39.3042C55.0959 38.8018 55.3925 38.0974 55.3925 37.1909C55.3925 36.2735 55.0959 35.5637 54.5037 35.0613C53.9218 34.5589 53.0658 34.3077 51.9346 34.3077H48.3968L48.9299 33.7343V40.6311ZM59.4092 44.7266V33.2593H60.3951L65.565 42.2038H65.048L70.1693 33.2593H71.1547V44.7266H70.0078V35.0777H70.2823L65.565 43.2686H64.9995L60.2494 35.0777H60.5567V44.7266H59.4092Z" fill="#2C9C48"/>
</g>
<defs>
<clipPath id="clip0_238_10534">
<rect width="90" height="70" fill="white"/>
</clipPath>
</defs>
</svg>
