<svg width="25" height="25" viewBox="0 0 25 25" fill="none" xmlns="http://www.w3.org/2000/svg">
<path d="M17.6685 16.1734C17.6685 16.4495 17.8924 16.6734 18.1685 16.6734C18.4447 16.6734 18.6685 16.4495 18.6685 16.1734H17.6685ZM6.33154 16.1734C6.33154 16.4495 6.5554 16.6734 6.83154 16.6734C7.10769 16.6734 7.33154 16.4495 7.33154 16.1734H6.33154ZM7.33154 16.1734V10.1066H6.33154V16.1734H7.33154ZM17.6685 10.1066V13.8308H18.6685V10.1066H17.6685ZM17.6685 13.8308V16.1734H18.6685V13.8308H17.6685ZM12.5 4.93811C15.3545 4.93811 17.6685 7.25212 17.6685 10.1066H18.6685C18.6685 6.69984 15.9068 3.93811 12.5 3.93811V4.93811ZM12.5 3.93811C9.09327 3.93811 6.33154 6.69984 6.33154 10.1066H7.33154C7.33154 7.25212 9.64556 4.93811 12.5 4.93811V3.93811Z" fill="#F7FFF5"/>
<path d="M6.8985 16.1733H5.67462C4.73222 16.1733 3.96826 16.9373 3.96826 17.8797V17.8797C3.96826 18.8221 4.73222 19.5861 5.67462 19.5861H19.3255C20.2679 19.5861 21.0318 18.8221 21.0318 17.8797V17.8797C21.0318 16.9373 20.2679 16.1733 19.3255 16.1733H18.0099" stroke="#F7FFF5"/>
<circle cx="12.5" cy="3.43811" r="0.5" stroke="#F7FFF5"/>
<path d="M14.1909 21.0619C14.1909 21.8903 13.5193 22.5619 12.6909 22.5619C11.8625 22.5619 11.1909 21.8903 11.1909 21.0619C12.6909 21.0619 11.8625 21.0619 12.6909 21.0619C13.5193 21.0619 12.6909 21.0619 14.1909 21.0619Z" stroke="#F7FFF5"/>
</svg>
