<svg width="130" height="100" viewBox="0 0 130 100" fill="none" xmlns="http://www.w3.org/2000/svg">
<path d="M110.382 14.7378H12.0848C10.7394 14.7378 9.64868 15.8254 9.64868 17.167V88.6819C9.64868 90.0235 10.7394 91.1111 12.0848 91.1111H110.382C111.728 91.1111 112.818 90.0235 112.818 88.6819V17.167C112.818 15.8254 111.728 14.7378 110.382 14.7378Z" fill="white" stroke="#2C9C48" stroke-width="1.51472"/>
<path d="M67.4529 15.2328H51.0857V39.3597H67.4529V15.2328Z" fill="#F6851F" fill-opacity="0.6"/>
<path d="M14.8918 67.5801H38.7711" stroke="#2C9C48" stroke-width="1.51472" stroke-linecap="round"/>
<path d="M14.8914 72.3814H34.8171" stroke="#2C9C48" stroke-width="1.51472" stroke-linecap="round"/>
<path d="M14.7712 77.1272L31.022 77.1475" stroke="#2C9C48" stroke-width="1.51472" stroke-linecap="round"/>
<path d="M117.928 8.88889H79.2119C77.869 8.88889 76.7803 9.96751 76.7803 11.2981V67.2205C76.7803 68.551 77.869 69.6296 79.2119 69.6296H117.928C119.271 69.6296 120.36 68.551 120.36 67.2205V11.2981C120.36 9.96751 119.271 8.88889 117.928 8.88889Z" fill="white" stroke="#2C9C48" stroke-width="1.51472"/>
<path d="M80.5237 17.3387H104.416" stroke="#2C9C48" stroke-width="1.51472"/>
<path d="M80.5457 23.0238H104.438" stroke="#2C9C48" stroke-width="1.51472"/>
<path d="M80.5356 28.6817H104.428" stroke="#2C9C48" stroke-width="1.51472"/>
<path d="M80.5457 34.3629H104.438" stroke="#2C9C48" stroke-width="1.51472"/>
<path d="M80.5457 40.0288H104.438" stroke="#2C9C48" stroke-width="1.51472"/>
<path d="M80.5605 45.7132H104.453" stroke="#2C9C48" stroke-width="1.51472"/>
<path d="M112.672 15.126L113.968 17.7764L115.356 15.126" stroke="#2C9C48" stroke-width="1.51472" stroke-linecap="round" stroke-linejoin="round"/>
<path d="M112.672 20.3734L113.968 23.0238L115.356 20.3734" stroke="#2C9C48" stroke-width="1.51472" stroke-linecap="round" stroke-linejoin="round"/>
<path d="M112.672 26.0313L113.968 28.6817L115.356 26.0313" stroke="#2C9C48" stroke-width="1.51472" stroke-linecap="round" stroke-linejoin="round"/>
<path d="M112.672 31.6888L113.968 34.3392L115.356 31.6888" stroke="#2C9C48" stroke-width="1.51472" stroke-linecap="round" stroke-linejoin="round"/>
<path d="M112.672 37.3463L113.968 39.9968L115.356 37.3463" stroke="#2C9C48" stroke-width="1.51472" stroke-linecap="round" stroke-linejoin="round"/>
<path d="M112.672 43.0039L113.968 45.6543L115.356 43.0039" stroke="#2C9C48" stroke-width="1.51472" stroke-linecap="round" stroke-linejoin="round"/>
</svg>
