<svg width="130" height="100" viewBox="0 0 130 100" fill="none" xmlns="http://www.w3.org/2000/svg">
<path d="M33.2661 64.4091L24.1882 64.246C22.7525 64.2203 21.5675 65.3514 21.5414 66.7724L21.0451 93.8421C21.019 95.2632 22.1617 96.4361 23.5975 96.4619L32.6754 96.625C34.1111 96.6508 35.2961 95.5197 35.3221 94.0986L35.8185 67.0289C35.8446 65.6079 34.7018 64.4349 33.2661 64.4091Z" fill="#2C9C48" fill-opacity="0.5" stroke="#2C9C48"/>
<path d="M35.833 70.3512C40.4571 67.1115 52.8859 62.5323 64.9135 70.4046C65.3989 70.7223 65.9639 70.9151 66.5455 70.9331L84.4771 71.4898C84.6925 71.4965 84.9057 71.5232 85.1107 71.5879C87.2591 72.265 90.928 74.7522 92.3105 80.2441C92.7347 81.9294 91.2891 83.4022 89.5352 83.3522L68.671 82.7566" stroke="#2C9C48" stroke-linecap="round" stroke-linejoin="round"/>
<path d="M114.59 74.3353L114.281 74.1323L114.59 74.3353ZM65.6539 96.3544L65.7647 96.0036L65.7608 96.0022L65.6539 96.3544ZM46.9604 90.797L47.0672 90.4448L47.0512 90.4397L47.0349 90.4367L46.9604 90.797ZM115.271 72.7599L114.912 72.6673L115.271 72.7599ZM87.2308 94.5081L87.0109 94.2117L87.2308 94.5081ZM86.9983 94.6566L86.8207 94.3338L86.9983 94.6566ZM115.39 70.6917L115.046 70.8309L115.39 70.6917ZM115.442 71.0778L115.07 71.0736L115.442 71.0778ZM91.702 78.2588C95.2031 76.4684 100.873 73.9904 105.801 72.2983C108.268 71.4514 110.531 70.8078 112.238 70.5416C113.095 70.4081 113.785 70.374 114.28 70.4442C114.79 70.5164 114.983 70.6791 115.046 70.8309L115.733 70.5525C115.518 70.0295 114.977 69.8 114.386 69.7164C113.781 69.6308 113.006 69.6775 112.122 69.8153C110.35 70.0917 108.037 70.7524 105.558 71.6036C100.594 73.3075 94.8919 75.7992 91.3611 77.6059L91.702 78.2588ZM114.281 74.1323C114.296 74.1095 114.306 74.1014 114.289 74.1184C114.278 74.1294 114.26 74.147 114.232 74.1713C114.178 74.2191 114.1 74.2845 113.997 74.3676C113.794 74.5331 113.505 74.7595 113.141 75.0389C112.413 75.5978 111.393 76.3647 110.174 77.272C107.735 79.0867 104.504 81.4617 101.227 83.8595C94.6735 88.6544 87.9402 93.5382 87.0109 94.2117L87.4499 94.8051C88.38 94.1309 95.1132 89.2463 101.668 84.4507C104.946 82.0529 108.179 79.6764 110.62 77.8603C111.84 76.9522 112.864 76.1823 113.596 75.6198C113.963 75.3389 114.257 75.1081 114.469 74.936C114.574 74.8507 114.662 74.7772 114.727 74.7191C114.76 74.6904 114.79 74.6625 114.815 74.6375C114.836 74.6176 114.871 74.5809 114.9 74.5382L114.281 74.1323ZM86.8207 94.3338C85.5906 94.9956 82.2945 96.0264 78.2935 96.5831C74.2991 97.1382 69.6685 97.2103 65.7647 96.0036L65.5432 96.7051C69.5963 97.9581 74.3511 97.8735 78.3967 97.311C82.4349 96.7492 85.832 95.7022 87.1751 94.9794L86.8207 94.3338ZM65.7608 96.0022L47.0672 90.4448L46.8536 91.1485L65.5471 96.7066L65.7608 96.0022ZM47.0349 90.4367C45.0665 90.0382 39.7378 90.0522 35.0918 93.0559L35.498 93.6713C39.9497 90.7934 45.0705 90.7897 46.886 91.1566L47.0349 90.4367ZM115.07 71.0736C115.066 71.4384 115.04 72.1831 114.912 72.6673L115.631 72.8525C115.784 72.27 115.809 71.4406 115.813 71.0819L115.07 71.0736ZM114.912 72.6673C114.826 72.997 114.771 73.2012 114.689 73.4054C114.608 73.6044 114.494 73.8139 114.281 74.1323L114.9 74.5382C115.13 74.1963 115.271 73.9411 115.378 73.6801C115.482 73.4235 115.548 73.1703 115.631 72.8525L114.912 72.6673ZM87.0109 94.2117C86.9403 94.2632 86.8891 94.297 86.8207 94.3338L87.1751 94.9794C87.2813 94.9228 87.3615 94.8691 87.4499 94.8051L87.0109 94.2117ZM115.046 70.8309C115.064 70.8749 115.072 70.9424 115.07 71.0736L115.813 71.0819C115.814 70.9534 115.815 70.7489 115.733 70.5525L115.046 70.8309Z" fill="#2C9C48"/>
<path d="M106.886 2.48132H31.4032C29.9673 2.48132 28.8032 3.63353 28.8032 5.05485V49.5644C28.8032 50.9857 29.9673 52.1379 31.4032 52.1379H106.886C108.322 52.1379 109.486 50.9857 109.486 49.5644V5.05485C109.486 3.63353 108.322 2.48132 106.886 2.48132Z" fill="white" stroke="#2C9C48" stroke-linejoin="round"/>
<path d="M39.5195 12.0852L60.3833 11.9809" stroke="#4CB853" stroke-linecap="round"/>
<path d="M39.5215 14.6364H57.4801" stroke="#4CB853" stroke-linecap="round"/>
<path d="M49.1116 34.2905L45.7681 24.4744H46.8448L49.9758 33.7156H49.4374L52.6676 24.4744H53.631L56.8187 33.7156H56.3086L59.4679 24.4744H60.4738L57.1303 34.2905H56.0253L52.9793 25.5261H53.2626L50.2025 34.2905H49.1116ZM64.8562 34.2905L61.5127 24.4744H62.5894L65.7204 33.7156H65.182L68.4122 24.4744H69.3755L72.5632 33.7156H72.0532L75.2122 24.4744H76.2187L72.8749 34.2905H71.7698L68.7239 25.5261H69.0072L65.9471 34.2905H64.8562ZM80.6009 34.2905L77.2573 24.4744H78.3337L81.4648 33.7156H80.927L84.1569 24.4744H85.1204L88.308 33.7156H87.7977L90.957 24.4744H91.9629L88.6193 34.2905H87.5146L84.4682 25.5261H84.7519L81.6914 34.2905H80.6009Z" fill="#4CB853"/>
<path d="M49.1114 34.2905L48.7595 34.408C48.8104 34.5575 48.952 34.6582 49.1114 34.6582V34.2905ZM45.7679 24.4743V24.1067C45.6483 24.1067 45.536 24.1637 45.4662 24.2599C45.3965 24.356 45.3777 24.4796 45.4159 24.5918L45.7679 24.4743ZM46.8447 24.4743L47.1968 24.3574C47.146 24.2076 47.0042 24.1067 46.8447 24.1067V24.4743ZM49.9757 33.7156V34.0832C50.0951 34.0832 50.2074 34.0263 50.2771 33.9303C50.3469 33.8343 50.3658 33.7109 50.3278 33.5987L49.9757 33.7156ZM49.4372 33.7156L49.0862 33.5954C49.0469 33.7078 49.0651 33.832 49.1347 33.9289C49.2044 34.0257 49.3171 34.0832 49.4372 34.0832V33.7156ZM52.6674 24.4743V24.1067C52.5091 24.1067 52.3682 24.206 52.3164 24.3541L52.6674 24.4743ZM53.6308 24.4743L53.9823 24.3556C53.931 24.2067 53.7897 24.1067 53.6308 24.1067V24.4743ZM56.8185 33.7156V34.0832C56.9383 34.0832 57.0509 34.026 57.1206 33.9295C57.1903 33.8329 57.2087 33.7091 57.17 33.5968L56.8185 33.7156ZM56.3084 33.7156L55.9566 33.5977C55.9182 33.71 55.9369 33.8336 56.0066 33.9299C56.0764 34.0262 56.1888 34.0832 56.3084 34.0832V33.7156ZM59.4677 24.4743V24.1067C59.3085 24.1067 59.167 24.2072 59.1159 24.3565L59.4677 24.4743ZM60.4736 24.4743L60.8256 24.5918C60.8639 24.4796 60.8451 24.356 60.7753 24.2599C60.7056 24.1637 60.5932 24.1067 60.4736 24.1067V24.4743ZM57.1301 34.2905V34.6582C57.2895 34.6582 57.4312 34.5575 57.4821 34.408L57.1301 34.2905ZM56.0251 34.2905L55.6739 34.4101C55.7254 34.5585 55.8665 34.6582 56.0251 34.6582V34.2905ZM52.9791 25.5261V25.1585C52.8591 25.1585 52.7464 25.2158 52.6768 25.3126C52.6071 25.4093 52.5888 25.5333 52.6279 25.6457L52.9791 25.5261ZM53.2624 25.5261L53.6135 25.6462C53.6527 25.5338 53.6347 25.4096 53.565 25.3127C53.4952 25.216 53.3826 25.1585 53.2624 25.1585V25.5261ZM50.2023 34.2905V34.6582C50.3607 34.6582 50.5016 34.5588 50.5534 34.4107L50.2023 34.2905ZM49.4634 34.1731L46.1199 24.3569L45.4159 24.5918L48.7595 34.408L49.4634 34.1731ZM45.7679 24.842H46.8447V24.1067H45.7679V24.842ZM46.4925 24.5912L49.6235 33.8325L50.3278 33.5987L47.1968 24.3574L46.4925 24.5912ZM49.9757 33.3479H49.4372V34.0832H49.9757V33.3479ZM49.7883 33.8358L53.0185 24.5946L52.3164 24.3541L49.0862 33.5954L49.7883 33.8358ZM52.6674 24.842H53.6308V24.1067H52.6674V24.842ZM53.2793 24.5932L56.467 33.8344L57.17 33.5968L53.9823 24.3556L53.2793 24.5932ZM56.8185 33.3479H56.3084V34.0832H56.8185V33.3479ZM56.6603 33.8335L59.8196 24.5922L59.1159 24.3565L55.9566 33.5977L56.6603 33.8335ZM59.4677 24.842H60.4736V24.1067H59.4677V24.842ZM60.1217 24.3569L56.7781 34.1731L57.4821 34.408L60.8256 24.5918L60.1217 24.3569ZM57.1301 33.9229H56.0251V34.6582H57.1301V33.9229ZM56.3763 34.171L53.3303 25.4065L52.6279 25.6457L55.6739 34.4101L56.3763 34.171ZM52.9791 25.8937H53.2624V25.1585H52.9791V25.8937ZM52.9114 25.406L49.8512 34.1704L50.5534 34.4107L53.6135 25.6462L52.9114 25.406ZM50.2023 33.9229H49.1114V34.6582H50.2023V33.9229ZM64.856 34.2905L64.5041 34.408C64.555 34.5575 64.6966 34.6582 64.856 34.6582V34.2905ZM61.5125 24.4743V24.1067C61.3929 24.1067 61.2806 24.1637 61.2109 24.2599C61.141 24.356 61.1223 24.4796 61.1606 24.5918L61.5125 24.4743ZM62.5892 24.4743L62.9414 24.3574C62.8906 24.2076 62.7489 24.1067 62.5892 24.1067V24.4743ZM65.7202 33.7156V34.0832C65.8397 34.0832 65.9519 34.0263 66.0217 33.9303C66.0915 33.8343 66.1104 33.7109 66.0724 33.5987L65.7202 33.7156ZM65.1819 33.7156L64.8309 33.5954C64.7916 33.7078 64.8096 33.832 64.8793 33.9289C64.949 34.0257 65.0618 34.0832 65.1819 34.0832V33.7156ZM68.412 24.4743V24.1067C68.2537 24.1067 68.1128 24.206 68.061 24.3541L68.412 24.4743ZM69.3754 24.4743L69.7269 24.3556C69.6756 24.2067 69.5343 24.1067 69.3754 24.1067V24.4743ZM72.563 33.7156V34.0832C72.6829 34.0832 72.7954 34.026 72.8652 33.9295C72.9349 33.8329 72.9533 33.7091 72.9146 33.5968L72.563 33.7156ZM72.0531 33.7156L71.7012 33.5977C71.6628 33.71 71.6815 33.8336 71.7513 33.9299C71.821 34.0262 71.9333 34.0832 72.0531 34.0832V33.7156ZM75.212 24.4743V24.1067C75.053 24.1067 74.9119 24.2072 74.8606 24.3565L75.212 24.4743ZM76.2186 24.4743L76.5699 24.5918C76.6086 24.4796 76.59 24.356 76.5202 24.2599C76.4503 24.1637 76.3382 24.1067 76.2186 24.1067V24.4743ZM72.8747 34.2905V34.6582C73.0342 34.6582 73.1758 34.5575 73.2267 34.408L72.8747 34.2905ZM71.7697 34.2905L71.4184 34.4101C71.4701 34.5585 71.6111 34.6582 71.7697 34.6582V34.2905ZM68.7237 25.5261V25.1585C68.6037 25.1585 68.4911 25.2158 68.4213 25.3126C68.3516 25.4093 68.3334 25.5333 68.3725 25.6457L68.7237 25.5261ZM69.0071 25.5261L69.3581 25.6462C69.3974 25.5338 69.3792 25.4096 69.3096 25.3127C69.2399 25.216 69.1272 25.1585 69.0071 25.1585V25.5261ZM65.9469 34.2905V34.6582C66.1052 34.6582 66.2462 34.5588 66.2979 34.4107L65.9469 34.2905ZM65.2079 34.1731L61.8645 24.3569L61.1606 24.5918L64.5041 34.408L65.2079 34.1731ZM61.5125 24.842H62.5892V24.1067H61.5125V24.842ZM62.2371 24.5912L65.3681 33.8325L66.0724 33.5987L62.9414 24.3574L62.2371 24.5912ZM65.7202 33.3479H65.1819V34.0832H65.7202V33.3479ZM65.5329 33.8358L68.763 24.5946L68.061 24.3541L64.8309 33.5954L65.5329 33.8358ZM68.412 24.842H69.3754V24.1067H68.412V24.842ZM69.0239 24.5932L72.2115 33.8344L72.9146 33.5968L69.7269 24.3556L69.0239 24.5932ZM72.563 33.3479H72.0531V34.0832H72.563V33.3479ZM72.4049 33.8335L75.5641 24.5922L74.8606 24.3565L71.7012 33.5977L72.4049 33.8335ZM75.212 24.842H76.2186V24.1067H75.212V24.842ZM75.8665 24.3569L72.5228 34.1731L73.2267 34.408L76.5699 24.5918L75.8665 24.3569ZM72.8747 33.9229H71.7697V34.6582H72.8747V33.9229ZM72.1209 34.171L69.075 25.4065L68.3725 25.6457L71.4184 34.4101L72.1209 34.171ZM68.7237 25.8937H69.0071V25.1585H68.7237V25.8937ZM68.656 25.406L65.5959 34.1704L66.2979 34.4107L69.3581 25.6462L68.656 25.406ZM65.9469 33.9229H64.856V34.6582H65.9469V33.9229ZM80.6007 34.2905L80.2486 34.408C80.2998 34.5575 80.441 34.6582 80.6007 34.6582V34.2905ZM77.2571 24.4743V24.1067C77.1375 24.1067 77.0253 24.1637 76.9555 24.2599C76.8857 24.356 76.8671 24.4796 76.905 24.5918L77.2571 24.4743ZM78.3335 24.4743L78.6863 24.3574C78.6351 24.2076 78.4932 24.1067 78.3335 24.1067V24.4743ZM81.4646 33.7156V34.0832C81.5842 34.0832 81.6964 34.0263 81.7662 33.9303C81.8361 33.8343 81.8546 33.7109 81.8167 33.5987L81.4646 33.7156ZM80.9268 33.7156L80.5754 33.5954C80.5361 33.7078 80.5539 33.832 80.6237 33.9289C80.6935 34.0257 80.8065 34.0832 80.9268 34.0832V33.7156ZM84.1567 24.4743V24.1067C83.9985 24.1067 83.8574 24.206 83.8054 24.3541L84.1567 24.4743ZM85.1202 24.4743L85.4716 24.3556C85.4203 24.2067 85.2792 24.1067 85.1202 24.1067V24.4743ZM88.3078 33.7156V34.0832C88.4274 34.0832 88.5403 34.026 88.6094 33.9295C88.6793 33.8329 88.6978 33.7091 88.6592 33.5968L88.3078 33.7156ZM87.7975 33.7156L87.4461 33.5977C87.4075 33.71 87.4261 33.8336 87.4959 33.9299C87.5657 34.0262 87.6779 34.0832 87.7975 34.0832V33.7156ZM90.9569 24.4743V24.1067C90.7979 24.1067 90.656 24.2072 90.6055 24.3565L90.9569 24.4743ZM91.9627 24.4743L92.3148 24.5918C92.3527 24.4796 92.3341 24.356 92.2643 24.2599C92.1945 24.1637 92.0823 24.1067 91.9627 24.1067V24.4743ZM88.6191 34.2905V34.6582C88.7788 34.6582 88.9207 34.5575 88.9712 34.408L88.6191 34.2905ZM87.5145 34.2905L87.1631 34.4101C87.2143 34.5585 87.3555 34.6582 87.5145 34.6582V34.2905ZM84.468 25.5261V25.1585C84.3484 25.1585 84.2355 25.2158 84.1657 25.3126C84.0966 25.4093 84.078 25.5333 84.1174 25.6457L84.468 25.5261ZM84.7518 25.5261L85.1024 25.6462C85.1418 25.5338 85.1239 25.4096 85.0541 25.3127C84.9843 25.216 84.8721 25.1585 84.7518 25.1585V25.5261ZM81.6912 34.2905V34.6582C81.8502 34.6582 81.9906 34.5588 82.0426 34.4107L81.6912 34.2905ZM80.9528 34.1731L77.6092 24.3569L76.905 24.5918L80.2486 34.408L80.9528 34.1731ZM77.2571 24.842H78.3335V24.1067H77.2571V24.842ZM77.9814 24.5912L81.1125 33.8325L81.8167 33.5987L78.6863 24.3574L77.9814 24.5912ZM81.4646 33.3479H80.9268V34.0832H81.4646V33.3479ZM81.2774 33.8358L84.5074 24.5946L83.8054 24.3541L80.5754 33.5954L81.2774 33.8358ZM84.1567 24.842H85.1202V24.1067H84.1567V24.842ZM84.7689 24.5932L87.9565 33.8344L88.6592 33.5968L85.4716 24.3556L84.7689 24.5932ZM88.3078 33.3479H87.7975V34.0832H88.3078V33.3479ZM88.1496 33.8335L91.309 24.5922L90.6055 24.3565L87.4461 33.5977L88.1496 33.8335ZM90.9569 24.842H91.9627V24.1067H90.9569V24.842ZM91.6106 24.3569L88.2677 34.1731L88.9712 34.408L92.3148 24.5918L91.6106 24.3569ZM88.6191 33.9229H87.5145V34.6582H88.6191V33.9229ZM87.8658 34.171L84.8194 25.4065L84.1174 25.6457L87.1631 34.4101L87.8658 34.171ZM84.468 25.8937H84.7518V25.1585H84.468V25.8937ZM84.4004 25.406L81.3406 34.1704L82.0426 34.4107L85.1024 25.6462L84.4004 25.406ZM81.6912 33.9229H80.6007V34.6582H81.6912V33.9229Z" fill="#4CB853"/>
<path d="M103.653 5.14606H99.647C98.0059 5.14606 96.6755 6.46287 96.6755 8.08723V33.9588C96.6755 35.5831 98.0059 36.9 99.647 36.9H103.653C105.294 36.9 106.624 35.5831 106.624 33.9588V8.08723C106.624 6.46287 105.294 5.14606 103.653 5.14606Z" fill="#F6851F" fill-opacity="0.6"/>
</svg>
