<svg width="175" height="140" viewBox="0 0 175 140" fill="none" xmlns="http://www.w3.org/2000/svg">
<path d="M44.7812 90.1728L32.5609 89.9445C30.6283 89.9084 29.0331 91.4919 28.998 93.4814L28.3298 131.379C28.2947 133.368 29.833 135.011 31.7657 135.047L43.986 135.275C45.9187 135.311 47.5139 133.728 47.5489 131.738L48.2171 93.8405C48.2522 91.851 46.7139 90.2089 44.7812 90.1728Z" fill="#2C9C48" fill-opacity="0.5" stroke="#2C9C48"/>
<path d="M48.2366 98.4916C54.4614 93.9561 71.1924 87.5452 87.3834 98.5665C88.0368 99.0113 88.7974 99.2812 89.5803 99.3064L113.719 100.086C114.009 100.095 114.296 100.132 114.572 100.223C117.464 101.171 122.403 104.653 124.264 112.342C124.835 114.701 122.889 116.763 120.528 116.693L92.4416 115.859" stroke="#2C9C48" stroke-linecap="round" stroke-linejoin="round"/>
<path d="M154.256 104.069L153.84 103.785L154.256 104.069ZM88.3803 134.896L88.5294 134.405L88.5242 134.403L88.3803 134.896ZM63.216 127.116L63.3598 126.623L63.3382 126.616L63.3162 126.611L63.216 127.116ZM155.173 101.864L154.689 101.734L155.173 101.864ZM117.426 132.311L117.13 131.896L117.426 132.311ZM117.113 132.519L116.874 132.067L117.113 132.519ZM155.333 98.9685L154.87 99.1633L155.333 98.9685ZM155.402 99.5089L154.902 99.5031L155.402 99.5089ZM123.445 109.562C128.158 107.056 135.79 103.587 142.425 101.218C145.745 100.032 148.792 99.1309 151.09 98.7583C152.243 98.5713 153.172 98.5237 153.839 98.622C154.525 98.723 154.785 98.9508 154.87 99.1633L155.795 98.7736C155.505 98.0413 154.776 97.72 153.981 97.603C153.167 97.4831 152.123 97.5486 150.934 97.7414C148.548 98.1284 145.435 99.0534 142.097 100.245C135.415 102.631 127.739 106.119 122.986 108.648L123.445 109.562ZM153.84 103.785C153.86 103.753 153.874 103.742 153.851 103.766C153.836 103.781 153.811 103.806 153.774 103.84C153.701 103.907 153.596 103.998 153.458 104.115C153.184 104.346 152.795 104.663 152.305 105.055C151.325 105.837 149.952 106.911 148.311 108.181C145.028 110.721 140.678 114.046 136.267 117.403C127.445 124.116 118.381 130.954 117.13 131.896L117.721 132.727C118.973 131.783 128.037 124.945 136.861 118.231C141.273 114.874 145.626 111.547 148.912 109.004C150.554 107.733 151.932 106.655 152.918 105.868C153.411 105.475 153.808 105.151 154.093 104.91C154.234 104.791 154.352 104.688 154.44 104.607C154.485 104.567 154.525 104.528 154.559 104.493C154.587 104.465 154.634 104.413 154.673 104.354L153.84 103.785ZM116.874 132.067C115.218 132.994 110.781 134.437 105.395 135.216C100.018 135.994 93.7846 136.094 88.5294 134.405L88.2313 135.387C93.6874 137.141 100.088 137.023 105.534 136.235C110.97 135.449 115.543 133.983 117.351 132.971L116.874 132.067ZM88.5242 134.403L63.3598 126.623L63.0722 127.608L88.2365 135.389L88.5242 134.403ZM63.3162 126.611C60.6665 126.054 53.4933 126.073 47.239 130.278L47.7858 131.14C53.7785 127.111 60.6719 127.106 63.1158 127.619L63.3162 126.611ZM154.902 99.5031C154.897 100.014 154.861 101.056 154.689 101.734L155.657 101.994C155.863 101.178 155.897 100.017 155.902 99.5147L154.902 99.5031ZM154.689 101.734C154.573 102.196 154.5 102.482 154.389 102.768C154.28 103.046 154.127 103.34 153.84 103.785L154.673 104.354C154.982 103.875 155.173 103.518 155.316 103.152C155.457 102.793 155.545 102.439 155.657 101.994L154.689 101.734ZM117.13 131.896C117.035 131.969 116.966 132.016 116.874 132.067L117.351 132.971C117.494 132.892 117.602 132.817 117.721 132.727L117.13 131.896ZM154.87 99.1633C154.894 99.2249 154.904 99.3194 154.902 99.5031L155.902 99.5147C155.904 99.3348 155.905 99.0486 155.795 98.7736L154.87 99.1633Z" fill="#2C9C48"/>
<path d="M143.884 3.47388H42.2734C40.3404 3.47388 38.7734 5.08697 38.7734 7.07682V69.3902C38.7734 71.3801 40.3404 72.9931 42.2734 72.9931H143.884C145.817 72.9931 147.384 71.3801 147.384 69.3902V7.07682C147.384 5.08697 145.817 3.47388 143.884 3.47388Z" fill="white" stroke="#2C9C48" stroke-linejoin="round"/>
<path d="M53.1995 16.9192L81.2853 16.7733" stroke="#4CB853" stroke-linecap="round"/>
<path d="M53.2019 20.491H77.377" stroke="#4CB853" stroke-linecap="round"/>
<path d="M66.1115 48.0067L61.6106 34.2641H63.0601L67.2749 47.2018H66.5501L70.8984 34.2641H72.1953L76.4864 47.2018H75.7998L80.0527 34.2641H81.4068L76.9059 48.0067H75.4184L71.318 35.7366H71.6994L67.58 48.0067H66.1115ZM87.3061 48.0067L82.8053 34.2641H84.2547L88.4695 47.2018H87.7448L92.0931 34.2641H93.3899L97.681 47.2018H96.9945L101.247 34.2641H102.602L98.1006 48.0067H96.613L92.5127 35.7366H92.8941L88.7747 48.0067H87.3061ZM108.501 48.0067L104 34.2641H105.449L109.664 47.2018H108.94L113.288 34.2641H114.585L118.876 47.2018H118.189L122.442 34.2641H123.796L119.295 48.0067H117.808L113.707 35.7366H114.089L109.969 48.0067H108.501Z" fill="#4CB853"/>
<path d="M66.1117 48.0067L65.6379 48.1712C65.7065 48.3805 65.8971 48.5215 66.1117 48.5215V48.0067ZM61.6108 34.2641V33.7494C61.4498 33.7494 61.2986 33.8293 61.2047 33.9638C61.1108 34.0985 61.0856 34.2715 61.137 34.4285L61.6108 34.2641ZM63.0603 34.2641L63.5343 34.1004C63.466 33.8907 63.2751 33.7494 63.0603 33.7494V34.2641ZM67.2751 47.2018V47.7166C67.4359 47.7166 67.587 47.6369 67.6809 47.5024C67.7749 47.368 67.8003 47.1953 67.7491 47.0382L67.2751 47.2018ZM66.5503 47.2018L66.0778 47.0335C66.0249 47.1909 66.0493 47.3648 66.1431 47.5005C66.2369 47.6361 66.3886 47.7166 66.5503 47.7166V47.2018ZM70.8986 34.2641V33.7494C70.6855 33.7494 70.4958 33.8885 70.4261 34.0958L70.8986 34.2641ZM72.1955 34.2641L72.6687 34.0978C72.5996 33.8894 72.4094 33.7494 72.1955 33.7494V34.2641ZM76.4866 47.2018V47.7166C76.6479 47.7166 76.7994 47.6364 76.8933 47.5013C76.9871 47.3661 77.0119 47.1928 76.9598 47.0355L76.4866 47.2018ZM75.8 47.2018L75.3264 47.0368C75.2747 47.194 75.2998 47.3671 75.3937 47.5018C75.4876 47.6367 75.6389 47.7166 75.8 47.7166V47.2018ZM80.0529 34.2641V33.7494C79.8386 33.7494 79.648 33.8901 79.5793 34.0991L80.0529 34.2641ZM81.407 34.2641L81.8808 34.4285C81.9323 34.2715 81.9071 34.0985 81.8131 33.9638C81.7192 33.8293 81.568 33.7494 81.407 33.7494V34.2641ZM76.9061 48.0067V48.5215C77.1207 48.5215 77.3114 48.3805 77.3799 48.1712L76.9061 48.0067ZM75.4186 48.0067L74.9458 48.1742C75.0152 48.382 75.2051 48.5215 75.4186 48.5215V48.0067ZM71.3182 35.7366V35.2219C71.1566 35.2219 71.005 35.3022 70.9112 35.4376C70.8174 35.573 70.7928 35.7467 70.8454 35.904L71.3182 35.7366ZM71.6996 35.7366L72.1722 35.9047C72.225 35.7474 72.2007 35.5734 72.1069 35.4378C72.013 35.3024 71.8613 35.2219 71.6996 35.2219V35.7366ZM67.5802 48.0067V48.5215C67.7934 48.5215 67.9831 48.3824 68.0528 48.1749L67.5802 48.0067ZM66.5855 47.8423L62.0846 34.0997L61.137 34.4285L65.6379 48.1712L66.5855 47.8423ZM61.6108 34.7788H63.0603V33.7494H61.6108V34.7788ZM62.5862 34.4278L66.801 47.3655L67.7491 47.0382L63.5343 34.1004L62.5862 34.4278ZM67.2751 46.6871H66.5503V47.7166H67.2751V46.6871ZM67.0229 47.3702L71.3712 34.4324L70.4261 34.0958L66.0778 47.0335L67.0229 47.3702ZM70.8986 34.7788H72.1955V33.7494H70.8986V34.7788ZM71.7223 34.4305L76.0134 47.3682L76.9598 47.0355L72.6687 34.0978L71.7223 34.4305ZM76.4866 46.6871H75.8V47.7166H76.4866V46.6871ZM76.2736 47.3669L80.5266 34.4291L79.5793 34.0991L75.3264 47.0368L76.2736 47.3669ZM80.0529 34.7788H81.407V33.7494H80.0529V34.7788ZM80.9332 34.0997L76.4323 47.8423L77.3799 48.1712L81.8808 34.4285L80.9332 34.0997ZM76.9061 47.492H75.4186V48.5215H76.9061V47.492ZM75.8914 47.8394L71.791 35.5691L70.8454 35.904L74.9458 48.1742L75.8914 47.8394ZM71.3182 36.2513H71.6996V35.2219H71.3182V36.2513ZM71.2271 35.5684L67.1076 47.8386L68.0528 48.1749L72.1722 35.9047L71.2271 35.5684ZM67.5802 47.492H66.1117V48.5215H67.5802V47.492ZM87.3063 48.0067L86.8326 48.1712C86.9011 48.3805 87.0918 48.5215 87.3063 48.5215V48.0067ZM82.8055 34.2641V33.7494C82.6445 33.7494 82.4933 33.8293 82.3994 33.9638C82.3054 34.0985 82.2802 34.2715 82.3317 34.4285L82.8055 34.2641ZM84.2549 34.2641L84.729 34.1004C84.6606 33.8907 84.4698 33.7494 84.2549 33.7494V34.2641ZM88.4697 47.2018V47.7166C88.6306 47.7166 88.7816 47.6369 88.8756 47.5024C88.9695 47.368 88.9949 47.1953 88.9438 47.0382L88.4697 47.2018ZM87.745 47.2018L87.2725 47.0335C87.2196 47.1909 87.2439 47.3648 87.3377 47.5005C87.4315 47.6361 87.5833 47.7166 87.745 47.7166V47.2018ZM92.0933 34.2641V33.7494C91.8802 33.7494 91.6905 33.8885 91.6208 34.0958L92.0933 34.2641ZM93.3901 34.2641L93.8633 34.0978C93.7942 33.8894 93.604 33.7494 93.3901 33.7494V34.2641ZM97.6812 47.2018V47.7166C97.8426 47.7166 97.994 47.6364 98.0879 47.5013C98.1818 47.3661 98.2065 47.1928 98.1544 47.0355L97.6812 47.2018ZM96.9947 47.2018L96.521 47.0368C96.4694 47.194 96.4945 47.3671 96.5884 47.5018C96.6823 47.6367 96.8335 47.7166 96.9947 47.7166V47.2018ZM101.247 34.2641V33.7494C101.033 33.7494 100.843 33.8901 100.774 34.0991L101.247 34.2641ZM102.602 34.2641L103.075 34.4285C103.127 34.2715 103.102 34.0985 103.008 33.9638C102.914 33.8293 102.763 33.7494 102.602 33.7494V34.2641ZM98.1008 48.0067V48.5215C98.3154 48.5215 98.506 48.3805 98.5746 48.1712L98.1008 48.0067ZM96.6132 48.0067L96.1404 48.1742C96.2099 48.382 96.3998 48.5215 96.6132 48.5215V48.0067ZM92.5129 35.7366V35.2219C92.3513 35.2219 92.1997 35.3022 92.1058 35.4376C92.012 35.573 91.9875 35.7467 92.0401 35.904L92.5129 35.7366ZM92.8943 35.7366L93.3669 35.9047C93.4197 35.7474 93.3953 35.5734 93.3015 35.4378C93.2077 35.3024 93.056 35.2219 92.8943 35.2219V35.7366ZM88.7749 48.0067V48.5215C88.988 48.5215 89.1778 48.3824 89.2474 48.1749L88.7749 48.0067ZM87.7801 47.8423L83.2793 34.0997L82.3317 34.4285L86.8326 48.1712L87.7801 47.8423ZM82.8055 34.7788H84.2549V33.7494H82.8055V34.7788ZM83.7809 34.4278L87.9957 47.3655L88.9438 47.0382L84.729 34.1004L83.7809 34.4278ZM88.4697 46.6871H87.745V47.7166H88.4697V46.6871ZM88.2175 47.3702L92.5658 34.4324L91.6208 34.0958L87.2725 47.0335L88.2175 47.3702ZM92.0933 34.7788H93.3901V33.7494H92.0933V34.7788ZM92.917 34.4305L97.208 47.3682L98.1544 47.0355L93.8633 34.0978L92.917 34.4305ZM97.6812 46.6871H96.9947V47.7166H97.6812V46.6871ZM97.4683 47.3669L101.721 34.4291L100.774 34.0991L96.521 47.0368L97.4683 47.3669ZM101.247 34.7788H102.602V33.7494H101.247V34.7788ZM102.128 34.0997L97.627 47.8423L98.5746 48.1712L103.075 34.4285L102.128 34.0997ZM98.1008 47.492H96.6132V48.5215H98.1008V47.492ZM97.086 47.8394L92.9857 35.5691L92.0401 35.904L96.1404 48.1742L97.086 47.8394ZM92.5129 36.2513H92.8943V35.2219H92.5129V36.2513ZM92.4217 35.5684L88.3023 47.8386L89.2474 48.1749L93.3669 35.9047L92.4217 35.5684ZM88.7749 47.492H87.3063V48.5215H88.7749V47.492ZM108.501 48.0067L108.027 48.1712C108.096 48.3805 108.286 48.5215 108.501 48.5215V48.0067ZM104 34.2641V33.7494C103.839 33.7494 103.688 33.8293 103.594 33.9638C103.5 34.0985 103.475 34.2715 103.526 34.4285L104 34.2641ZM105.449 34.2641L105.924 34.1004C105.855 33.8907 105.664 33.7494 105.449 33.7494V34.2641ZM109.664 47.2018V47.7166C109.825 47.7166 109.976 47.6369 110.07 47.5024C110.164 47.368 110.189 47.1953 110.138 47.0382L109.664 47.2018ZM108.94 47.2018L108.467 47.0335C108.414 47.1909 108.438 47.3648 108.532 47.5005C108.626 47.6361 108.778 47.7166 108.94 47.7166V47.2018ZM113.288 34.2641V33.7494C113.075 33.7494 112.885 33.8885 112.815 34.0958L113.288 34.2641ZM114.585 34.2641L115.058 34.0978C114.989 33.8894 114.799 33.7494 114.585 33.7494V34.2641ZM118.876 47.2018V47.7166C119.037 47.7166 119.189 47.6364 119.282 47.5013C119.376 47.3661 119.401 47.1928 119.349 47.0355L118.876 47.2018ZM118.189 47.2018L117.716 47.0368C117.664 47.194 117.689 47.3671 117.783 47.5018C117.877 47.6367 118.028 47.7166 118.189 47.7166V47.2018ZM122.442 34.2641V33.7494C122.228 33.7494 122.037 33.8901 121.969 34.0991L122.442 34.2641ZM123.796 34.2641L124.27 34.4285C124.321 34.2715 124.296 34.0985 124.202 33.9638C124.108 33.8293 123.957 33.7494 123.796 33.7494V34.2641ZM119.295 48.0067V48.5215C119.51 48.5215 119.701 48.3805 119.769 48.1712L119.295 48.0067ZM117.808 48.0067L117.335 48.1742C117.404 48.382 117.594 48.5215 117.808 48.5215V48.0067ZM113.707 35.7366V35.2219C113.546 35.2219 113.394 35.3022 113.3 35.4376C113.207 35.573 113.182 35.7467 113.235 35.904L113.707 35.7366ZM114.089 35.7366L114.561 35.9047C114.614 35.7474 114.59 35.5734 114.496 35.4378C114.402 35.3024 114.251 35.2219 114.089 35.2219V35.7366ZM109.969 48.0067V48.5215C110.183 48.5215 110.372 48.3824 110.442 48.1749L109.969 48.0067ZM108.975 47.8423L104.474 34.0997L103.526 34.4285L108.027 48.1712L108.975 47.8423ZM104 34.7788H105.449V33.7494H104V34.7788ZM104.975 34.4278L109.19 47.3655L110.138 47.0382L105.924 34.1004L104.975 34.4278ZM109.664 46.6871H108.94V47.7166H109.664V46.6871ZM109.412 47.3702L113.76 34.4324L112.815 34.0958L108.467 47.0335L109.412 47.3702ZM113.288 34.7788H114.585V33.7494H113.288V34.7788ZM114.112 34.4305L118.403 47.3682L119.349 47.0355L115.058 34.0978L114.112 34.4305ZM118.876 46.6871H118.189V47.7166H118.876V46.6871ZM118.663 47.3669L122.916 34.4291L121.969 34.0991L117.716 47.0368L118.663 47.3669ZM122.442 34.7788H123.796V33.7494H122.442V34.7788ZM123.322 34.0997L118.822 47.8423L119.769 48.1712L124.27 34.4285L123.322 34.0997ZM119.295 47.492H117.808V48.5215H119.295V47.492ZM118.281 47.8394L114.18 35.5691L113.235 35.904L117.335 48.1742L118.281 47.8394ZM113.707 36.2513H114.089V35.2219H113.707V36.2513ZM113.616 35.5684L109.497 47.8386L110.442 48.1749L114.561 35.9047L113.616 35.5684ZM109.969 47.492H108.501V48.5215H109.969V47.492Z" fill="#4CB853"/>
<path d="M139.533 7.20453H134.14C131.931 7.20453 130.14 9.04806 130.14 11.3222V47.5423C130.14 49.8164 131.931 51.66 134.14 51.66H139.533C141.742 51.66 143.533 49.8164 143.533 47.5423V11.3222C143.533 9.04806 141.742 7.20453 139.533 7.20453Z" fill="#F6851F" fill-opacity="0.6"/>
</svg>
