<svg width="90" height="70" viewBox="0 0 90 70" fill="none" xmlns="http://www.w3.org/2000/svg">
<path d="M69.0219 0.214001H26.766C25.6304 0.214001 24.7098 1.14061 24.7098 2.28364V61.3765C24.7098 62.5195 25.6304 63.4461 26.766 63.4461H69.0219C70.1575 63.4461 71.0781 62.5195 71.0781 61.3765V2.28364C71.0781 1.14061 70.1575 0.214001 69.0219 0.214001Z" fill="#F6851F" fill-opacity="0.6"/>
<path d="M62.625 6.72582H20.572C19.5783 6.72582 18.7728 7.5366 18.7728 8.53675V67.6297C18.7728 68.6299 19.5783 69.4407 20.572 69.4407H62.625C63.6186 69.4407 64.4241 68.6299 64.4241 67.6297V8.53675C64.4241 7.5366 63.6186 6.72582 62.625 6.72582Z" fill="white" stroke="#2C9C48" stroke-width="1.00526"/>
<path d="M43.2894 16.342H60.2714" stroke="#2C9C48" stroke-width="1.00526" stroke-linecap="round"/>
<path d="M22.4966 26.9981L61.1698 26.9663" stroke="#2C9C48" stroke-width="1.00526" stroke-linecap="round"/>
<path d="M22.4802 32.9149L61.1535 32.8831" stroke="#2C9C48" stroke-width="1.00526" stroke-linecap="round"/>
<path d="M22.4966 38.8313L61.1698 38.7995" stroke="#2C9C48" stroke-width="1.00526" stroke-linecap="round"/>
</svg>
