<svg width="255" height="255" viewBox="0 0 255 255" fill="none" xmlns="http://www.w3.org/2000/svg">
<g clip-path="url(#clip0_116_4723)">
<path d="M144.566 43.903C184.178 66.2573 183.401 101.809 168.851 127.59C154.302 153.372 151.236 181.728 111.624 159.374C72.0119 137.02 -8.29964 92.6789 6.24963 66.8973C20.7989 41.1158 104.954 21.5486 144.566 43.903Z" fill="#F8961D" fill-opacity="0.4"/>
<rect x="60.6924" y="50.6942" width="133.615" height="86.5" rx="3.5" stroke="#2C9C48"/>
<rect x="63.0369" y="52.8739" width="128.927" height="82.1408" rx="3.5" fill="white" stroke="#2C9C48"/>
<circle cx="69.6611" cy="59.323" r="1.5" stroke="#2C9C48"/>
<circle cx="79.6394" cy="59.323" r="1.5" stroke="#2C9C48"/>
<circle cx="74.6504" cy="59.323" r="1.5" stroke="#2C9C48"/>
<line x1="163.099" y1="59.1154" x2="184.295" y2="59.1154" stroke="#2C9C48" stroke-linecap="round"/>
<line x1="163.099" y1="63.9404" x2="184.295" y2="63.9404" stroke="#2C9C48" stroke-linecap="round"/>
<line x1="73.7998" y1="116.67" x2="83.7998" y2="116.67" stroke="#2C9C48" stroke-linecap="round"/>
<line x1="73.7998" y1="119.466" x2="83.7998" y2="119.466" stroke="#2C9C48" stroke-linecap="round"/>
<g filter="url(#filter0_d_116_4723)">
<rect x="60.6924" y="50.6942" width="133.615" height="86.5" rx="3.5" stroke="#2C9C48" shape-rendering="crispEdges"/>
</g>
<line x1="73.7998" y1="116.67" x2="83.7998" y2="116.67" stroke="#2C9C48" stroke-linecap="round"/>
<line x1="73.7998" y1="119.466" x2="83.7998" y2="119.466" stroke="#2C9C48" stroke-linecap="round"/>
<line x1="113" y1="115.871" x2="123" y2="115.871" stroke="#2C9C48" stroke-linecap="round"/>
<line x1="113" y1="118.667" x2="123" y2="118.667" stroke="#2C9C48" stroke-linecap="round"/>
<line x1="152.2" y1="115.871" x2="162.2" y2="115.871" stroke="#2C9C48" stroke-linecap="round"/>
<line x1="152.2" y1="118.667" x2="162.2" y2="118.667" stroke="#2C9C48" stroke-linecap="round"/>
<g filter="url(#filter1_d_116_4723)">
<rect x="73.7998" y="74.4443" width="29" height="39" rx="3.5" stroke="#2C9C48" shape-rendering="crispEdges"/>
</g>
<rect x="83.0488" y="77.0463" width="16.3106" height="21.7474" rx="2.17474" fill="#2C9C48" fill-opacity="0.5"/>
<rect x="123.044" y="77.0461" width="16.3106" height="21.7474" rx="2.17474" fill="#2C9C48" fill-opacity="0.5"/>
<path d="M162.123 79.2209C162.123 78.0198 163.096 77.0461 164.298 77.0461H176.259C177.46 77.0461 178.433 78.0198 178.433 79.2209V96.6188C178.433 97.8199 177.46 98.7936 176.259 98.7936H164.298C163.096 98.7936 162.123 97.8199 162.123 96.6188V79.2209Z" fill="#2C9C48" fill-opacity="0.5"/>
<g filter="url(#filter2_d_116_4723)">
<rect x="152.2" y="74.4443" width="29" height="39" rx="3.5" stroke="#2C9C48" shape-rendering="crispEdges"/>
</g>
<g filter="url(#filter3_d_116_4723)">
<rect x="113" y="74.4443" width="29" height="39" rx="3.5" stroke="#2C9C48" shape-rendering="crispEdges"/>
</g>
<path d="M200.683 151.586C200.641 151.69 200.598 151.799 200.555 151.911C200.258 152.689 199.921 153.76 199.93 154.675C199.938 155.562 200.275 156.598 200.567 157.35C200.605 157.445 200.642 157.538 200.678 157.626H193.093C193.126 157.567 193.159 157.506 193.193 157.444C193.593 156.699 194.076 155.631 194.088 154.678C194.101 153.694 193.616 152.589 193.21 151.819C193.169 151.739 193.127 151.661 193.085 151.586H200.683Z" stroke="#2C9C48" stroke-width="1.5"/>
<path d="M195.793 108.187L219.808 119.531C219.703 126.974 217.122 135.017 212.995 141.232C208.768 147.598 203.031 151.893 196.818 151.893C190.601 151.893 184.851 147.645 180.613 141.334C176.469 135.164 173.876 127.164 173.774 119.718L195.793 108.187Z" fill="white" stroke="#2C9C48" stroke-width="1.5" stroke-linecap="round"/>
<path d="M173.06 119.006L195.945 106.407C196.12 106.311 196.331 106.309 196.507 106.401L220.535 119.006" stroke="#2C9C48" stroke-width="1.5" stroke-linecap="round"/>
<path d="M173.188 119.684C186.779 118.086 193.496 112.804 195.629 109.863C195.846 109.564 196.274 109.49 196.562 109.721C203.994 115.669 214.983 118.648 220.382 119.545C220.774 119.61 221.105 119.273 221.035 118.882C219.497 110.192 212.694 94.5537 196.016 95.7573C179.361 96.9592 173.561 111.36 172.542 119.041C172.493 119.414 172.814 119.727 173.188 119.684Z" fill="#2C9C48" stroke="#2C9C48" stroke-linecap="round"/>
<path d="M217.37 133.86C219.118 134.167 221.056 131.443 221.699 127.777C222.342 124.112 221.447 120.891 219.699 120.585" stroke="#2C9C48" stroke-width="1.5"/>
<path d="M176.28 134.016C174.683 134.375 172.727 131.723 171.91 128.092C171.093 124.461 171.724 121.226 173.321 120.866" stroke="#2C9C48" stroke-width="1.5"/>
<ellipse cx="187.968" cy="125.042" rx="1.77901" ry="2.50705" fill="#2C9C48"/>
<ellipse cx="205.25" cy="125.042" rx="1.77901" ry="2.50705" fill="#2C9C48"/>
<path d="M195.728 129.694C194.054 132.194 191.711 136.81 195.728 135.273" stroke="#2C9C48" stroke-width="1.5" stroke-linecap="round"/>
<path d="M200.377 143.641C201.121 143.683 202.881 143.182 203.972 140.852" stroke="#2C9C48" stroke-width="1.5" stroke-linecap="round"/>
<path d="M169.077 163.74C169.432 162.993 170.413 162.204 172.123 161.462C173.797 160.736 176.023 160.116 178.64 159.614C183.868 158.61 190.541 158.098 197.205 158.09C203.869 158.082 210.483 158.579 215.594 159.577C218.153 160.077 220.302 160.697 221.884 161.424C223.505 162.169 224.359 162.95 224.615 163.669C225.301 165.597 225.663 168.573 225.799 172.025C225.934 175.456 225.845 179.281 225.663 182.865C225.482 186.446 225.21 189.775 224.984 192.209C224.87 193.426 224.768 194.418 224.695 195.106C224.679 195.256 224.664 195.392 224.651 195.512H169.047C169.029 195.385 169.008 195.239 168.986 195.077C168.889 194.387 168.755 193.391 168.606 192.17C168.309 189.728 167.952 186.391 167.714 182.805C167.476 179.217 167.358 175.395 167.535 171.98C167.714 168.54 168.188 165.608 169.077 163.74Z" fill="#4CB853" fill-opacity="0.2" stroke="#2C9C48" stroke-width="1.5"/>
<path d="M178.992 195.626C177.516 191.381 175.153 180.585 177.516 171.358" stroke="#2C9C48" stroke-width="1.5" stroke-linecap="round"/>
<path d="M216.363 195.441C217.163 190.863 218.283 179.636 216.363 171.358" stroke="#2C9C48" stroke-width="1.5" stroke-linecap="round"/>
</g>
<defs>
<filter id="filter0_d_116_4723" x="57.1924" y="47.1942" width="144.615" height="97.5" filterUnits="userSpaceOnUse" color-interpolation-filters="sRGB">
<feFlood flood-opacity="0" result="BackgroundImageFix"/>
<feColorMatrix in="SourceAlpha" type="matrix" values="0 0 0 0 0 0 0 0 0 0 0 0 0 0 0 0 0 0 127 0" result="hardAlpha"/>
<feOffset dx="2" dy="2"/>
<feGaussianBlur stdDeviation="2.5"/>
<feComposite in2="hardAlpha" operator="out"/>
<feColorMatrix type="matrix" values="0 0 0 0 0.172549 0 0 0 0 0.611765 0 0 0 0 0.282353 0 0 0 0.25 0"/>
<feBlend mode="normal" in2="BackgroundImageFix" result="effect1_dropShadow_116_4723"/>
<feBlend mode="normal" in="SourceGraphic" in2="effect1_dropShadow_116_4723" result="shape"/>
</filter>
<filter id="filter1_d_116_4723" x="70.2998" y="70.9443" width="40" height="50" filterUnits="userSpaceOnUse" color-interpolation-filters="sRGB">
<feFlood flood-opacity="0" result="BackgroundImageFix"/>
<feColorMatrix in="SourceAlpha" type="matrix" values="0 0 0 0 0 0 0 0 0 0 0 0 0 0 0 0 0 0 127 0" result="hardAlpha"/>
<feOffset dx="2" dy="2"/>
<feGaussianBlur stdDeviation="2.5"/>
<feComposite in2="hardAlpha" operator="out"/>
<feColorMatrix type="matrix" values="0 0 0 0 0.172549 0 0 0 0 0.611765 0 0 0 0 0.282353 0 0 0 0.25 0"/>
<feBlend mode="normal" in2="BackgroundImageFix" result="effect1_dropShadow_116_4723"/>
<feBlend mode="normal" in="SourceGraphic" in2="effect1_dropShadow_116_4723" result="shape"/>
</filter>
<filter id="filter2_d_116_4723" x="148.7" y="70.9443" width="40" height="50" filterUnits="userSpaceOnUse" color-interpolation-filters="sRGB">
<feFlood flood-opacity="0" result="BackgroundImageFix"/>
<feColorMatrix in="SourceAlpha" type="matrix" values="0 0 0 0 0 0 0 0 0 0 0 0 0 0 0 0 0 0 127 0" result="hardAlpha"/>
<feOffset dx="2" dy="2"/>
<feGaussianBlur stdDeviation="2.5"/>
<feComposite in2="hardAlpha" operator="out"/>
<feColorMatrix type="matrix" values="0 0 0 0 0.172549 0 0 0 0 0.611765 0 0 0 0 0.282353 0 0 0 0.25 0"/>
<feBlend mode="normal" in2="BackgroundImageFix" result="effect1_dropShadow_116_4723"/>
<feBlend mode="normal" in="SourceGraphic" in2="effect1_dropShadow_116_4723" result="shape"/>
</filter>
<filter id="filter3_d_116_4723" x="109.5" y="70.9443" width="40" height="50" filterUnits="userSpaceOnUse" color-interpolation-filters="sRGB">
<feFlood flood-opacity="0" result="BackgroundImageFix"/>
<feColorMatrix in="SourceAlpha" type="matrix" values="0 0 0 0 0 0 0 0 0 0 0 0 0 0 0 0 0 0 127 0" result="hardAlpha"/>
<feOffset dx="2" dy="2"/>
<feGaussianBlur stdDeviation="2.5"/>
<feComposite in2="hardAlpha" operator="out"/>
<feColorMatrix type="matrix" values="0 0 0 0 0.172549 0 0 0 0 0.611765 0 0 0 0 0.282353 0 0 0 0.25 0"/>
<feBlend mode="normal" in2="BackgroundImageFix" result="effect1_dropShadow_116_4723"/>
<feBlend mode="normal" in="SourceGraphic" in2="effect1_dropShadow_116_4723" result="shape"/>
</filter>
<clipPath id="clip0_116_4723">
<rect width="255" height="255" fill="white"/>
</clipPath>
</defs>
</svg>
