<svg width="255" height="255" viewBox="0 0 255 255" fill="none" xmlns="http://www.w3.org/2000/svg">
<path d="M142.888 193.326C143.325 172.816 162.674 166.659 178.756 167.002C194.838 167.345 220.671 159.072 220.233 179.582C219.796 200.091 163.662 236.895 147.58 236.552C131.498 236.209 142.451 213.835 142.888 193.326Z" fill="#F8961D" fill-opacity="0.4"/>
<path d="M131.526 133.109C131.484 133.213 131.441 133.322 131.398 133.434C131.101 134.212 130.764 135.283 130.772 136.198C130.781 137.085 131.118 138.121 131.41 138.873C131.447 138.968 131.484 139.061 131.521 139.149H123.936C123.969 139.09 124.002 139.029 124.036 138.967C124.436 138.222 124.919 137.154 124.931 136.201C124.944 135.217 124.459 134.112 124.053 133.342C124.011 133.262 123.969 133.184 123.928 133.109H131.526Z" stroke="#2C9C48" stroke-width="1.5"/>
<path d="M126.636 89.7098L150.651 101.054C150.545 108.497 147.965 116.54 143.838 122.755C139.61 129.121 133.874 133.417 127.661 133.417C121.444 133.417 115.694 129.168 111.456 122.857C107.312 116.687 104.719 108.687 104.617 101.241L126.636 89.7098Z" fill="white" stroke="#2C9C48" stroke-width="1.5" stroke-linecap="round"/>
<path d="M148.213 115.383C149.961 115.69 151.899 112.967 152.542 109.301C153.185 105.635 152.29 102.414 150.542 102.108" stroke="#2C9C48" stroke-width="1.5"/>
<path d="M107.123 115.539C105.526 115.898 103.57 113.246 102.753 109.615C101.935 105.984 102.567 102.749 104.164 102.39" stroke="#2C9C48" stroke-width="1.5"/>
<ellipse cx="118.811" cy="106.565" rx="1.77901" ry="2.50705" fill="#2C9C48"/>
<ellipse cx="136.093" cy="106.565" rx="1.77901" ry="2.50705" fill="#2C9C48"/>
<path d="M126.571 111.217C124.897 113.717 122.554 118.333 126.571 116.796" stroke="#2C9C48" stroke-width="1.5" stroke-linecap="round"/>
<path d="M126.109 125.099C126.724 125.52 128.489 126.003 130.629 124.573" stroke="#2C9C48" stroke-width="1.5" stroke-linecap="round"/>
<path d="M99.92 145.263C100.275 144.517 101.256 143.728 102.966 142.985C104.64 142.259 106.866 141.639 109.482 141.137C114.711 140.133 121.384 139.621 128.048 139.613C134.712 139.605 141.326 140.102 146.437 141.101C148.996 141.601 151.145 142.22 152.727 142.947C154.347 143.693 155.201 144.473 155.458 145.192C156.144 147.12 156.506 150.096 156.642 153.548C156.777 156.979 156.687 160.804 156.506 164.388C156.325 167.97 156.053 171.298 155.827 173.732C155.713 174.949 155.611 175.942 155.538 176.629C155.522 176.78 155.507 176.915 155.494 177.035H99.8903C99.872 176.908 99.8513 176.762 99.8286 176.6C99.732 175.91 99.5982 174.914 99.4494 173.693C99.1517 171.251 98.7947 167.914 98.5568 164.328C98.3188 160.74 98.201 156.918 98.3782 153.503C98.5566 150.063 99.0311 147.131 99.92 145.263Z" stroke="#2C9C48" stroke-width="1.5"/>
<path d="M109.835 177.149C108.358 172.904 105.996 162.108 108.358 152.881" stroke="#2C9C48" stroke-width="1.5" stroke-linecap="round"/>
<path d="M147.206 176.965C148.006 172.386 149.126 161.159 147.206 152.881" stroke="#2C9C48" stroke-width="1.5" stroke-linecap="round"/>
<path d="M119.337 93.6862C118.622 96.0165 115.322 101.571 106.193 109.753C106.067 109.866 105.992 110.025 105.995 110.194C106.109 115.363 109.591 126.757 122.838 133.108C122.87 133.123 122.9 133.14 122.928 133.161C124.377 134.224 126.333 136.906 123.034 139.484C122.94 139.557 122.827 139.599 122.709 139.604C117.434 139.856 106.334 140.852 102.713 142.911C98.1455 145.508 84.7914 76.3584 119.244 82.192C119.39 82.2167 119.547 82.1919 119.673 82.1139C125.479 78.5222 139.497 73.6846 150.729 82.2334C161.978 90.7945 155.587 124.93 150.866 141.398C150.786 141.678 150.517 141.846 150.229 141.811L132.323 139.627C132.16 139.607 132.012 139.522 131.921 139.385C131.042 138.064 129.886 135.323 131.252 133.264C131.31 133.176 131.392 133.11 131.489 133.067C137.187 130.541 148.534 122.202 149.518 108.436C149.52 108.401 149.526 108.365 149.534 108.331L150.589 104.134C150.667 103.824 150.493 103.51 150.185 103.421C139.806 100.44 122.218 95.1701 119.338 93.5359C119.35 93.5858 119.352 93.6367 119.337 93.6862Z" fill="#2C9C48" stroke="#2C9C48" stroke-width="0.593246" stroke-linecap="round"/>
<g filter="url(#filter0_d_116_4761)">
<rect x="83.942" y="148.905" width="88.4943" height="58.9962" rx="5.89962" fill="white"/>
<rect x="84.6795" y="149.642" width="87.0194" height="57.5213" rx="5.16217" stroke="#2C9C48" stroke-width="1.47491"/>
</g>
<rect x="89.4729" y="155.623" width="77.4325" height="45.5607" rx="5.89962" fill="#4CB853" fill-opacity="0.6"/>
<g filter="url(#filter1_d_116_4761)">
<path d="M149.569 68.1421H148.819C148.819 68.5563 149.155 68.8921 149.569 68.8921V68.1421ZM150.175 64.7871L149.495 64.4699C149.492 64.4762 149.489 64.4825 149.486 64.4889L150.175 64.7871ZM151.759 62.3174L151.205 61.8117C151.201 61.8162 151.197 61.8207 151.193 61.8253L151.759 62.3174ZM153.809 60.3137L153.329 59.7376C153.325 59.7409 153.321 59.7443 153.317 59.7478L153.809 60.3137ZM155.906 58.4498L156.423 58.9929C156.428 58.9887 156.432 58.9845 156.436 58.9802L155.906 58.4498ZM157.49 56.3529L158.15 56.7102L158.156 56.699L157.49 56.3529ZM145.422 48.9439L145.715 49.6342L145.728 49.6287L145.422 48.9439ZM141.694 51.7398L141.242 52.3384C141.563 52.5803 142.017 52.5268 142.272 52.2171L141.694 51.7398ZM139.224 49.8759L138.639 49.4074C138.512 49.5656 138.455 49.7682 138.48 49.9692C138.505 50.1702 138.611 50.3525 138.772 50.4745L139.224 49.8759ZM156.465 46.0083L156.18 46.7018L156.184 46.7037L156.465 46.0083ZM160.193 48.8041L159.584 49.2416L159.591 49.2517L160.193 48.8041ZM160.892 56.5859L160.208 56.2772L160.204 56.2877L160.892 56.5859ZM159.308 59.1022L158.743 58.6083L158.742 58.6101L159.308 59.1022ZM157.257 61.1525L157.75 61.7184L157.751 61.7169L157.257 61.1525ZM153.623 65.2531L154.294 65.5885L153.623 65.2531ZM153.017 68.1421V68.8921C153.431 68.8921 153.767 68.5563 153.767 68.1421H153.017ZM149.569 77.4616L149.022 77.9746C149.033 77.9864 149.044 77.9978 149.056 78.0088L149.569 77.4616ZM149.569 74.06L150.081 74.6083L150.082 74.6072L149.569 74.06ZM153.064 74.06L152.533 74.5903C152.539 74.5964 152.546 74.6024 152.552 74.6083L153.064 74.06ZM153.064 77.4616L153.594 77.992C153.6 77.9863 153.605 77.9805 153.611 77.9746L153.064 77.4616ZM150.319 68.1421C150.319 66.912 150.51 65.9004 150.863 65.0853L149.486 64.4889C149.032 65.5377 148.819 66.7628 148.819 68.1421H150.319ZM150.854 65.1043C151.262 64.2302 151.753 63.467 152.325 62.8096L151.193 61.8253C150.522 62.5969 149.957 63.4801 149.495 64.4699L150.854 65.1043ZM152.313 62.8231C152.946 62.1294 153.609 61.4817 154.301 60.8797L153.317 59.7478C152.58 60.3884 151.876 61.0764 151.205 61.8117L152.313 62.8231ZM154.289 60.8899C155.047 60.2588 155.758 59.6265 156.423 58.9929L155.389 57.9067C154.749 58.5158 154.063 59.1261 153.329 59.7376L154.289 60.8899ZM156.436 58.9802C157.135 58.2811 157.709 57.5247 158.15 56.7102L156.831 55.9957C156.464 56.6723 155.981 57.3138 155.376 57.9195L156.436 58.9802ZM158.156 56.699C158.624 55.7986 158.846 54.7753 158.846 53.6503H157.346C157.346 54.5756 157.164 55.3541 156.825 56.0069L158.156 56.699ZM158.846 53.6503C158.846 51.7463 158.091 50.1653 156.611 48.9668L155.667 50.1326C156.796 51.0466 157.346 52.1993 157.346 53.6503H158.846ZM156.611 48.9668C155.126 47.7648 153.086 47.2154 150.594 47.2154V48.7154C152.886 48.7154 154.543 49.2222 155.667 50.1326L156.611 48.9668ZM150.594 47.2154C148.525 47.2154 146.692 47.5547 145.116 48.2592L145.728 49.6287C147.071 49.0285 148.686 48.7154 150.594 48.7154V47.2154ZM145.128 48.2538C143.556 48.9229 142.216 49.9286 141.115 51.2625L142.272 52.2171C143.222 51.0658 144.368 50.2075 145.715 49.634L145.128 48.2538ZM142.146 51.1411L139.676 49.2772L138.772 50.4745L141.242 52.3384L142.146 51.1411ZM139.81 50.3444C140.97 48.8943 142.467 47.7709 144.319 46.9772L143.728 45.5985C141.666 46.4824 139.964 47.751 138.639 49.4074L139.81 50.3444ZM144.319 46.9772C146.165 46.186 148.329 45.7797 150.827 45.7797V44.2797C148.168 44.2797 145.796 44.7122 143.728 45.5985L144.319 46.9772ZM150.827 45.7797C152.929 45.7797 154.707 46.0953 156.18 46.7018L156.751 45.3148C155.055 44.6165 153.074 44.2797 150.827 44.2797V45.7797ZM156.184 46.7037C157.691 47.312 158.81 48.1636 159.584 49.2415L160.802 48.3667C159.837 47.0216 158.471 46.0093 156.746 45.3129L156.184 46.7037ZM159.591 49.2517C160.385 50.3195 160.794 51.6026 160.794 53.1377H162.294C162.294 51.3178 161.803 49.7119 160.795 48.3566L159.591 49.2517ZM160.794 53.1377C160.794 54.3943 160.59 55.4333 160.209 56.2772L161.576 56.8946C162.064 55.8125 162.294 54.5528 162.294 53.1377H160.794ZM160.204 56.2877C159.83 57.1503 159.343 57.9227 158.743 58.6083L159.872 59.5961C160.577 58.7906 161.146 57.8855 161.58 56.8841L160.204 56.2877ZM158.742 58.6101C158.144 59.2977 157.485 59.9571 156.764 60.5881L157.751 61.7169C158.521 61.0432 159.229 60.3357 159.874 59.5943L158.742 58.6101ZM156.765 60.5865C156.038 61.219 155.342 61.8677 154.677 62.5327L155.737 63.5933C156.377 62.9536 157.048 62.3286 157.75 61.7184L156.765 60.5865ZM154.677 62.5327C153.969 63.2408 153.393 64.0363 152.952 64.9177L154.294 65.5885C154.661 64.8545 155.141 64.1899 155.737 63.5933L154.677 62.5327ZM152.952 64.9177C152.485 65.8514 152.267 66.9346 152.267 68.1421H153.767C153.767 67.113 153.953 66.2702 154.294 65.5885L152.952 64.9177ZM153.017 67.3921H149.569V68.8921H153.017V67.3921ZM151.293 77.4106C150.84 77.4106 150.447 77.2565 150.082 76.9145L149.056 78.0088C149.685 78.5987 150.441 78.9106 151.293 78.9106V77.4106ZM150.116 76.9487C149.774 76.5838 149.62 76.1902 149.62 75.7375H148.12C148.12 76.5896 148.432 77.3453 149.022 77.9746L150.116 76.9487ZM149.62 75.7375C149.62 75.2452 149.778 74.8903 150.081 74.6083L149.057 73.5117C148.427 74.0995 148.12 74.863 148.12 75.7375H149.62ZM150.082 74.6072C150.447 74.2651 150.84 74.1111 151.293 74.1111V72.6111C150.441 72.6111 149.685 72.9229 149.056 73.5129L150.082 74.6072ZM151.293 74.1111C151.827 74.1111 152.221 74.2776 152.533 74.5903L153.594 73.5297C152.975 72.9105 152.188 72.6111 151.293 72.6111V74.1111ZM152.552 74.6083C152.854 74.8903 153.013 75.2452 153.013 75.7375H154.513C154.513 74.863 154.205 74.0995 153.575 73.5117L152.552 74.6083ZM153.013 75.7375C153.013 76.1902 152.859 76.5838 152.516 76.9487L153.611 77.9746C154.201 77.3453 154.513 76.5896 154.513 75.7375H153.013ZM152.533 76.9313C152.221 77.2441 151.827 77.4106 151.293 77.4106V78.9106C152.188 78.9106 152.975 78.6111 153.594 77.992L152.533 76.9313ZM169.446 68.1421L168.696 68.1635C168.708 68.5693 169.04 68.8921 169.446 68.8921V68.1421ZM168.794 45.3093V44.5593C168.591 44.5593 168.397 44.6413 168.256 44.7866C168.115 44.9319 168.038 45.1282 168.044 45.3307L168.794 45.3093ZM172.708 45.3093L173.457 45.3323C173.464 45.1295 173.387 44.9328 173.246 44.7872C173.105 44.6415 172.911 44.5593 172.708 44.5593V45.3093ZM172.009 68.1421V68.8921C172.414 68.8921 172.746 68.5702 172.758 68.1651L172.009 68.1421ZM168.98 77.4616L168.433 77.9746C168.444 77.9864 168.455 77.9978 168.467 78.0088L168.98 77.4616ZM168.98 74.06L169.492 74.6083L169.493 74.6072L168.98 74.06ZM172.475 74.06L171.927 74.5718C171.938 74.5844 171.95 74.5965 171.963 74.6083L172.475 74.06ZM172.475 77.4616L171.928 76.9487L171.927 76.9499L172.475 77.4616ZM170.196 68.1207L169.543 45.2879L168.044 45.3307L168.696 68.1635L170.196 68.1207ZM168.794 46.0593H172.708V44.5593H168.794V46.0593ZM171.958 45.2864L171.259 68.1192L172.758 68.1651L173.457 45.3323L171.958 45.2864ZM172.009 67.3921H169.446V68.8921H172.009V67.3921ZM170.751 77.4106C170.257 77.4106 169.85 77.2497 169.493 76.9145L168.467 78.0088C169.104 78.6055 169.877 78.9106 170.751 78.9106V77.4106ZM169.527 76.9487C169.185 76.5838 169.031 76.1902 169.031 75.7375H167.531C167.531 76.5896 167.843 77.3453 168.433 77.9746L169.527 76.9487ZM169.031 75.7375C169.031 75.2452 169.19 74.8903 169.492 74.6083L168.468 73.5117C167.838 74.0995 167.531 74.863 167.531 75.7375H169.031ZM169.493 74.6072C169.85 74.272 170.257 74.1111 170.751 74.1111V72.6111C169.877 72.6111 169.104 72.9161 168.467 73.5129L169.493 74.6072ZM170.751 74.1111C171.285 74.1111 171.651 74.2769 171.927 74.5718L173.023 73.5483C172.428 72.9111 171.645 72.6111 170.751 72.6111V74.1111ZM171.963 74.6083C172.265 74.8903 172.424 75.2452 172.424 75.7375H173.924C173.924 74.863 173.616 74.0995 172.987 73.5117L171.963 74.6083ZM172.424 75.7375C172.424 76.1902 172.27 76.5838 171.928 76.9487L173.022 77.9746C173.612 77.3453 173.924 76.5896 173.924 75.7375H172.424ZM171.927 76.9499C171.651 77.2447 171.285 77.4106 170.751 77.4106V78.9106C171.645 78.9106 172.428 78.6105 173.023 77.9734L171.927 76.9499Z" fill="#2C9C48"/>
</g>
<rect x="128.189" y="169.017" width="13.2742" height="13.2742" transform="rotate(45 128.189 169.017)" stroke="#2C9C48" stroke-width="1.47491"/>
<path d="M92.748 69.6558C92.748 69.6558 105.071 84.1124 100.085 90.5659C96.1439 95.666 89.3521 95.666 85.4112 90.5659C80.4246 84.1124 92.748 69.6558 92.748 69.6558Z" fill="#F8961D" fill-opacity="0.4"/>
<defs>
<filter id="filter0_d_116_4761" x="80.942" y="145.905" width="98.4943" height="68.9962" filterUnits="userSpaceOnUse" color-interpolation-filters="sRGB">
<feFlood flood-opacity="0" result="BackgroundImageFix"/>
<feColorMatrix in="SourceAlpha" type="matrix" values="0 0 0 0 0 0 0 0 0 0 0 0 0 0 0 0 0 0 127 0" result="hardAlpha"/>
<feOffset dx="2" dy="2"/>
<feGaussianBlur stdDeviation="2.5"/>
<feComposite in2="hardAlpha" operator="out"/>
<feColorMatrix type="matrix" values="0 0 0 0 0.172549 0 0 0 0 0.611765 0 0 0 0 0.282353 0 0 0 0.25 0"/>
<feBlend mode="normal" in2="BackgroundImageFix" result="effect1_dropShadow_116_4761"/>
<feBlend mode="normal" in="SourceGraphic" in2="effect1_dropShadow_116_4761" result="shape"/>
</filter>
<filter id="filter1_d_116_4761" x="136.224" y="42.0298" width="43.9497" height="43.1309" filterUnits="userSpaceOnUse" color-interpolation-filters="sRGB">
<feFlood flood-opacity="0" result="BackgroundImageFix"/>
<feColorMatrix in="SourceAlpha" type="matrix" values="0 0 0 0 0 0 0 0 0 0 0 0 0 0 0 0 0 0 127 0" result="hardAlpha"/>
<feOffset dx="2" dy="2"/>
<feGaussianBlur stdDeviation="2.5"/>
<feComposite in2="hardAlpha" operator="out"/>
<feColorMatrix type="matrix" values="0 0 0 0 0.172549 0 0 0 0 0.611765 0 0 0 0 0.282353 0 0 0 0.25 0"/>
<feBlend mode="normal" in2="BackgroundImageFix" result="effect1_dropShadow_116_4761"/>
<feBlend mode="normal" in="SourceGraphic" in2="effect1_dropShadow_116_4761" result="shape"/>
</filter>
</defs>
</svg>
