<svg width="255" height="255" viewBox="0 0 255 255" fill="none" xmlns="http://www.w3.org/2000/svg">
<path d="M232.183 154.229C232.183 186.37 184.018 185.696 140.791 185.696C97.5643 185.696 62.522 159.641 62.522 127.499C62.522 95.3583 97.5643 69.3027 140.791 69.3027C184.018 69.3027 232.183 122.088 232.183 154.229Z" fill="#F8961D" fill-opacity="0.4"/>
<g filter="url(#filter0_d_116_4680)">
<rect x="74.7192" y="170.689" width="18.5" height="58.5" rx="3.25" stroke="#2C9C48" stroke-width="1.5" shape-rendering="crispEdges"/>
</g>
<g filter="url(#filter1_d_116_4680)">
<rect x="109.528" y="150.689" width="18.5" height="78.5" rx="3.25" stroke="#2C9C48" stroke-width="1.5" shape-rendering="crispEdges"/>
</g>
<g filter="url(#filter2_d_116_4680)">
<rect x="144.337" y="130.689" width="18.5" height="98.5" rx="3.25" stroke="#2C9C48" stroke-width="1.5" shape-rendering="crispEdges"/>
</g>
<g filter="url(#filter3_d_116_4680)">
<rect x="179.146" y="110.689" width="18.5" height="118.5" rx="3.25" stroke="#2C9C48" stroke-width="1.5" shape-rendering="crispEdges"/>
</g>
<g filter="url(#filter4_d_116_4680)">
<rect x="213.955" y="90.6895" width="18.5" height="138.5" rx="3.25" stroke="#2C9C48" stroke-width="1.5" shape-rendering="crispEdges"/>
</g>
<g filter="url(#filter5_d_116_4680)">
<path d="M74.8695 154.837C74.4694 154.944 74.232 155.355 74.3392 155.755C74.4464 156.155 74.8577 156.393 75.2578 156.285L74.8695 154.837ZM154.015 105.743L154.435 106.365L154.015 105.743ZM225.183 50.4171C225.213 50.004 224.903 49.6448 224.489 49.6148L217.757 49.1263C217.344 49.0963 216.985 49.4069 216.955 49.82C216.925 50.2331 217.235 50.5923 217.649 50.6223L223.633 51.0566L223.199 57.0408C223.169 57.454 223.479 57.8132 223.892 57.8432C224.305 57.8731 224.665 57.5625 224.695 57.1494L225.183 50.4171ZM75.2578 156.285C75.5205 156.215 75.9314 156.02 76.4052 155.776C76.9078 155.517 77.5603 155.16 78.3456 154.716C79.9174 153.827 82.0423 152.576 84.6062 151.035C89.7351 147.951 96.6356 143.693 104.411 138.809C119.962 129.042 139.025 116.766 154.435 106.365L153.596 105.121C138.204 115.511 119.155 127.778 103.613 137.539C95.8424 142.42 88.9509 146.672 83.8333 149.749C81.2739 151.288 79.1619 152.531 77.6071 153.41C76.8291 153.85 76.1958 154.197 75.7182 154.443C75.2117 154.704 74.9479 154.816 74.8695 154.837L75.2578 156.285ZM154.435 106.365C168.99 96.54 186.617 82.6771 200.594 71.2806C207.584 65.5803 213.667 60.4933 218.001 56.8313C220.169 55.0002 221.899 53.5253 223.088 52.508C223.683 51.9994 224.142 51.6051 224.453 51.3379C224.608 51.2043 224.726 51.1024 224.805 51.034C224.845 50.9997 224.875 50.9738 224.895 50.9564C224.905 50.9478 224.913 50.9412 224.918 50.9368C224.921 50.9346 224.922 50.933 224.924 50.9319C224.924 50.9313 224.925 50.9309 224.925 50.9306C224.926 50.9303 224.926 50.9302 224.435 50.3628C223.945 49.7955 223.944 49.7956 223.944 49.7959C223.944 49.7961 223.943 49.7965 223.943 49.7971C223.942 49.7981 223.94 49.7997 223.937 49.8019C223.932 49.8062 223.925 49.8126 223.915 49.8212C223.895 49.8384 223.865 49.8641 223.826 49.8981C223.747 49.9662 223.629 50.0676 223.474 50.2008C223.165 50.4672 222.707 50.8605 222.113 51.3683C220.926 52.3838 219.198 53.8566 217.033 55.6855C212.704 59.3432 206.628 64.4245 199.646 70.1181C185.675 81.5092 168.092 95.3365 153.596 105.121L154.435 106.365Z" fill="#2C9C48"/>
</g>
<g filter="url(#filter6_d_116_4680)">
<circle cx="38.9692" cy="120.972" r="34.25" stroke="#2C9C48" stroke-width="1.5" shape-rendering="crispEdges"/>
</g>
<g filter="url(#filter7_d_116_4680)">
<path d="M26.2734 105.296L37.6112 134.323C37.9376 135.159 39.1141 135.175 39.4636 134.349L46.912 116.744" stroke="#2C9C48" stroke-width="1.5" stroke-linecap="round"/>
</g>
<defs>
<filter id="filter0_d_116_4680" x="70.9692" y="166.939" width="30" height="70" filterUnits="userSpaceOnUse" color-interpolation-filters="sRGB">
<feFlood flood-opacity="0" result="BackgroundImageFix"/>
<feColorMatrix in="SourceAlpha" type="matrix" values="0 0 0 0 0 0 0 0 0 0 0 0 0 0 0 0 0 0 127 0" result="hardAlpha"/>
<feOffset dx="2" dy="2"/>
<feGaussianBlur stdDeviation="2.5"/>
<feComposite in2="hardAlpha" operator="out"/>
<feColorMatrix type="matrix" values="0 0 0 0 0.172549 0 0 0 0 0.611765 0 0 0 0 0.282353 0 0 0 0.25 0"/>
<feBlend mode="normal" in2="BackgroundImageFix" result="effect1_dropShadow_116_4680"/>
<feBlend mode="normal" in="SourceGraphic" in2="effect1_dropShadow_116_4680" result="shape"/>
</filter>
<filter id="filter1_d_116_4680" x="105.778" y="146.939" width="30" height="90" filterUnits="userSpaceOnUse" color-interpolation-filters="sRGB">
<feFlood flood-opacity="0" result="BackgroundImageFix"/>
<feColorMatrix in="SourceAlpha" type="matrix" values="0 0 0 0 0 0 0 0 0 0 0 0 0 0 0 0 0 0 127 0" result="hardAlpha"/>
<feOffset dx="2" dy="2"/>
<feGaussianBlur stdDeviation="2.5"/>
<feComposite in2="hardAlpha" operator="out"/>
<feColorMatrix type="matrix" values="0 0 0 0 0.172549 0 0 0 0 0.611765 0 0 0 0 0.282353 0 0 0 0.25 0"/>
<feBlend mode="normal" in2="BackgroundImageFix" result="effect1_dropShadow_116_4680"/>
<feBlend mode="normal" in="SourceGraphic" in2="effect1_dropShadow_116_4680" result="shape"/>
</filter>
<filter id="filter2_d_116_4680" x="140.587" y="126.939" width="30" height="110" filterUnits="userSpaceOnUse" color-interpolation-filters="sRGB">
<feFlood flood-opacity="0" result="BackgroundImageFix"/>
<feColorMatrix in="SourceAlpha" type="matrix" values="0 0 0 0 0 0 0 0 0 0 0 0 0 0 0 0 0 0 127 0" result="hardAlpha"/>
<feOffset dx="2" dy="2"/>
<feGaussianBlur stdDeviation="2.5"/>
<feComposite in2="hardAlpha" operator="out"/>
<feColorMatrix type="matrix" values="0 0 0 0 0.172549 0 0 0 0 0.611765 0 0 0 0 0.282353 0 0 0 0.25 0"/>
<feBlend mode="normal" in2="BackgroundImageFix" result="effect1_dropShadow_116_4680"/>
<feBlend mode="normal" in="SourceGraphic" in2="effect1_dropShadow_116_4680" result="shape"/>
</filter>
<filter id="filter3_d_116_4680" x="175.396" y="106.939" width="30" height="130" filterUnits="userSpaceOnUse" color-interpolation-filters="sRGB">
<feFlood flood-opacity="0" result="BackgroundImageFix"/>
<feColorMatrix in="SourceAlpha" type="matrix" values="0 0 0 0 0 0 0 0 0 0 0 0 0 0 0 0 0 0 127 0" result="hardAlpha"/>
<feOffset dx="2" dy="2"/>
<feGaussianBlur stdDeviation="2.5"/>
<feComposite in2="hardAlpha" operator="out"/>
<feColorMatrix type="matrix" values="0 0 0 0 0.172549 0 0 0 0 0.611765 0 0 0 0 0.282353 0 0 0 0.25 0"/>
<feBlend mode="normal" in2="BackgroundImageFix" result="effect1_dropShadow_116_4680"/>
<feBlend mode="normal" in="SourceGraphic" in2="effect1_dropShadow_116_4680" result="shape"/>
</filter>
<filter id="filter4_d_116_4680" x="210.205" y="86.9395" width="30" height="150" filterUnits="userSpaceOnUse" color-interpolation-filters="sRGB">
<feFlood flood-opacity="0" result="BackgroundImageFix"/>
<feColorMatrix in="SourceAlpha" type="matrix" values="0 0 0 0 0 0 0 0 0 0 0 0 0 0 0 0 0 0 127 0" result="hardAlpha"/>
<feOffset dx="2" dy="2"/>
<feGaussianBlur stdDeviation="2.5"/>
<feComposite in2="hardAlpha" operator="out"/>
<feColorMatrix type="matrix" values="0 0 0 0 0.172549 0 0 0 0 0.611765 0 0 0 0 0.282353 0 0 0 0.25 0"/>
<feBlend mode="normal" in2="BackgroundImageFix" result="effect1_dropShadow_116_4680"/>
<feBlend mode="normal" in="SourceGraphic" in2="effect1_dropShadow_116_4680" result="shape"/>
</filter>
<filter id="filter5_d_116_4680" x="71.3135" y="46.1243" width="160.872" height="117.187" filterUnits="userSpaceOnUse" color-interpolation-filters="sRGB">
<feFlood flood-opacity="0" result="BackgroundImageFix"/>
<feColorMatrix in="SourceAlpha" type="matrix" values="0 0 0 0 0 0 0 0 0 0 0 0 0 0 0 0 0 0 127 0" result="hardAlpha"/>
<feOffset dx="2" dy="2"/>
<feGaussianBlur stdDeviation="2.5"/>
<feComposite in2="hardAlpha" operator="out"/>
<feColorMatrix type="matrix" values="0 0 0 0 0.172549 0 0 0 0 0.611765 0 0 0 0 0.282353 0 0 0 0.25 0"/>
<feBlend mode="normal" in2="BackgroundImageFix" result="effect1_dropShadow_116_4680"/>
<feBlend mode="normal" in="SourceGraphic" in2="effect1_dropShadow_116_4680" result="shape"/>
</filter>
<filter id="filter6_d_116_4680" x="0.969238" y="82.9724" width="80" height="80" filterUnits="userSpaceOnUse" color-interpolation-filters="sRGB">
<feFlood flood-opacity="0" result="BackgroundImageFix"/>
<feColorMatrix in="SourceAlpha" type="matrix" values="0 0 0 0 0 0 0 0 0 0 0 0 0 0 0 0 0 0 127 0" result="hardAlpha"/>
<feOffset dx="2" dy="2"/>
<feGaussianBlur stdDeviation="2.5"/>
<feComposite in2="hardAlpha" operator="out"/>
<feColorMatrix type="matrix" values="0 0 0 0 0.172549 0 0 0 0 0.611765 0 0 0 0 0.282353 0 0 0 0.25 0"/>
<feBlend mode="normal" in2="BackgroundImageFix" result="effect1_dropShadow_116_4680"/>
<feBlend mode="normal" in="SourceGraphic" in2="effect1_dropShadow_116_4680" result="shape"/>
</filter>
<filter id="filter7_d_116_4680" x="22.5232" y="101.545" width="32.1389" height="41.1641" filterUnits="userSpaceOnUse" color-interpolation-filters="sRGB">
<feFlood flood-opacity="0" result="BackgroundImageFix"/>
<feColorMatrix in="SourceAlpha" type="matrix" values="0 0 0 0 0 0 0 0 0 0 0 0 0 0 0 0 0 0 127 0" result="hardAlpha"/>
<feOffset dx="2" dy="2"/>
<feGaussianBlur stdDeviation="2.5"/>
<feComposite in2="hardAlpha" operator="out"/>
<feColorMatrix type="matrix" values="0 0 0 0 0.172549 0 0 0 0 0.611765 0 0 0 0 0.282353 0 0 0 0.25 0"/>
<feBlend mode="normal" in2="BackgroundImageFix" result="effect1_dropShadow_116_4680"/>
<feBlend mode="normal" in="SourceGraphic" in2="effect1_dropShadow_116_4680" result="shape"/>
</filter>
</defs>
</svg>
