<svg width="255" height="255" viewBox="0 0 255 255" fill="none" xmlns="http://www.w3.org/2000/svg">
<g clip-path="url(#clip0_116_4690)">
<path d="M199.265 57.925C226.324 87.9768 213.661 93.8965 178.398 125.648C143.135 157.4 41.7185 151.041 14.6593 120.989C-12.3999 90.9368 45.1445 48.5726 80.408 16.8208C115.671 -14.931 172.206 27.8731 199.265 57.925Z" fill="#F8961D" fill-opacity="0.4"/>
<g filter="url(#filter0_d_116_4690)">
<path d="M191.9 148.829C191.9 119.547 173.733 95.8087 151.323 95.8087C128.913 95.8087 110.746 119.547 110.746 148.829" stroke="#2C9C48" stroke-width="1.5"/>
<path d="M114.253 163.796C114.253 169.086 113.138 173.838 111.37 177.241C109.583 180.68 107.246 182.549 104.869 182.549C102.493 182.549 100.156 180.68 98.3691 177.241C96.6012 173.838 95.4854 169.086 95.4854 163.796C95.4854 158.505 96.6012 153.753 98.3691 150.351C100.156 146.911 102.493 145.042 104.869 145.042C107.246 145.042 109.583 146.911 111.37 150.351C113.138 153.753 114.253 158.505 114.253 163.796Z" stroke="#2C9C48" stroke-width="1.5"/>
<path d="M207.427 163.796C207.427 169.086 206.311 173.838 204.543 177.241C202.756 180.68 200.419 182.549 198.043 182.549C195.666 182.549 193.329 180.68 191.542 177.241C189.774 173.838 188.658 169.086 188.658 163.796C188.658 158.505 189.774 153.753 191.542 150.351C193.329 146.911 195.666 145.042 198.043 145.042C200.419 145.042 202.756 146.911 204.543 150.351C206.311 153.753 207.427 158.505 207.427 163.796Z" stroke="#2C9C48" stroke-width="1.5"/>
<circle cx="156.047" cy="207.623" r="6.69787" stroke="#2C9C48" stroke-width="1.5"/>
<path d="M191.549 178.088C191.549 194.769 178.628 208.292 162.689 208.292" stroke="#2C9C48" stroke-width="1.5"/>
</g>
<g filter="url(#filter1_d_116_4690)">
<path d="M62.1857 35.9618C61.9469 35.0409 62.7835 34.2015 63.7052 34.437L112.863 47.0005C113.416 47.1419 113.803 47.6404 113.803 48.2116V84.6584C113.803 85.3488 113.244 85.9084 112.553 85.9084H76.1008C75.5312 85.9084 75.0337 85.5234 74.8908 84.9721L62.1857 35.9618Z" stroke="#2C9C48" stroke-width="1.5" shape-rendering="crispEdges"/>
</g>
<g filter="url(#filter2_d_116_4690)">
<path d="M87.2553 64.6305H85.7553C85.7553 65.4589 86.4269 66.1305 87.2553 66.1305V64.6305ZM87.666 62.3557L86.3067 61.7214C86.3009 61.734 86.2952 61.7466 86.2897 61.7593L87.666 62.3557ZM88.7402 60.6813L87.6325 59.6699C87.6243 59.6788 87.6162 59.6879 87.6083 59.697L88.7402 60.6813ZM90.1303 59.3228L89.17 58.1704C89.162 58.1772 89.154 58.184 89.146 58.1909L90.1303 59.3228ZM91.552 58.059L92.5865 59.1452C92.5953 59.1368 92.6041 59.1283 92.6127 59.1197L91.552 58.059ZM92.6262 56.6373L93.9451 57.3517C93.9492 57.3443 93.9531 57.3368 93.957 57.3293L92.6262 56.6373ZM84.4435 51.6139L85.0308 52.9942C85.039 52.9907 85.0472 52.9871 85.0554 52.9834L84.4435 51.6139ZM81.916 53.5095L81.0124 54.7068C81.6535 55.1907 82.5619 55.0837 83.073 54.4641L81.916 53.5095ZM80.2415 52.2458L79.0702 51.3088C78.8171 51.6251 78.7028 52.0305 78.7532 52.4325C78.8036 52.8345 79.0145 53.199 79.3379 53.4431L80.2415 52.2458ZM91.9312 49.6235L91.36 51.0106L91.3695 51.0144L91.9312 49.6235ZM94.4586 51.5191L93.2402 52.394C93.245 52.4007 93.25 52.4075 93.2549 52.4142L94.4586 51.5191ZM94.9325 56.7953L93.5655 56.1779C93.5623 56.1849 93.5592 56.1919 93.5562 56.1989L94.9325 56.7953ZM93.8584 58.5013L92.7295 57.5136L92.7265 57.5171L93.8584 58.5013ZM92.4682 59.8914L93.4525 61.0234L93.456 61.0203L92.4682 59.8914ZM90.0039 62.6717L91.3456 63.3425L90.0039 62.6717ZM89.5932 64.6305V66.1305C90.4217 66.1305 91.0932 65.4589 91.0932 64.6305H89.5932ZM87.2553 70.9492L86.161 71.9751C86.1831 71.9986 86.2059 72.0215 86.2294 72.0435L87.2553 70.9492ZM87.2553 68.6429L88.2788 69.7395L88.2812 69.7372L87.2553 68.6429ZM89.6248 68.6429L88.5642 69.7035C88.5763 69.7157 88.5887 69.7277 88.6013 69.7395L89.6248 68.6429ZM89.6248 70.9492L90.6855 72.0099C90.6969 71.9985 90.7081 71.9869 90.7191 71.9751L89.6248 70.9492ZM88.7553 64.6305C88.7553 63.895 88.8698 63.3504 89.0424 62.9522L86.2897 61.7593C85.9146 62.6248 85.7553 63.5967 85.7553 64.6305H88.7553ZM89.0253 62.9901C89.2661 62.474 89.5501 62.0358 89.8721 61.6656L87.6083 59.697C87.0878 60.2956 86.6557 60.9737 86.3067 61.7214L89.0253 62.9901ZM89.8479 61.6927C90.2523 61.2498 90.6745 60.8373 91.1146 60.4547L89.146 58.1909C88.6172 58.6507 88.1127 59.1439 87.6325 59.6699L89.8479 61.6927ZM91.0906 60.4751C91.6196 60.0342 92.1185 59.591 92.5865 59.1452L90.5175 56.9728C90.101 57.3695 89.652 57.7688 89.17 58.1704L91.0906 60.4751ZM92.6127 59.1197C93.1484 58.584 93.5966 57.9952 93.9451 57.3517L91.3073 55.9229C91.1082 56.2904 90.8403 56.6494 90.4914 56.9984L92.6127 59.1197ZM93.957 57.3293C94.3596 56.5552 94.5369 55.6996 94.5369 54.8049H91.5369C91.5369 55.3003 91.4405 55.6663 91.2954 55.9453L93.957 57.3293ZM94.5369 54.8049C94.5369 53.2145 93.8899 51.8595 92.6538 50.8588L90.7662 53.1905C91.2993 53.6221 91.5369 54.1205 91.5369 54.8049H94.5369ZM92.6538 50.8588C91.409 49.8511 89.7729 49.4505 87.9504 49.4505V52.4505C89.3715 52.4505 90.2418 52.766 90.7662 53.1905L92.6538 50.8588ZM87.9504 49.4505C86.4413 49.4505 85.0548 49.6978 83.8316 50.2444L85.0554 52.9834C85.812 52.6454 86.7634 52.4505 87.9504 52.4505V49.4505ZM83.8561 50.2337C82.6414 50.7506 81.6046 51.5299 80.7589 52.555L83.073 54.4641C83.6175 53.8042 84.2656 53.3198 85.0308 52.9942L83.8561 50.2337ZM82.8196 52.3123L81.1451 51.0485L79.3379 53.4431L81.0124 54.7068L82.8196 52.3123ZM81.4128 53.1828C82.0903 52.336 82.97 51.6703 84.0865 51.1918L82.9048 48.4344C81.3674 49.0932 80.0777 50.0494 79.0702 51.3088L81.4128 53.1828ZM84.0865 51.1918C85.1918 50.7181 86.5214 50.4601 88.1083 50.4601V47.4601C86.1989 47.4601 84.4534 47.7707 82.9048 48.4344L84.0865 51.1918ZM88.1083 50.4601C89.4374 50.4601 90.5086 50.66 91.36 51.0105L92.5023 48.2365C91.2053 47.7025 89.728 47.4601 88.1083 47.4601V50.4601ZM91.3695 51.0144C92.2464 51.3685 92.8423 51.8398 93.2402 52.394L95.6771 50.6443C94.8955 49.5556 93.8064 48.7631 92.4928 48.2327L91.3695 51.0144ZM93.2549 52.4142C93.652 52.9482 93.8749 53.6048 93.8749 54.4574H96.8749C96.8749 53.0352 96.4869 51.733 95.6623 50.6241L93.2549 52.4142ZM93.8749 54.4574C93.8749 55.2045 93.7528 55.7631 93.5655 56.1779L96.2996 57.4127C96.702 56.5216 96.8749 55.5216 96.8749 54.4574H93.8749ZM93.5562 56.1989C93.3426 56.6919 93.067 57.1279 92.7295 57.5136L94.9872 59.4891C95.5344 58.8638 95.9749 58.1624 96.3089 57.3917L93.5562 56.1989ZM92.7265 57.5171C92.3519 57.9478 91.9371 58.3631 91.4805 58.7626L93.456 61.0203C94.0104 60.5352 94.5223 60.0238 94.9903 59.4856L92.7265 57.5171ZM91.484 58.7595C90.9739 59.203 90.485 59.6586 90.0175 60.1261L92.1388 62.2474C92.5558 61.8304 92.9937 61.4223 93.4525 61.0234L91.484 58.7595ZM90.0175 60.1261C89.4637 60.6799 89.0098 61.3059 88.6623 62.0009L91.3456 63.3425C91.5457 62.9422 91.808 62.5783 92.1388 62.2474L90.0175 60.1261ZM88.6623 62.0009C88.2625 62.8005 88.0932 63.6938 88.0932 64.6305H91.0932C91.0932 64.0507 91.1978 63.6381 91.3456 63.3425L88.6623 62.0009ZM89.5932 63.1305H87.2553V66.1305H89.5932V63.1305ZM88.4243 69.9231C88.3861 69.9231 88.3704 69.9172 88.3638 69.9145C88.3561 69.9114 88.3284 69.8991 88.2812 69.8549L86.2294 72.0435C86.8308 72.6073 87.5826 72.9231 88.4243 72.9231V69.9231ZM88.3496 69.9233C88.3054 69.8761 88.2931 69.8484 88.29 69.8407C88.2873 69.8341 88.2814 69.8184 88.2814 69.7802H85.2814C85.2814 70.6219 85.5972 71.3737 86.161 71.9751L88.3496 69.9233ZM88.2814 69.7802C88.2814 69.7497 88.284 69.7321 88.2853 69.7249C88.2866 69.7182 88.287 69.7192 88.2845 69.7253C88.2819 69.7315 88.2783 69.7378 88.275 69.7426C88.2718 69.7471 88.2718 69.7459 88.2788 69.7395L86.2318 67.5463C85.5882 68.147 85.2814 68.9347 85.2814 69.7802H88.2814ZM88.2812 69.7372C88.3284 69.6929 88.3561 69.6807 88.3638 69.6776C88.3704 69.6749 88.3861 69.669 88.4243 69.669V66.669C87.5826 66.669 86.8308 66.9847 86.2294 67.5486L88.2812 69.7372ZM88.4243 69.669C88.5016 69.669 88.533 69.6811 88.537 69.6827C88.5401 69.6839 88.542 69.6849 88.5443 69.6864C88.5467 69.688 88.5534 69.6927 88.5642 69.7035L90.6855 67.5822C90.0631 66.9599 89.2696 66.669 88.4243 66.669V69.669ZM88.6013 69.7395C88.6083 69.7459 88.6083 69.7471 88.6051 69.7426C88.6018 69.7378 88.5982 69.7315 88.5956 69.7253C88.5931 69.7192 88.5935 69.7182 88.5948 69.7249C88.5961 69.7321 88.5987 69.7497 88.5987 69.7802H91.5987C91.5987 68.9347 91.2919 68.147 90.6483 67.5463L88.6013 69.7395ZM88.5987 69.7802C88.5987 69.8184 88.5928 69.8341 88.5901 69.8407C88.587 69.8484 88.5747 69.8761 88.5305 69.9233L90.7191 71.9751C91.2829 71.3737 91.5987 70.6219 91.5987 69.7802H88.5987ZM88.5642 69.8885C88.5534 69.8994 88.5467 69.9041 88.5443 69.9056C88.542 69.9071 88.5401 69.9082 88.537 69.9094C88.533 69.911 88.5016 69.9231 88.4243 69.9231V72.9231C89.2696 72.9231 90.0631 72.6322 90.6855 72.0099L88.5642 69.8885Z" fill="#2C9C48"/>
</g>
<g filter="url(#filter3_d_116_4690)">
<path d="M36.0742 95.4504C36.0742 94.7601 36.6339 94.2004 37.3242 94.2004H73.7568C74.3321 94.2004 74.8331 94.5931 74.9706 95.1517L87.2852 145.187C87.5137 146.116 86.6577 146.946 85.7365 146.69L36.9893 133.135C36.4485 132.985 36.0742 132.492 36.0742 131.931V95.4504Z" stroke="#2C9C48" stroke-width="1.5" shape-rendering="crispEdges"/>
</g>
<g filter="url(#filter4_d_116_4690)">
<path d="M57.0932 120.174L55.5938 120.217C55.6169 121.028 56.2814 121.674 57.0932 121.674V120.174ZM56.6508 104.693V103.193C56.2456 103.193 55.8576 103.357 55.5751 103.648C55.2927 103.938 55.1399 104.331 55.1515 104.736L56.6508 104.693ZM59.3047 104.693L60.804 104.739C60.8164 104.334 60.664 103.94 60.3815 103.649C60.099 103.358 59.7105 103.193 59.3047 103.193V104.693ZM58.8308 120.174V121.674C59.6414 121.674 60.3053 121.03 60.3301 120.22L58.8308 120.174ZM56.7772 126.493L55.6829 127.519C55.705 127.542 55.7278 127.565 55.7513 127.587L56.7772 126.493ZM56.7772 124.186L57.8007 125.283L57.8031 125.281L56.7772 124.186ZM59.1467 124.186L58.0502 125.21C58.0737 125.235 58.0981 125.26 58.1233 125.283L59.1467 124.186ZM59.1467 126.493L58.0524 125.467L58.0502 125.469L59.1467 126.493ZM58.5925 120.131L58.1502 104.65L55.1515 104.736L55.5938 120.217L58.5925 120.131ZM56.6508 106.193H59.3047V103.193H56.6508V106.193ZM57.8054 104.647L57.3315 120.128L60.3301 120.22L60.804 104.739L57.8054 104.647ZM58.8308 118.674H57.0932V121.674H58.8308V118.674ZM57.9778 125.467C57.8942 125.467 57.8611 125.453 57.8031 125.398L55.7513 127.587C56.3673 128.165 57.1346 128.467 57.9778 128.467V125.467ZM57.8715 125.467C57.8273 125.42 57.815 125.392 57.8119 125.384C57.8092 125.378 57.8033 125.362 57.8033 125.324H54.8033C54.8033 126.165 55.1191 126.917 55.6829 127.519L57.8715 125.467ZM57.8033 125.324C57.8033 125.293 57.8059 125.276 57.8072 125.269C57.8085 125.262 57.8089 125.263 57.8064 125.269C57.8038 125.275 57.8003 125.281 57.7969 125.286C57.7937 125.291 57.7938 125.29 57.8007 125.283L55.7537 123.09C55.1101 123.691 54.8033 124.478 54.8033 125.324H57.8033ZM57.8031 125.281C57.8611 125.226 57.8942 125.213 57.9778 125.213V122.213C57.1346 122.213 56.3673 122.515 55.7513 123.092L57.8031 125.281ZM57.9778 125.213C58.0559 125.213 58.0791 125.225 58.0698 125.221C58.066 125.22 58.06 125.217 58.054 125.212C58.0481 125.208 58.0468 125.206 58.0502 125.21L60.2433 123.163C59.6289 122.505 58.8224 122.213 57.9778 122.213V125.213ZM58.1233 125.283C58.1302 125.29 58.1302 125.291 58.127 125.286C58.1237 125.281 58.1202 125.275 58.1175 125.269C58.115 125.263 58.1154 125.262 58.1167 125.269C58.118 125.276 58.1206 125.293 58.1206 125.324H61.1206C61.1206 124.478 60.8138 123.691 60.1702 123.09L58.1233 125.283ZM58.1206 125.324C58.1206 125.362 58.1147 125.378 58.1121 125.384C58.1089 125.392 58.0967 125.42 58.0524 125.467L60.241 127.519C60.8049 126.917 61.1206 126.165 61.1206 125.324H58.1206ZM58.0502 125.469C58.0468 125.473 58.0481 125.471 58.054 125.467C58.06 125.463 58.066 125.46 58.0698 125.458C58.0791 125.454 58.0559 125.467 57.9778 125.467V128.467C58.8224 128.467 59.6289 128.175 60.2433 127.516L58.0502 125.469Z" fill="#2C9C48"/>
</g>
<g filter="url(#filter5_d_116_4690)">
<path d="M174.909 235.289H173.409C173.409 236.118 174.08 236.789 174.909 236.789V235.289ZM174.909 233.678L173.859 232.606C173.571 232.889 173.409 233.275 173.409 233.678H174.909ZM184.102 224.674L183.055 223.6L183.053 223.602L184.102 224.674ZM185.998 222.525L187.233 223.377C187.237 223.371 187.242 223.364 187.246 223.358L185.998 222.525ZM186.851 220.756L188.299 221.146L186.851 220.756ZM185.745 216.175L184.771 217.316C184.776 217.32 184.78 217.324 184.785 217.328L185.745 216.175ZM178.416 215.67L177.863 214.275L177.853 214.279L178.416 215.67ZM175.856 217.534L174.877 218.669C175.179 218.931 175.574 219.06 175.972 219.029C176.371 218.998 176.74 218.81 176.999 218.505L175.856 217.534ZM174.245 216.144L173.105 215.169C172.568 215.797 172.64 216.74 173.265 217.279L174.245 216.144ZM177.563 213.806L178.127 215.195H178.127L177.563 213.806ZM185.966 213.711L185.36 215.083C185.367 215.086 185.374 215.089 185.382 215.092L185.966 213.711ZM188.494 215.764L187.237 216.583C187.241 216.59 187.246 216.596 187.25 216.603L188.494 215.764ZM189.094 221.072L187.659 220.637C187.655 220.651 187.651 220.664 187.647 220.678L189.094 221.072ZM188.02 223.284L186.777 222.444L186.772 222.452L188.02 223.284ZM185.777 225.874L184.728 224.802L184.726 224.804L185.777 225.874ZM177.341 234.152L176.121 235.024C176.376 235.381 176.774 235.608 177.211 235.646C177.647 235.684 178.079 235.53 178.392 235.223L177.341 234.152ZM176.709 233.267V231.767C176.148 231.767 175.633 232.081 175.376 232.581C175.119 233.081 175.162 233.682 175.489 234.139L176.709 233.267ZM190.421 233.267H191.921C191.921 232.439 191.25 231.767 190.421 231.767V233.267ZM190.421 235.289V236.789C191.25 236.789 191.921 236.118 191.921 235.289H190.421ZM176.409 235.289V233.678H173.409V235.289H176.409ZM175.958 234.75L185.152 225.746L183.053 223.602L173.859 232.606L175.958 234.75ZM185.15 225.748C186.026 224.893 186.734 224.1 187.233 223.377L184.763 221.674C184.419 222.172 183.863 222.812 183.055 223.6L185.15 225.748ZM187.246 223.358C187.729 222.633 188.098 221.894 188.299 221.146L185.403 220.366C185.309 220.714 185.109 221.154 184.75 221.693L187.246 223.358ZM188.299 221.146C188.475 220.492 188.572 219.844 188.572 219.208H185.572C185.572 219.541 185.521 219.925 185.403 220.366L188.299 221.146ZM188.572 219.208C188.572 217.536 187.974 216.08 186.706 215.023L184.785 217.328C185.285 217.744 185.572 218.31 185.572 219.208H188.572ZM186.719 215.034C185.476 213.973 183.781 213.569 181.891 213.569V216.569C183.413 216.569 184.287 216.903 184.771 217.316L186.719 215.034ZM181.891 213.569C180.433 213.569 179.082 213.793 177.863 214.275L178.968 217.064C179.771 216.746 180.737 216.569 181.891 216.569V213.569ZM177.853 214.279C176.631 214.773 175.581 215.542 174.714 216.562L176.999 218.505C177.564 217.84 178.221 217.366 178.978 217.06L177.853 214.279ZM176.836 216.398L175.225 215.008L173.265 217.279L174.877 218.669L176.836 216.398ZM175.386 217.118C176.079 216.306 176.98 215.661 178.127 215.195L176.998 212.416C175.449 213.045 174.139 213.959 173.105 215.169L175.386 217.118ZM178.127 215.195C179.272 214.73 180.582 214.484 182.08 214.484V211.484C180.25 211.484 178.549 211.786 176.998 212.416L178.127 215.195ZM182.08 214.484C183.417 214.484 184.497 214.701 185.36 215.083L186.573 212.339C185.246 211.752 183.734 211.484 182.08 211.484V214.484ZM185.382 215.092C186.231 215.451 186.827 215.953 187.237 216.583L189.751 214.946C188.982 213.765 187.893 212.897 186.551 212.329L185.382 215.092ZM187.25 216.603C187.675 217.232 187.91 217.996 187.91 218.955H190.91C190.91 217.472 190.535 216.108 189.738 214.926L187.25 216.603ZM187.91 218.955C187.91 219.522 187.827 220.081 187.659 220.637L190.53 221.507C190.782 220.673 190.91 219.821 190.91 218.955H187.91ZM187.647 220.678C187.512 221.174 187.238 221.762 186.777 222.444L189.263 224.124C189.855 223.247 190.298 222.361 190.541 221.467L187.647 220.678ZM186.772 222.452C186.346 223.091 185.677 223.873 184.728 224.802L186.826 226.946C187.856 225.938 188.683 224.993 189.268 224.116L186.772 222.452ZM184.726 224.804L176.291 233.081L178.392 235.223L186.827 226.945L184.726 224.804ZM178.562 233.28L177.93 232.395L175.489 234.139L176.121 235.024L178.562 233.28ZM176.709 234.767H190.421V231.767H176.709V234.767ZM188.921 233.267V235.289H191.921V233.267H188.921ZM190.421 233.789H174.909V236.789H190.421V233.789ZM192.187 229.476H190.687C190.687 230.305 191.359 230.976 192.187 230.976V229.476ZM192.187 227.833L191.016 226.896C190.803 227.162 190.687 227.493 190.687 227.833H192.187ZM203.908 213.174V211.674C203.453 211.674 203.021 211.881 202.737 212.237L203.908 213.174ZM206.436 213.174L207.611 214.106C207.969 213.655 208.037 213.039 207.786 212.521C207.536 212.003 207.011 211.674 206.436 211.674V213.174ZM194.809 227.833L194.368 229.267C194.959 229.449 195.601 229.25 195.985 228.765L194.809 227.833ZM193.577 227.454V225.954C192.835 225.954 192.204 226.497 192.094 227.231C191.984 227.965 192.427 228.669 193.136 228.888L193.577 227.454ZM211.364 227.454H212.864C212.864 226.626 212.193 225.954 211.364 225.954V227.454ZM211.364 229.476V230.976C212.193 230.976 212.864 230.305 212.864 229.476H211.364ZM204.667 235.289H203.167C203.167 236.118 203.838 236.789 204.667 236.789V235.289ZM204.667 229.476L203.167 229.429C203.167 229.445 203.167 229.46 203.167 229.476H204.667ZM204.73 227.454L206.229 227.501C206.23 227.485 206.23 227.47 206.23 227.454H204.73ZM204.73 222.336V220.836C203.901 220.836 203.23 221.508 203.23 222.336H204.73ZM206.941 222.336H208.441C208.441 221.508 207.77 220.836 206.941 220.836V222.336ZM206.941 235.289V236.789C207.77 236.789 208.441 236.118 208.441 235.289H206.941ZM193.687 229.476V227.833H190.687V229.476H193.687ZM193.359 228.77L205.08 214.111L202.737 212.237L191.016 226.896L193.359 228.77ZM203.908 214.674H206.436V211.674H203.908V214.674ZM205.261 212.242L193.634 226.901L195.985 228.765L207.611 214.106L205.261 212.242ZM195.251 226.4L194.018 226.02L193.136 228.888L194.368 229.267L195.251 226.4ZM193.577 228.954H211.364V225.954H193.577V228.954ZM209.864 227.454V229.476H212.864V227.454H209.864ZM211.364 227.976H192.187V230.976H211.364V227.976ZM206.167 235.289V229.476H203.167V235.289H206.167ZM206.166 229.523L206.229 227.501L203.231 227.407L203.167 229.429L206.166 229.523ZM206.23 227.454V222.336H203.23V227.454H206.23ZM204.73 223.836H206.941V220.836H204.73V223.836ZM205.441 222.336V235.289H208.441V222.336H205.441ZM206.941 233.789H204.667V236.789H206.941V233.789ZM211.916 238.449L210.5 237.953C210.339 238.412 210.411 238.92 210.692 239.316C210.974 239.713 211.43 239.949 211.916 239.949V238.449ZM222.342 208.688V207.188C221.704 207.188 221.137 207.59 220.926 208.192L222.342 208.688ZM224.395 208.688L225.811 209.183C225.972 208.725 225.9 208.216 225.619 207.82C225.338 207.423 224.882 207.188 224.395 207.188V208.688ZM213.969 238.449V239.949C214.607 239.949 215.174 239.546 215.385 238.945L213.969 238.449ZM213.332 238.945L223.757 209.183L220.926 208.192L210.5 237.953L213.332 238.945ZM222.342 210.188H224.395V207.188H222.342V210.188ZM222.98 208.192L212.554 237.953L215.385 238.945L225.811 209.183L222.98 208.192ZM213.969 236.949H211.916V239.949H213.969V236.949ZM229.28 235.289L227.913 234.671C227.703 235.136 227.743 235.675 228.02 236.103C228.296 236.531 228.771 236.789 229.28 236.789V235.289ZM238.821 214.185L240.057 213.335C239.751 212.889 239.227 212.643 238.688 212.691C238.149 212.739 237.677 213.074 237.454 213.567L238.821 214.185ZM239.516 215.196V216.696C240.073 216.696 240.585 216.387 240.844 215.894C241.103 215.401 241.068 214.805 240.752 214.346L239.516 215.196ZM225.836 215.196L224.805 214.106C224.359 214.528 224.215 215.18 224.443 215.751C224.67 216.321 225.222 216.696 225.836 216.696V215.196ZM227.005 214.09H228.505C228.505 213.491 228.149 212.949 227.598 212.712C227.048 212.475 226.41 212.589 225.974 213L227.005 214.09ZM227.005 219.335V220.835C227.834 220.835 228.505 220.163 228.505 219.335H227.005ZM224.762 219.335H223.262C223.262 220.163 223.934 220.835 224.762 220.835V219.335ZM224.762 213.174V211.674C223.934 211.674 223.262 212.345 223.262 213.174H224.762ZM241.001 213.174H242.501C242.501 212.345 241.83 211.674 241.001 211.674V213.174ZM241.001 214.785L242.368 215.402C242.456 215.208 242.501 214.998 242.501 214.785H241.001ZM231.744 235.289V236.789C232.334 236.789 232.869 236.444 233.111 235.907L231.744 235.289ZM230.647 235.907L240.188 214.803L237.454 213.567L227.913 234.671L230.647 235.907ZM237.585 215.035L238.28 216.046L240.752 214.346L240.057 213.335L237.585 215.035ZM239.516 213.696H225.836V216.696H239.516V213.696ZM226.867 216.285L228.036 215.18L225.974 213L224.805 214.106L226.867 216.285ZM225.505 214.09V219.335H228.505V214.09H225.505ZM227.005 217.835H224.762V220.835H227.005V217.835ZM226.262 219.335V213.174H223.262V219.335H226.262ZM224.762 214.674H241.001V211.674H224.762V214.674ZM239.501 213.174V214.785H242.501V213.174H239.501ZM239.634 214.168L230.377 234.672L233.111 235.907L242.368 215.402L239.634 214.168ZM231.744 233.789H229.28V236.789H231.744V233.789Z" fill="#2C9C48"/>
</g>
</g>
<defs>
<filter id="filter0_d_116_4690" x="91.7354" y="92.0587" width="123.441" height="130.012" filterUnits="userSpaceOnUse" color-interpolation-filters="sRGB">
<feFlood flood-opacity="0" result="BackgroundImageFix"/>
<feColorMatrix in="SourceAlpha" type="matrix" values="0 0 0 0 0 0 0 0 0 0 0 0 0 0 0 0 0 0 127 0" result="hardAlpha"/>
<feOffset dx="2" dy="2"/>
<feGaussianBlur stdDeviation="2.5"/>
<feComposite in2="hardAlpha" operator="out"/>
<feColorMatrix type="matrix" values="0 0 0 0 0.172549 0 0 0 0 0.611765 0 0 0 0 0.282353 0 0 0 0.25 0"/>
<feBlend mode="normal" in2="BackgroundImageFix" result="effect1_dropShadow_116_4690"/>
<feBlend mode="normal" in="SourceGraphic" in2="effect1_dropShadow_116_4690" result="shape"/>
</filter>
<filter id="filter1_d_116_4690" x="58.3938" y="30.6461" width="63.1594" height="63.0123" filterUnits="userSpaceOnUse" color-interpolation-filters="sRGB">
<feFlood flood-opacity="0" result="BackgroundImageFix"/>
<feColorMatrix in="SourceAlpha" type="matrix" values="0 0 0 0 0 0 0 0 0 0 0 0 0 0 0 0 0 0 127 0" result="hardAlpha"/>
<feOffset dx="2" dy="2"/>
<feGaussianBlur stdDeviation="2.5"/>
<feComposite in2="hardAlpha" operator="out"/>
<feColorMatrix type="matrix" values="0 0 0 0 0.172549 0 0 0 0 0.611765 0 0 0 0 0.282353 0 0 0 0.25 0"/>
<feBlend mode="normal" in2="BackgroundImageFix" result="effect1_dropShadow_116_4690"/>
<feBlend mode="normal" in="SourceGraphic" in2="effect1_dropShadow_116_4690" result="shape"/>
</filter>
<filter id="filter2_d_116_4690" x="77.2415" y="45.9601" width="25.1333" height="32.463" filterUnits="userSpaceOnUse" color-interpolation-filters="sRGB">
<feFlood flood-opacity="0" result="BackgroundImageFix"/>
<feColorMatrix in="SourceAlpha" type="matrix" values="0 0 0 0 0 0 0 0 0 0 0 0 0 0 0 0 0 0 127 0" result="hardAlpha"/>
<feOffset dx="2" dy="2"/>
<feGaussianBlur stdDeviation="2.5"/>
<feComposite in2="hardAlpha" operator="out"/>
<feColorMatrix type="matrix" values="0 0 0 0 0.172549 0 0 0 0 0.611765 0 0 0 0 0.282353 0 0 0 0.25 0"/>
<feBlend mode="normal" in2="BackgroundImageFix" result="effect1_dropShadow_116_4690"/>
<feBlend mode="normal" in="SourceGraphic" in2="effect1_dropShadow_116_4690" result="shape"/>
</filter>
<filter id="filter3_d_116_4690" x="32.3242" y="90.4504" width="62.749" height="64.0376" filterUnits="userSpaceOnUse" color-interpolation-filters="sRGB">
<feFlood flood-opacity="0" result="BackgroundImageFix"/>
<feColorMatrix in="SourceAlpha" type="matrix" values="0 0 0 0 0 0 0 0 0 0 0 0 0 0 0 0 0 0 127 0" result="hardAlpha"/>
<feOffset dx="2" dy="2"/>
<feGaussianBlur stdDeviation="2.5"/>
<feComposite in2="hardAlpha" operator="out"/>
<feColorMatrix type="matrix" values="0 0 0 0 0.172549 0 0 0 0 0.611765 0 0 0 0 0.282353 0 0 0 0.25 0"/>
<feBlend mode="normal" in2="BackgroundImageFix" result="effect1_dropShadow_116_4690"/>
<feBlend mode="normal" in="SourceGraphic" in2="effect1_dropShadow_116_4690" result="shape"/>
</filter>
<filter id="filter4_d_116_4690" x="53.3032" y="101.693" width="13.3174" height="32.2734" filterUnits="userSpaceOnUse" color-interpolation-filters="sRGB">
<feFlood flood-opacity="0" result="BackgroundImageFix"/>
<feColorMatrix in="SourceAlpha" type="matrix" values="0 0 0 0 0 0 0 0 0 0 0 0 0 0 0 0 0 0 127 0" result="hardAlpha"/>
<feOffset dx="2" dy="2"/>
<feGaussianBlur stdDeviation="2.5"/>
<feComposite in2="hardAlpha" operator="out"/>
<feColorMatrix type="matrix" values="0 0 0 0 0.172549 0 0 0 0 0.611765 0 0 0 0 0.282353 0 0 0 0.25 0"/>
<feBlend mode="normal" in2="BackgroundImageFix" result="effect1_dropShadow_116_4690"/>
<feBlend mode="normal" in="SourceGraphic" in2="effect1_dropShadow_116_4690" result="shape"/>
</filter>
<filter id="filter5_d_116_4690" x="171.245" y="205.688" width="76.7561" height="39.7611" filterUnits="userSpaceOnUse" color-interpolation-filters="sRGB">
<feFlood flood-opacity="0" result="BackgroundImageFix"/>
<feColorMatrix in="SourceAlpha" type="matrix" values="0 0 0 0 0 0 0 0 0 0 0 0 0 0 0 0 0 0 127 0" result="hardAlpha"/>
<feOffset dx="2" dy="2"/>
<feGaussianBlur stdDeviation="2.5"/>
<feComposite in2="hardAlpha" operator="out"/>
<feColorMatrix type="matrix" values="0 0 0 0 0.172549 0 0 0 0 0.611765 0 0 0 0 0.282353 0 0 0 0.25 0"/>
<feBlend mode="normal" in2="BackgroundImageFix" result="effect1_dropShadow_116_4690"/>
<feBlend mode="normal" in="SourceGraphic" in2="effect1_dropShadow_116_4690" result="shape"/>
</filter>
<clipPath id="clip0_116_4690">
<rect width="255" height="255" fill="white"/>
</clipPath>
</defs>
</svg>
